SplineFontDB: 3.2
FontName: Airborne86-Stencil
FullName: Airborne 86 Stencil
FamilyName: Airborne 86 Stencil
Weight: Book
Copyright: Airborne 86 (c)Almarkhatype 2020. All Rights Reserved
Version: 1.00;May 10, 2020;FontCreator 13.0.0.2630 64-bit
ItalicAngle: 0
UnderlinePosition: -292
UnderlineWidth: 150
Ascent: 1638
Descent: 410
InvalidEm: 0
sfntRevision: 0x00010000
LayerCount: 2
Layer: 0 1 "Back" 1
Layer: 1 1 "Fore" 0
XUID: [1021 79 1991628594 24751]
StyleMap: 0x0040
FSType: 0
OS2Version: 3
OS2_WeightWidthSlopeOnly: 0
OS2_UseTypoMetrics: 0
CreationTime: 1586340649
ModificationTime: 1682208017
PfmFamily: 17
TTFWeight: 400
TTFWidth: 5
LineGap: 340
VLineGap: 0
Panose: 2 0 5 0 0 0 0 0 0 0
OS2TypoAscent: 1434
OS2TypoAOffset: 0
OS2TypoDescent: 1
OS2TypoDOffset: 0
OS2TypoLinegap: 205
OS2WinAscent: 1740
OS2WinAOffset: 0
OS2WinDescent: 276
OS2WinDOffset: 0
HheadAscent: 1740
HheadAOffset: 0
HheadDescent: -276
HheadDOffset: 0
OS2SubXSize: 1434
OS2SubYSize: 1331
OS2SubXOff: 0
OS2SubYOff: 307
OS2SupXSize: 1434
OS2SupYSize: 1331
OS2SupXOff: 0
OS2SupYOff: 922
OS2StrikeYSize: 102
OS2StrikeYPos: 530
OS2CapHeight: 1434
OS2XHeight: 1434
OS2Vendor: 'HL  '
OS2CodePages: 00000001.00000000
OS2UnicodeRanges: 00000003.00000000.00000000.00000000
Lookup: 258 0 0 "'kern' Horizontal Kerning in Latin lookup 0" { "'kern' Horizontal Kerning in Latin lookup 0 subtable"  } ['kern' ('latn' <'dflt' > ) ]
DEI: 91125
KernClass2: 34 22 "'kern' Horizontal Kerning in Latin lookup 0 subtable"
 41 quotedbl quotesingle asterisk asciicircum
 4 zero
 3 one
 3 two
 4 four
 4 five
 3 six
 5 seven
 5 eight
 4 nine
 101 A a Agrave Aacute Acircumflex Atilde Adieresis Aring agrave aacute acircumflex atilde adieresis aring
 3 B b
 21 C c Ccedilla ccedilla
 11 D d Eth eth
 75 E e Egrave Eacute Ecircumflex Edieresis egrave eacute ecircumflex edieresis
 3 F f
 3 G g
 3 K k
 3 L l
 103 O o Ograve Oacute Ocircumflex Otilde Odieresis Oslash ograve oacute ocircumflex otilde odieresis oslash
 3 P p
 3 Q q
 3 R r

StartChar: exclam
Encoding: 33 33 4
Width: 344
GlyphClass: 2
Flags: W
LayerCount: 2
Fore
SplineSet
222 263 m 2,0,-1
 121 263 l 2,1,2
 108 263 108 263 98 273 c 128,-1,3
 88 283 88 283 88 296 c 2,4,-1
 88 1409 l 2,5,6
 88 1423 88 1423 98 1433 c 128,-1,7
 108 1443 108 1443 121 1443 c 2,8,-1
 222 1443 l 2,9,10
 236 1443 236 1443 245.5 1433 c 128,-1,11
 255 1423 255 1423 255 1409 c 2,12,-1
 255 296 l 2,13,14
 255 283 255 283 245.5 273 c 128,-1,15
 236 263 236 263 222 263 c 2,0,-1
222 0 m 2,16,-1
 121 0 l 2,17,18
 108 0 108 0 98 10 c 128,-1,19
 88 20 88 20 88 33 c 2,20,-1
 88 134 l 2,21,22
 88 148 88 148 98 157.5 c 128,-1,23
 108 167 108 167 121 167 c 2,24,-1
 222 167 l 2,25,26
 236 167 236 167 245.5 157.5 c 128,-1,27
 255 148 255 148 255 134 c 2,28,-1
 255 33 l 2,29,30
 255 20 255 20 245.5 10 c 128,-1,31
 236 0 236 0 222 0 c 2,16,-1
EndSplineSet
EndChar

StartChar: quotedbl
Encoding: 34 34 5
Width: 469
GlyphClass: 2
Flags: W
LayerCount: 2
Fore
SplineSet
179 1150 m 2,0,-1
 78 1150 l 2,1,2
 65 1150 65 1150 55 1160 c 128,-1,3
 45 1170 45 1170 45 1183 c 2,4,-1
 45 1475 l 2,5,6
 45 1489 45 1489 55 1498.5 c 128,-1,7
 65 1508 65 1508 78 1508 c 2,8,-1
 179 1508 l 2,9,10
 193 1508 193 1508 202.5 1498.5 c 128,-1,11
 212 1489 212 1489 212 1475 c 2,12,-1
 212 1183 l 2,13,14
 212 1170 212 1170 202.5 1160 c 128,-1,15
 193 1150 193 1150 179 1150 c 2,0,-1
390 1150 m 2,16,-1
 290 1150 l 2,17,18
 276 1150 276 1150 266 1160 c 128,-1,19
 256 1170 256 1170 256 1183 c 2,20,-1
 256 1475 l 2,21,22
 256 1489 256 1489 266 1498.5 c 128,-1,23
 276 1508 276 1508 290 1508 c 2,24,-1
 390 1508 l 2,25,26
 404 1508 404 1508 414 1498.5 c 128,-1,27
 424 1489 424 1489 424 1475 c 2,28,-1
 424 1183 l 2,29,30
 424 1170 424 1170 414 1160 c 128,-1,31
 404 1150 404 1150 390 1150 c 2,16,-1
EndSplineSet
EndChar

StartChar: numbersign
Encoding: 35 35 6
Width: 1225
GlyphClass: 2
Flags: W
LayerCount: 2
Fore
SplineSet
654 0 m 2,0,-1
 553 0 l 2,1,2
 531 0 531 0 529 22 c 0,3,4
 530 30 530 30 637 335 c 1,5,-1
 302 335 l 1,6,-1
 196 30 l 2,7,8
 191 17 191 17 178.5 8.5 c 128,-1,9
 166 0 166 0 152 0 c 2,10,-1
 52 0 l 2,11,12
 30 0 30 0 27 21 c 0,13,14
 29 30 29 30 135 335 c 1,15,-1
 60 335 l 2,16,17
 47 335 47 335 37 345 c 128,-1,18
 27 355 27 355 27 368 c 2,19,-1
 27 469 l 2,20,21
 27 483 27 483 37 492.5 c 128,-1,22
 47 502 47 502 60 502 c 2,23,-1
 194 502 l 1,24,-1
 344 932 l 1,25,-1
 269 932 l 2,26,27
 255 932 255 932 245 942 c 128,-1,28
 235 952 235 952 235 965 c 2,29,-1
 235 1066 l 2,30,31
 235 1080 235 1080 245 1089.5 c 128,-1,32
 255 1099 255 1099 269 1099 c 2,33,-1
 403 1099 l 1,34,-1
 509 1404 l 2,35,36
 514 1416 514 1416 527 1425 c 128,-1,37
 540 1434 540 1434 553 1434 c 2,38,-1
 654 1434 l 2,39,40
 677 1434 677 1434 679 1413 c 0,41,42
 677 1404 677 1404 570 1099 c 1,43,-1
 905 1099 l 1,44,-1
 1011 1404 l 2,45,46
 1016 1416 1016 1416 1029 1425 c 128,-1,47
 1042 1434 1042 1434 1055 1434 c 2,48,-1
 1156 1434 l 2,49,50
 1167 1434 1167 1434 1173.5 1428 c 128,-1,51
 1180 1422 1180 1422 1180 1413 c 0,52,53
 1178 1404 1178 1404 1072 1099 c 1,54,-1
 1147 1099 l 2,55,56
 1161 1099 1161 1099 1170.5 1089.5 c 128,-1,57
 1180 1080 1180 1080 1180 1066 c 2,58,-1
 1180 965 l 2,59,60
 1180 952 1180 952 1170.5 942 c 128,-1,61
 1161 932 1161 932 1147 932 c 2,62,-1
 1013 932 l 1,63,-1
 863 502 l 1,64,-1
 938 502 l 2,65,66
 952 502 952 502 961.5 492.5 c 128,-1,67
 971 483 971 483 971 469 c 2,68,-1
 971 368 l 2,69,70
 971 355 971 355 961.5 345 c 128,-1,71
 952 335 952 335 938 335 c 2,72,-1
 804 335 l 1,73,-1
 698 30 l 2,74,75
 693 17 693 17 680.5 8.5 c 128,-1,76
 668 0 668 0 654 0 c 2,0,-1
696 502 m 1,77,-1
 846 932 l 1,78,-1
 512 932 l 1,79,-1
 361 502 l 1,80,-1
 696 502 l 1,77,-1
EndSplineSet
EndChar

StartChar: dollar
Encoding: 36 36 7
Width: 2475
GlyphClass: 2
Flags: W
LayerCount: 2
Fore
SplineSet
1926 532 m 2,0,-1
 1925 532 l 2,1,2
 1921 532 1921 532 1913.5 533.5 c 128,-1,3
 1906 535 1906 535 1897 536 c 0,4,5
 1875 541 1875 541 1849 559 c 0,6,7
 1786 605 1786 605 1786 731 c 0,8,9
 1786 764 1786 764 1789.5 782 c 128,-1,10
 1793 800 1793 800 1798.5 814.5 c 128,-1,11
 1804 829 1804 829 1808 849 c 1,12,-1
 1767 745 l 2,13,14
 1757 719 1757 719 1749 704 c 0,15,16
 1733 669 1733 669 1725 665 c 0,17,18
 1724 665 1724 665 1722.5 664 c 128,-1,19
 1721 663 1721 663 1717 663 c 0,20,21
 1711 663 1711 663 1705.5 672.5 c 128,-1,22
 1700 682 1700 682 1695.5 686 c 128,-1,23
 1691 690 1691 690 1679 693 c 0,24,25
 1662 695 1662 695 1662 740 c 256,26,27
 1662 785 1662 785 1682 851 c 128,-1,28
 1702 917 1702 917 1733 967.5 c 128,-1,29
 1764 1018 1764 1018 1797 1018 c 0,30,31
 1812 1018 1812 1018 1823 993 c 1,32,-1
 1829 967 l 1,33,34
 1849 1022 1849 1022 1856.5 1024.5 c 128,-1,35
 1864 1027 1864 1027 1869 1035 c 0,36,37
 1871 1037 1871 1037 1873 1038.5 c 128,-1,38
 1875 1040 1875 1040 1878.5 1043.5 c 128,-1,39
 1882 1047 1882 1047 1886 1047 c 0,40,41
 1887 1047 1887 1047 1888 1046.5 c 128,-1,42
 1889 1046 1889 1046 1891 1045.5 c 128,-1,43
 1893 1045 1893 1045 1895.5 1040.5 c 128,-1,44
 1898 1036 1898 1036 1898 1025 c 0,45,46
 1898 991 1898 991 1875 920 c 0,47,48
 1860 873 1860 873 1847 819 c 0,49,50
 1832 757 1832 757 1832 688 c 0,51,52
 1832 616 1832 616 1854 584.5 c 128,-1,53
 1876 553 1876 553 1907 553 c 0,54,55
 1913 553 1913 553 1935 560.5 c 128,-1,56
 1957 568 1957 568 1981.5 593 c 128,-1,57
 2006 618 2006 618 2024 668.5 c 128,-1,58
 2042 719 2042 719 2042 806 c 0,59,60
 2042 817 2042 817 2041 849 c 128,-1,61
 2040 881 2040 881 2035 909.5 c 128,-1,62
 2030 938 2030 938 2019 938 c 0,63,64
 2013 938 2013 938 1997.5 907.5 c 128,-1,65
 1982 877 1982 877 1968.5 832 c 128,-1,66
 1955 787 1955 787 1955 743 c 0,67,68
 1955 710 1955 710 1966 683 c 1,69,-1
 1966 682 l 2,70,71
 1966 681 1966 681 1967.5 679 c 128,-1,72
 1969 677 1969 677 1971 676.5 c 128,-1,73
 1973 676 1973 676 1974 675 c 1,74,-1
 1972 674 l 2,75,76
 1971 672 1971 672 1965.5 670 c 128,-1,77
 1960 668 1960 668 1953 668 c 0,78,79
 1931 668 1931 668 1918 706 c 1,80,-1
 1918 709 l 2,81,82
 1917 718 1917 718 1913 731 c 2,83,-1
 1906 752 l 1,84,85
 1897 762 1897 762 1897 789 c 0,86,87
 1897 822 1897 822 1918.5 864 c 128,-1,88
 1940 906 1940 906 1972.5 937.5 c 128,-1,89
 2005 969 2005 969 2035 969 c 0,90,91
 2053 969 2053 969 2072.5 962.5 c 128,-1,92
 2092 956 2092 956 2105 932.5 c 128,-1,93
 2118 909 2118 909 2118 859 c 0,94,95
 2118 811 2118 811 2104.5 754.5 c 128,-1,96
 2091 698 2091 698 2065 647.5 c 128,-1,97
 2039 597 2039 597 2003.5 564.5 c 128,-1,98
 1968 532 1968 532 1926 532 c 2,0,-1
1713 719 m 256,99,100
 1715 719 1715 719 1725 743 c 0,101,102
 1734 760 1734 760 1744 784 c 2,103,-1
 1751 801 l 2,104,105
 1768 836 1768 836 1781 870 c 2,106,-1
 1814 945 l 1,107,108
 1813 954 1813 954 1810 963 c 2,109,-1
 1808 969 l 2,110,111
 1804 983 1804 983 1800 983 c 0,112,113
 1794 983 1794 983 1772 943.5 c 128,-1,114
 1750 904 1750 904 1730.5 846.5 c 128,-1,115
 1711 789 1711 789 1711 735 c 0,116,117
 1711 719 1711 719 1713 719 c 256,99,100
1145 491 m 1,118,-1
 1135 491 l 2,119,120
 1101 491 1101 491 1076 516 c 128,-1,121
 1051 541 1051 541 1051 577 c 0,122,123
 1051 603 1051 603 1067 685 c 0,124,125
 1092 808 1092 808 1114 897 c 0,126,127
 1126 948 1126 948 1128.5 955.5 c 128,-1,128
 1131 963 1131 963 1135 967.5 c 128,-1,129
 1139 972 1139 972 1141.5 975 c 128,-1,130
 1144 978 1144 978 1146 980 c 1,131,132
 1132 969 1132 969 1090 959 c 0,133,134
 1074 953 1074 953 1060 950 c 2,135,-1
 1047 947 l 1,136,137
 1048 930 1048 930 1048 910 c 0,138,139
 1048 849 1048 849 1036 777.5 c 128,-1,140
 1024 706 1024 706 1005 654 c 128,-1,141
 986 602 986 602 962 602 c 0,142,143
 956 602 956 602 953 605 c 128,-1,144
 950 608 950 608 947 612.5 c 128,-1,145
 944 617 944 617 938 623.5 c 128,-1,146
 932 630 932 630 917.5 638 c 128,-1,147
 903 646 903 646 898 674 c 128,-1,148
 893 702 893 702 893 729 c 2,149,-1
 895 771 l 1,150,-1
 874 694 l 1,151,152
 843 599 843 599 822 599 c 0,153,154
 815 599 815 599 807 611 c 0,155,156
 806 613 806 613 800.5 615 c 128,-1,157
 795 617 795 617 787 621 c 0,158,159
 768 636 768 636 768 682 c 0,160,161
 768 771 768 771 808 850.5 c 128,-1,162
 848 930 848 930 881 930 c 0,163,164
 902 930 902 930 912 887 c 1,165,166
 923 909 923 909 930 919 c 0,167,168
 941 931 941 931 947 931 c 2,169,-1
 952 932 l 2,170,171
 969 932 969 932 976 926 c 1,172,-1
 981 925 l 1,173,174
 968 911 968 911 949 863.5 c 128,-1,175
 930 816 930 816 930 738 c 0,176,177
 930 715 930 715 935 686 c 1,178,-1
 937 680 l 2,179,180
 941 666 941 666 945 662 c 2,181,-1
 949 659 l 1,182,183
 965 676 965 676 984 748 c 128,-1,184
 1003 820 1003 820 1003 896 c 0,185,186
 1003 929 1003 929 997 959 c 1,187,188
 971 967 971 967 959 983.5 c 128,-1,189
 947 1000 947 1000 947 1016 c 0,190,191
 947 1034 947 1034 955.5 1044.5 c 128,-1,192
 964 1055 964 1055 975 1059 c 128,-1,193
 986 1063 986 1063 993 1063 c 0,194,195
 1013 1063 1013 1063 1024.5 1041.5 c 128,-1,196
 1036 1020 1036 1020 1042 986 c 1,197,198
 1067 990 1067 990 1117 1008 c 2,199,-1
 1123 1010 l 2,200,201
 1138 1014 1138 1014 1146 1020 c 2,202,-1
 1158 1031 l 2,203,204
 1164 1039 1164 1039 1175 1039 c 0,205,206
 1184 1039 1184 1039 1191 1031.5 c 128,-1,207
 1198 1024 1198 1024 1198 1012 c 1,208,-1
 1197 1011 l 1,209,-1
 1174 931 l 2,210,211
 1116 730 1116 730 1116 623 c 0,212,213
 1116 547 1116 547 1145 491 c 1,118,-1
821 645 m 0,214,215
 824 645 824 645 830.5 663 c 128,-1,216
 837 681 837 681 846 708 c 128,-1,217
 855 735 855 735 863.5 763.5 c 128,-1,218
 872 792 872 792 879.5 814 c 128,-1,219
 887 836 887 836 890 843 c 0,220,221
 889 860 889 860 886.5 869.5 c 128,-1,222
 884 879 884 879 879 881 c 2,223,-1
 875 881 l 1,224,225
 860 868 860 868 845 829.5 c 128,-1,226
 830 791 830 791 820.5 746.5 c 128,-1,227
 811 702 811 702 811 673 c 0,228,229
 811 646 811 646 821 645 c 0,214,215
650 243 m 0,230,231
 482 243 482 243 412 358 c 0,232,233
 362 438 362 438 362 536 c 0,234,235
 362 640 362 640 392 741.5 c 128,-1,236
 422 843 422 843 470 930 c 1,237,238
 437 933 437 933 393 933 c 0,239,240
 306 933 306 933 243 915 c 128,-1,241
 180 897 180 897 156 847 c 1,242,-1
 152 861 l 2,243,244
 148 874 148 874 148 892 c 0,245,246
 148 975 148 975 247 984 c 0,247,248
 289 988 289 988 328 988 c 0,249,250
 384 988 384 988 429 985 c 0,251,252
 464 982 464 982 491 982 c 0,253,254
 496 982 496 982 500 983 c 0,255,256
 567 1088 567 1088 639.5 1152.5 c 128,-1,257
 712 1217 712 1217 764 1217 c 0,258,259
 799 1217 799 1217 799 1180 c 0,260,261
 799 1174 799 1174 791.5 1139 c 128,-1,262
 784 1104 784 1104 758 1059 c 0,263,264
 693 950 693 950 523 929 c 1,265,266
 512 903 512 903 486 835 c 0,267,268
 421 659 421 659 421 538 c 0,269,270
 421 445 421 445 484 377.5 c 128,-1,271
 547 310 547 310 640 310 c 0,272,273
 732 310 732 310 851 343 c 128,-1,274
 970 376 970 376 1098 418 c 0,275,276
 1230 462 1230 462 1356.5 496.5 c 128,-1,277
 1483 531 1483 531 1582 531 c 256,278,279
 1681 531 1681 531 1744.5 507 c 128,-1,280
 1808 483 1808 483 1843 452 c 128,-1,281
 1878 421 1878 421 1893 394 c 1,282,-1
 1897 375 l 1,283,-1
 1871 397 l 2,284,285
 1845 418 1845 418 1782.5 439 c 128,-1,286
 1720 460 1720 460 1615 460 c 0,287,288
 1513 460 1513 460 1415.5 441.5 c 128,-1,289
 1318 423 1318 423 1225 395 c 128,-1,290
 1132 367 1132 367 1045 337 c 0,291,292
 936 298 936 298 836.5 270.5 c 128,-1,293
 737 243 737 243 650 243 c 0,230,231
555 986 m 2,294,295
 590 986 590 986 625.5 1000.5 c 128,-1,296
 661 1015 661 1015 703 1058 c 0,297,298
 723 1082 723 1082 734 1107.5 c 128,-1,299
 745 1133 745 1133 748 1152 c 2,300,-1
 752 1171 l 1,301,-1
 717 1148 l 2,302,303
 681 1125 681 1125 634.5 1083 c 128,-1,304
 588 1041 588 1041 550 986 c 1,305,-1
 555 986 l 2,294,295
616 416 m 1,306,-1
 601 421 l 2,307,308
 585 430 585 430 575 454 c 0,309,310
 561 484 561 484 561 542 c 0,311,312
 561 593 561 593 569 644 c 128,-1,313
 577 695 577 695 587 732 c 1,314,-1
 563 665 l 2,315,316
 533 583 533 583 531 562 c 1,317,-1
 524 564 l 2,318,319
 516 566 516 566 506 570.5 c 128,-1,320
 496 575 496 575 487.5 581.5 c 128,-1,321
 479 588 479 588 475.5 600.5 c 128,-1,322
 472 613 472 613 472 634 c 0,323,324
 472 666 472 666 487.5 724.5 c 128,-1,325
 503 783 503 783 523 833 c 128,-1,326
 543 883 543 883 556 895 c 1,327,-1
 583 892 l 2,328,329
 597 889 597 889 597 883 c 2,330,-1
 574 829 l 2,331,332
 556 785 556 785 539 733.5 c 128,-1,333
 522 682 522 682 519 647 c 1,334,-1
 537 689 l 2,335,336
 555 730 555 730 580.5 784 c 128,-1,337
 606 838 606 838 629 880 c 128,-1,338
 652 922 652 922 662 922 c 1,339,-1
 663 921 l 1,340,341
 672 919 672 919 682 914 c 0,342,343
 684 914 684 914 685.5 912.5 c 128,-1,344
 687 911 687 911 688 910.5 c 128,-1,345
 689 910 689 910 690 909 c 128,-1,346
 691 908 691 908 691.5 908 c 128,-1,347
 692 908 692 908 692 907.5 c 128,-1,348
 692 907 692 907 693 906 c 1,349,-1
 693 906 l 1,350,-1
 673 860 l 2,351,352
 652 814 652 814 632 740 c 128,-1,353
 612 666 612 666 609 582 c 1,354,-1
 625 635 l 2,355,356
 641 688 641 688 665 758 c 0,357,358
 725 934 725 934 755 954 c 1,359,-1
 777 950 l 2,360,361
 780 949 780 949 784 948 c 128,-1,362
 788 947 788 947 793 944.5 c 128,-1,363
 798 942 798 942 798 939 c 2,364,-1
 797 938 l 1,365,-1
 774 861 l 2,366,367
 716 665 716 665 716 574 c 0,368,369
 716 541 716 541 720.5 531 c 128,-1,370
 725 521 725 521 735 521 c 0,371,372
 746 521 746 521 780 534 c 0,373,374
 867 565 867 565 913 565 c 0,375,376
 950 565 950 565 977 548 c 2,377,-1
 981 545 l 2,378,379
 987 540 987 540 989.5 537 c 128,-1,380
 992 534 992 534 992.5 533.5 c 128,-1,381
 993 533 993 533 995 531 c 1,382,-1
 994 531 l 1,383,-1
 956 528 l 2,384,385
 867 518 867 518 765 470 c 2,386,-1
 763 469 l 2,387,388
 761 468 761 468 757.5 466.5 c 128,-1,389
 754 465 754 465 747 465 c 0,390,391
 722 465 722 465 703 499 c 1,392,-1
 697 502 l 2,393,394
 696 503 696 503 693 505.5 c 128,-1,395
 690 508 690 508 685 514 c 0,396,397
 667 533 667 533 667 576 c 0,398,399
 667 608 667 608 685 689 c 2,400,-1
 702 766 l 1,401,-1
 689 730 l 2,402,403
 676 693 676 693 659.5 638.5 c 128,-1,404
 643 584 643 584 629 527 c 128,-1,405
 615 470 615 470 615 426 c 1,406,-1
 616 416 l 1,306,-1
352 362 m 2,407,-1
 349 362 l 2,408,409
 338 362 338 362 318.5 369 c 128,-1,410
 299 376 299 376 283.5 400.5 c 128,-1,411
 268 425 268 425 266 476 c 0,412,413
 266 493 266 493 268 517 c 0,414,415
 268 526 268 526 269 528 c 0,416,417
 274 592 274 592 279 624 c 2,418,-1
 281 644 l 1,419,-1
 246 571 l 2,420,421
 219 516 219 516 208 502 c 0,422,423
 202 490 202 490 190 490 c 0,424,425
 183 490 183 490 179 499 c 0,426,427
 172 517 172 517 154 522 c 0,428,429
 140 526 140 526 140 560 c 0,430,431
 140 605 140 605 163.5 669.5 c 128,-1,432
 187 734 187 734 221.5 785 c 128,-1,433
 256 836 256 836 292 839 c 1,434,435
 315 836 315 836 321 800 c 1,436,-1
 342 847 l 2,437,438
 359 884 359 884 365 885 c 128,-1,439
 371 886 371 886 383 898 c 0,440,441
 390 905 390 905 396 905 c 0,442,443
 397 905 397 905 397 904.5 c 128,-1,444
 397 904 397 904 399 904 c 128,-1,445
 401 904 401 904 402 903 c 0,446,447
 407 898 407 898 407 888 c 0,448,449
 405 857 405 857 382 803 c 0,450,451
 363 756 363 756 344.5 695.5 c 128,-1,452
 326 635 326 635 326 553 c 0,453,454
 326 444 326 444 371 364 c 1,455,456
 366 362 366 362 352 362 c 2,407,-1
189 546 m 2,457,458
 192 546 192 546 210 580 c 0,459,460
 249 653 249 653 268 692 c 2,461,-1
 306 765 l 2,462,463
 306 768 306 768 305.5 772.5 c 128,-1,464
 305 777 305 777 303.5 784 c 128,-1,465
 302 791 302 791 300 795.5 c 128,-1,466
 298 800 298 800 297 801.5 c 128,-1,467
 296 803 296 803 295 803 c 0,468,469
 285 802 285 802 260 761 c 128,-1,470
 235 720 235 720 212.5 662.5 c 128,-1,471
 190 605 190 605 188 554 c 1,472,-1
 189 546 l 2,457,458
1206 553 m 0,473,474
 1204 553 1204 553 1203 554 c 0,475,476
 1194 562 1194 562 1184 567.5 c 128,-1,477
 1174 573 1174 573 1166 585 c 128,-1,478
 1158 597 1158 597 1158 631 c 0,479,480
 1158 721 1158 721 1182.5 831.5 c 128,-1,481
 1207 942 1207 942 1239 1041.5 c 128,-1,482
 1271 1141 1271 1141 1294 1202 c 1,483,484
 1281 1203 1281 1203 1262 1203 c 0,485,486
 1231 1203 1231 1203 1183 1200 c 0,487,488
 990 1191 990 1191 952 1099 c 1,489,-1
 948 1112 l 2,490,491
 944 1124 944 1124 941 1144 c 0,492,493
 941 1212 941 1212 996.5 1231 c 128,-1,494
 1052 1250 1052 1250 1115 1251 c 0,495,496
 1170 1255 1170 1255 1215 1255 c 0,497,498
 1304 1255 1304 1255 1318 1264 c 1,499,500
 1328 1278 1328 1278 1337 1278 c 256,501,502
 1346 1278 1346 1278 1352 1259 c 2,503,-1
 1354 1254 l 2,504,505
 1359 1234 1359 1234 1368 1225 c 0,506,507
 1370 1222 1370 1222 1370 1219 c 2,508,-1
 1333 1136 l 1,509,510
 1248 934 1248 934 1229 772 c 1,511,512
 1239 807 1239 807 1254 844 c 0,513,514
 1332 1054 1332 1054 1390 1054 c 0,515,516
 1396 1054 1396 1054 1407 1048.5 c 128,-1,517
 1418 1043 1418 1043 1425.5 1030.5 c 128,-1,518
 1433 1018 1433 1018 1433 992 c 0,519,520
 1433 968 1433 968 1418.5 917.5 c 128,-1,521
 1404 867 1404 867 1373.5 822.5 c 128,-1,522
 1343 778 1343 778 1294 764 c 1,523,-1
 1295 762 l 2,524,525
 1300 755 1300 755 1311 743 c 128,-1,526
 1322 731 1322 731 1335 731 c 0,527,528
 1356 731 1356 731 1377 752 c 0,529,530
 1412 787 1412 787 1442 840 c 1,531,532
 1479 1010 1479 1010 1554 1217 c 1,533,-1
 1579 1282 l 1,534,-1
 1581 1285 l 2,535,536
 1583 1291 1583 1291 1589 1294 c 0,537,538
 1590 1296 1590 1296 1592.5 1298 c 128,-1,539
 1595 1300 1595 1300 1600 1300 c 0,540,541
 1608 1300 1608 1300 1614 1281 c 0,542,543
 1623 1253 1623 1253 1630 1246 c 0,544,545
 1633 1243 1633 1243 1633 1241 c 2,546,-1
 1632 1240 l 2,547,548
 1626 1230 1626 1230 1595 1158 c 0,549,550
 1505 955 1505 955 1486 770 c 1,551,-1
 1500 807 l 1,552,553
 1585 1010 1585 1010 1651 1010 c 2,554,-1
 1673 1010 l 2,555,556
 1703 1010 1703 1010 1703 993 c 0,557,558
 1703 987 1703 987 1692 968 c 0,559,560
 1630 855 1630 855 1630 736 c 0,561,562
 1633 657 1633 657 1701 615 c 0,563,564
 1728 601 1728 601 1758 601 c 2,565,-1
 1762 601 l 1,566,-1
 1753 589 l 2,567,568
 1748 583 1748 583 1742 579 c 0,569,570
 1726 570 1726 570 1690 570 c 0,571,572
 1656 570 1656 570 1632 583 c 0,573,574
 1596 604 1596 604 1580 644 c 0,575,576
 1568 669 1568 669 1568 705 c 2,577,-1
 1569 721 l 2,578,579
 1574 798 1574 798 1603 900 c 0,580,581
 1612 935 1612 935 1615 940 c 1,582,-1
 1596 902 l 2,583,584
 1494 692 1494 692 1472 615 c 1,585,-1
 1470 611 l 2,586,587
 1470 606 1470 606 1467 601 c 128,-1,588
 1464 596 1464 596 1462 592 c 128,-1,589
 1460 588 1460 588 1456 588 c 0,590,591
 1455 588 1455 588 1455 589 c 0,592,593
 1445 598 1445 598 1434.5 603 c 128,-1,594
 1424 608 1424 608 1421 615 c 2,595,-1
 1420 618 l 2,596,597
 1418 624 1418 624 1418 639 c 0,598,599
 1418 686 1418 686 1425 739 c 1,600,601
 1369 683 1369 683 1328 683 c 0,602,603
 1313 683 1313 683 1300 694 c 0,604,605
 1281 717 1281 717 1271 733 c 2,606,-1
 1260 748 l 1,607,-1
 1250 715 l 2,608,609
 1246 700 1246 700 1241.5 684.5 c 128,-1,610
 1237 669 1237 669 1232 642 c 0,611,612
 1230 630 1230 630 1228 620 c 128,-1,613
 1226 610 1226 610 1225 601 c 0,614,615
 1215 553 1215 553 1206 553 c 0,473,474
1285 810 m 1,616,617
 1311 819 1311 819 1330.5 848 c 128,-1,618
 1350 877 1350 877 1362.5 911 c 128,-1,619
 1375 945 1375 945 1381 972.5 c 128,-1,620
 1387 1000 1387 1000 1387 1004 c 1,621,-1
 1366 972 l 2,622,623
 1345 940 1345 940 1321 895 c 128,-1,624
 1297 850 1297 850 1285 810 c 1,616,617
1945 955 m 1,625,-1
 1945 956 l 1,626,-1
 1942 957 l 2,627,628
 1931 962 1931 962 1924 974 c 0,629,630
 1921 982 1921 982 1921 995 c 0,631,632
 1921 1009 1921 1009 1937 1046 c 0,633,634
 1949 1077 1949 1077 1960 1101 c 2,635,-1
 1974 1133 l 1,636,-1
 1970 1126 l 2,637,638
 1966 1119 1966 1119 1958 1108 c 0,639,640
 1954 1103 1954 1103 1950.5 1098 c 128,-1,641
 1947 1093 1947 1093 1944 1088.5 c 128,-1,642
 1941 1084 1941 1084 1930 1073 c 0,643,644
 1925 1069 1925 1069 1920 1069 c 0,645,646
 1916 1073 1916 1073 1914.5 1077 c 128,-1,647
 1913 1081 1913 1081 1911 1082 c 0,648,649
 1910 1087 1910 1087 1907 1088 c 0,650,651
 1907 1093 1907 1093 1911 1101 c 1,652,653
 1888 1069 1888 1069 1876 1069 c 0,654,655
 1874 1069 1874 1069 1871 1071 c 128,-1,656
 1868 1073 1868 1073 1868 1075.5 c 128,-1,657
 1868 1078 1868 1078 1867 1079 c 2,658,-1
 1867 1081 l 1,659,-1
 1866 1081 l 1,660,-1
 1866 1083 l 1,661,-1
 1864 1084 l 2,662,663
 1856 1087 1856 1087 1856 1110 c 0,664,665
 1856 1122 1856 1122 1864 1141 c 128,-1,666
 1872 1160 1872 1160 1878.5 1178.5 c 128,-1,667
 1885 1197 1885 1197 1895 1227 c 1,668,669
 1885 1224 1885 1224 1876 1223 c 0,670,671
 1865 1219 1865 1219 1859.5 1214.5 c 128,-1,672
 1854 1210 1854 1210 1851.5 1207 c 128,-1,673
 1849 1204 1849 1204 1847.5 1201.5 c 128,-1,674
 1846 1199 1846 1199 1845 1197 c 128,-1,675
 1844 1195 1844 1195 1843 1193.5 c 128,-1,676
 1842 1192 1842 1192 1842 1191 c 1,677,-1
 1842 1191 l 1,678,679
 1841 1191 1841 1191 1838 1193.5 c 128,-1,680
 1835 1196 1835 1196 1835 1197 c 1,681,-1
 1834 1197 l 1,682,-1
 1830 1203 l 2,683,684
 1830 1204 1830 1204 1829 1205.5 c 128,-1,685
 1828 1207 1828 1207 1828 1213 c 0,686,687
 1828 1229 1828 1229 1854.5 1237 c 128,-1,688
 1881 1245 1881 1245 1893 1245 c 2,689,-1
 1901 1246 l 1,690,691
 1903 1253 1903 1253 1906 1261.5 c 128,-1,692
 1909 1270 1909 1270 1912 1279.5 c 128,-1,693
 1915 1289 1915 1289 1937 1294 c 2,694,-1
 1949 1298 l 2,695,696
 1950 1298 1950 1298 1951.5 1297.5 c 128,-1,697
 1953 1297 1953 1297 1953 1292 c 0,698,699
 1949 1285 1949 1285 1944.5 1273.5 c 128,-1,700
 1940 1262 1940 1262 1933 1248 c 1,701,702
 2004 1248 2004 1248 2026 1241 c 0,703,704
 2034 1241 2034 1241 2050 1236 c 0,705,706
 2080 1229 2080 1229 2080 1211 c 1,707,708
 2044 1231 2044 1231 1961 1231 c 2,709,-1
 1925 1230 l 1,710,711
 1907 1188 1907 1188 1892 1150 c 0,712,713
 1879 1116 1879 1116 1879 1103 c 0,714,715
 1880 1101 1880 1101 1883 1101 c 0,716,717
 1890 1101 1890 1101 1907.5 1119.5 c 128,-1,718
 1925 1138 1925 1138 1934 1150 c 2,719,-1
 1946 1164 l 1,720,-1
 1950 1165 l 1,721,-1
 1954 1168 l 1,722,-1
 1955 1168 l 1,723,-1
 1957 1171 l 1,724,-1
 1959 1171 l 1,725,-1
 1964 1173 l 2,726,727
 1965 1173 1965 1173 1965 1172 c 2,728,-1
 1961 1166 l 2,729,730
 1931 1114 1931 1114 1931 1105 c 1,731,-1
 1932 1103 l 2,732,733
 1934 1103 1934 1103 1941 1112 c 2,734,-1
 1966 1145 l 2,735,736
 1992 1183 1992 1183 2001 1183 c 1,737,-1
 2005 1181 l 1,738,-1
 2007 1181 l 1,739,740
 2007 1180 2007 1180 2008 1180 c 128,-1,741
 2009 1180 2009 1180 2010 1179 c 2,742,-1
 2011 1179 l 1,743,-1
 2012 1176 l 1,744,-1
 2002 1155 l 1,745,-1
 1999 1147 l 2,746,747
 1978 1102 1978 1102 1956 1039 c 0,748,749
 1940 996 1940 996 1940 970 c 0,750,751
 1940 959 1940 959 1945 955 c 1,625,-1
1962 962 m 1,752,-1
 1961 962 l 2,753,754
 1959 963 1959 963 1958.5 963 c 128,-1,755
 1958 963 1958 963 1956 965.5 c 128,-1,756
 1954 968 1954 968 1953 970 c 128,-1,757
 1952 972 1952 972 1950 974 c 2,758,-1
 1950 977 l 2,759,760
 1950 995 1950 995 1977 1064 c 0,761,762
 1982 1075 1982 1075 1986 1087 c 0,763,764
 2022 1174 2022 1174 2025 1177 c 2,765,-1
 2027 1177 l 2,766,767
 2028 1176 2028 1176 2030.5 1175.5 c 128,-1,768
 2033 1175 2033 1175 2034.5 1174.5 c 128,-1,769
 2036 1174 2036 1174 2038.5 1173 c 128,-1,770
 2041 1172 2041 1172 2041 1169 c 2,771,-1
 2041 1167 l 1,772,-1
 2039 1164 l 2,773,774
 2032 1157 2032 1157 2001 1080 c 1,775,-1
 2052 1173 l 1,776,777
 2065 1167 2065 1167 2065 1132 c 0,778,779
 2064 1082 2064 1082 2045 1082 c 0,780,781
 2029 1082 2029 1082 2024 1092 c 1,782,783
 1975 1000 1975 1000 1962 962 c 1,752,-1
2026 1096 m 1,784,785
 2043 1096 2043 1096 2047 1105 c 128,-1,786
 2051 1114 2051 1114 2051 1127 c 0,787,788
 2051 1133 2051 1133 2050 1138 c 2,789,-1
 2050 1142 l 1,790,-1
 2026 1096 l 1,784,785
2094 1080 m 0,791,792
 2074 1080 2074 1080 2070 1106 c 1,793,-1
 2074 1131 l 1,794,795
 2084 1167 2084 1167 2098 1170 c 0,796,797
 2099 1170 2099 1170 2099 1169.5 c 128,-1,798
 2099 1169 2099 1169 2100.5 1169 c 128,-1,799
 2102 1169 2102 1169 2103.5 1168 c 128,-1,800
 2105 1167 2105 1167 2108 1165 c 0,801,802
 2112 1158 2112 1158 2112 1149 c 0,803,804
 2112 1137 2112 1137 2105.5 1124.5 c 128,-1,805
 2099 1112 2099 1112 2086 1103 c 0,806,807
 2086 1101 2086 1101 2087.5 1096.5 c 128,-1,808
 2089 1092 2089 1092 2091 1092 c 0,809,810
 2094 1092 2094 1092 2101 1098.5 c 128,-1,811
 2108 1105 2108 1105 2114.5 1116.5 c 128,-1,812
 2121 1128 2121 1128 2121 1146 c 0,813,814
 2121 1166 2121 1166 2117 1177 c 2,815,-1
 2115 1188 l 1,816,817
 2129 1185 2129 1185 2134 1164 c 2,818,-1
 2135 1161 l 2,819,820
 2136 1154 2136 1154 2136 1142 c 0,821,822
 2136 1117 2136 1117 2124 1098.5 c 128,-1,823
 2112 1080 2112 1080 2094 1080 c 0,791,792
2089 1118 m 1,824,825
 2101 1133 2101 1133 2101 1150 c 2,826,-1
 2101 1152 l 1,827,-1
 2100 1152 l 2,828,829
 2099 1152 2099 1152 2097.5 1148 c 128,-1,830
 2096 1144 2096 1144 2095 1142 c 0,831,832
 2091 1131 2091 1131 2089 1118 c 1,824,825
EndSplineSet
EndChar

StartChar: percent
Encoding: 37 37 8
Width: 1292
GlyphClass: 2
Flags: W
LayerCount: 2
Fore
SplineSet
370 717 m 2,0,-1
 213 717 l 2,1,2
 183 717 183 717 158 738 c 2,3,-1
 81 805 l 2,4,5
 53 832 53 832 53 868 c 2,6,-1
 53 1283 l 2,7,8
 53 1319 53 1319 81 1345 c 2,9,-1
 158 1413 l 2,10,11
 183 1434 183 1434 213 1434 c 2,12,-1
 370 1434 l 2,13,14
 402 1434 402 1434 426 1413 c 2,15,-1
 502 1345 l 2,16,17
 531 1319 531 1319 531 1283 c 2,18,-1
 531 868 l 2,19,20
 531 832 531 832 502 805 c 2,21,-1
 426 738 l 2,22,23
 402 717 402 717 370 717 c 2,0,-1
339 884 m 1,24,-1
 364 906 l 1,25,-1
 364 1245 l 1,26,-1
 339 1267 l 1,27,-1
 245 1267 l 1,28,-1
 220 1245 l 1,29,-1
 220 906 l 1,30,-1
 245 884 l 1,31,-1
 339 884 l 1,24,-1
1087 0 m 2,32,-1
 930 0 l 2,33,34
 900 0 900 0 875 21 c 2,35,-1
 798 88 l 2,36,37
 770 115 770 115 770 151 c 2,38,-1
 770 566 l 2,39,40
 770 602 770 602 798 629 c 2,41,-1
 875 696 l 2,42,43
 900 717 900 717 930 717 c 2,44,-1
 1087 717 l 2,45,46
 1119 717 1119 717 1143 696 c 2,47,-1
 1219 629 l 2,48,49
 1248 602 1248 602 1248 566 c 2,50,-1
 1248 151 l 2,51,52
 1248 115 1248 115 1219 88 c 2,53,-1
 1143 21 l 2,54,55
 1119 0 1119 0 1087 0 c 2,32,-1
1056 167 m 1,56,-1
 1080 189 l 1,57,-1
 1080 528 l 1,58,-1
 1056 550 l 1,59,-1
 962 550 l 1,60,-1
 937 528 l 1,61,-1
 937 189 l 1,62,-1
 962 167 l 1,63,-1
 1056 167 l 1,56,-1
450 0 m 2,64,-1
 350 0 l 2,65,66
 326 0 326 0 325 21 c 0,67,68
 327 30 327 30 808 1404 c 0,69,70
 812 1416 812 1416 825 1425 c 128,-1,71
 838 1434 838 1434 851 1434 c 2,72,-1
 952 1434 l 2,73,74
 963 1434 963 1434 969.5 1428 c 128,-1,75
 976 1422 976 1422 976 1413 c 2,76,-1
 975 1404 l 1,77,-1
 494 30 l 2,78,79
 489 17 489 17 476.5 8.5 c 128,-1,80
 464 0 464 0 450 0 c 2,64,-1
EndSplineSet
EndChar

StartChar: ampersand
Encoding: 38 38 9
Width: 2475
GlyphClass: 2
Flags: W
LayerCount: 2
Fore
SplineSet
1926 532 m 2,0,-1
 1925 532 l 2,1,2
 1921 532 1921 532 1913.5 533.5 c 128,-1,3
 1906 535 1906 535 1897 536 c 0,4,5
 1875 541 1875 541 1849 559 c 0,6,7
 1786 605 1786 605 1786 731 c 0,8,9
 1786 764 1786 764 1789.5 782 c 128,-1,10
 1793 800 1793 800 1798.5 814.5 c 128,-1,11
 1804 829 1804 829 1808 849 c 1,12,-1
 1767 745 l 2,13,14
 1757 719 1757 719 1749 704 c 0,15,16
 1733 669 1733 669 1725 665 c 0,17,18
 1724 665 1724 665 1722.5 664 c 128,-1,19
 1721 663 1721 663 1717 663 c 0,20,21
 1711 663 1711 663 1705.5 672.5 c 128,-1,22
 1700 682 1700 682 1695.5 686 c 128,-1,23
 1691 690 1691 690 1679 693 c 0,24,25
 1662 695 1662 695 1662 740 c 256,26,27
 1662 785 1662 785 1682 851 c 128,-1,28
 1702 917 1702 917 1733 967.5 c 128,-1,29
 1764 1018 1764 1018 1797 1018 c 0,30,31
 1812 1018 1812 1018 1823 993 c 1,32,-1
 1829 967 l 1,33,34
 1849 1022 1849 1022 1856.5 1024.5 c 128,-1,35
 1864 1027 1864 1027 1869 1035 c 0,36,37
 1871 1037 1871 1037 1873 1038.5 c 128,-1,38
 1875 1040 1875 1040 1878.5 1043.5 c 128,-1,39
 1882 1047 1882 1047 1886 1047 c 0,40,41
 1887 1047 1887 1047 1888 1046.5 c 128,-1,42
 1889 1046 1889 1046 1891 1045.5 c 128,-1,43
 1893 1045 1893 1045 1895.5 1040.5 c 128,-1,44
 1898 1036 1898 1036 1898 1025 c 0,45,46
 1898 991 1898 991 1875 920 c 0,47,48
 1860 873 1860 873 1847 819 c 0,49,50
 1832 757 1832 757 1832 688 c 0,51,52
 1832 616 1832 616 1854 584.5 c 128,-1,53
 1876 553 1876 553 1907 553 c 0,54,55
 1913 553 1913 553 1935 560.5 c 128,-1,56
 1957 568 1957 568 1981.5 593 c 128,-1,57
 2006 618 2006 618 2024 668.5 c 128,-1,58
 2042 719 2042 719 2042 806 c 0,59,60
 2042 817 2042 817 2041 849 c 128,-1,61
 2040 881 2040 881 2035 909.5 c 128,-1,62
 2030 938 2030 938 2019 938 c 0,63,64
 2013 938 2013 938 1997.5 907.5 c 128,-1,65
 1982 877 1982 877 1968.5 832 c 128,-1,66
 1955 787 1955 787 1955 743 c 0,67,68
 1955 710 1955 710 1966 683 c 1,69,-1
 1966 682 l 2,70,71
 1966 681 1966 681 1967.5 679 c 128,-1,72
 1969 677 1969 677 1971 676.5 c 128,-1,73
 1973 676 1973 676 1974 675 c 1,74,-1
 1972 674 l 2,75,76
 1971 672 1971 672 1965.5 670 c 128,-1,77
 1960 668 1960 668 1953 668 c 0,78,79
 1931 668 1931 668 1918 706 c 1,80,-1
 1918 709 l 2,81,82
 1917 718 1917 718 1913 731 c 2,83,-1
 1906 752 l 1,84,85
 1897 762 1897 762 1897 789 c 0,86,87
 1897 822 1897 822 1918.5 864 c 128,-1,88
 1940 906 1940 906 1972.5 937.5 c 128,-1,89
 2005 969 2005 969 2035 969 c 0,90,91
 2053 969 2053 969 2072.5 962.5 c 128,-1,92
 2092 956 2092 956 2105 932.5 c 128,-1,93
 2118 909 2118 909 2118 859 c 0,94,95
 2118 811 2118 811 2104.5 754.5 c 128,-1,96
 2091 698 2091 698 2065 647.5 c 128,-1,97
 2039 597 2039 597 2003.5 564.5 c 128,-1,98
 1968 532 1968 532 1926 532 c 2,0,-1
1713 719 m 256,99,100
 1715 719 1715 719 1725 743 c 0,101,102
 1734 760 1734 760 1744 784 c 2,103,-1
 1751 801 l 2,104,105
 1768 836 1768 836 1781 870 c 2,106,-1
 1814 945 l 1,107,108
 1813 954 1813 954 1810 963 c 2,109,-1
 1808 969 l 2,110,111
 1804 983 1804 983 1800 983 c 0,112,113
 1794 983 1794 983 1772 943.5 c 128,-1,114
 1750 904 1750 904 1730.5 846.5 c 128,-1,115
 1711 789 1711 789 1711 735 c 0,116,117
 1711 719 1711 719 1713 719 c 256,99,100
1145 491 m 1,118,-1
 1135 491 l 2,119,120
 1101 491 1101 491 1076 516 c 128,-1,121
 1051 541 1051 541 1051 577 c 0,122,123
 1051 603 1051 603 1067 685 c 0,124,125
 1092 808 1092 808 1114 897 c 0,126,127
 1126 948 1126 948 1128.5 955.5 c 128,-1,128
 1131 963 1131 963 1135 967.5 c 128,-1,129
 1139 972 1139 972 1141.5 975 c 128,-1,130
 1144 978 1144 978 1146 980 c 1,131,132
 1132 969 1132 969 1090 959 c 0,133,134
 1074 953 1074 953 1060 950 c 2,135,-1
 1047 947 l 1,136,137
 1048 930 1048 930 1048 910 c 0,138,139
 1048 849 1048 849 1036 777.5 c 128,-1,140
 1024 706 1024 706 1005 654 c 128,-1,141
 986 602 986 602 962 602 c 0,142,143
 956 602 956 602 953 605 c 128,-1,144
 950 608 950 608 947 612.5 c 128,-1,145
 944 617 944 617 938 623.5 c 128,-1,146
 932 630 932 630 917.5 638 c 128,-1,147
 903 646 903 646 898 674 c 128,-1,148
 893 702 893 702 893 729 c 2,149,-1
 895 771 l 1,150,-1
 874 694 l 1,151,152
 843 599 843 599 822 599 c 0,153,154
 815 599 815 599 807 611 c 0,155,156
 806 613 806 613 800.5 615 c 128,-1,157
 795 617 795 617 787 621 c 0,158,159
 768 636 768 636 768 682 c 0,160,161
 768 771 768 771 808 850.5 c 128,-1,162
 848 930 848 930 881 930 c 0,163,164
 902 930 902 930 912 887 c 1,165,166
 923 909 923 909 930 919 c 0,167,168
 941 931 941 931 947 931 c 2,169,-1
 952 932 l 2,170,171
 969 932 969 932 976 926 c 1,172,-1
 981 925 l 1,173,174
 968 911 968 911 949 863.5 c 128,-1,175
 930 816 930 816 930 738 c 0,176,177
 930 715 930 715 935 686 c 1,178,-1
 937 680 l 2,179,180
 941 666 941 666 945 662 c 2,181,-1
 949 659 l 1,182,183
 965 676 965 676 984 748 c 128,-1,184
 1003 820 1003 820 1003 896 c 0,185,186
 1003 929 1003 929 997 959 c 1,187,188
 971 967 971 967 959 983.5 c 128,-1,189
 947 1000 947 1000 947 1016 c 0,190,191
 947 1034 947 1034 955.5 1044.5 c 128,-1,192
 964 1055 964 1055 975 1059 c 128,-1,193
 986 1063 986 1063 993 1063 c 0,194,195
 1013 1063 1013 1063 1024.5 1041.5 c 128,-1,196
 1036 1020 1036 1020 1042 986 c 1,197,198
 1067 990 1067 990 1117 1008 c 2,199,-1
 1123 1010 l 2,200,201
 1138 1014 1138 1014 1146 1020 c 2,202,-1
 1158 1031 l 2,203,204
 1164 1039 1164 1039 1175 1039 c 0,205,206
 1184 1039 1184 1039 1191 1031.5 c 128,-1,207
 1198 1024 1198 1024 1198 1012 c 1,208,-1
 1197 1011 l 1,209,-1
 1174 931 l 2,210,211
 1116 730 1116 730 1116 623 c 0,212,213
 1116 547 1116 547 1145 491 c 1,118,-1
821 645 m 0,214,215
 824 645 824 645 830.5 663 c 128,-1,216
 837 681 837 681 846 708 c 128,-1,217
 855 735 855 735 863.5 763.5 c 128,-1,218
 872 792 872 792 879.5 814 c 128,-1,219
 887 836 887 836 890 843 c 0,220,221
 889 860 889 860 886.5 869.5 c 128,-1,222
 884 879 884 879 879 881 c 2,223,-1
 875 881 l 1,224,225
 860 868 860 868 845 829.5 c 128,-1,226
 830 791 830 791 820.5 746.5 c 128,-1,227
 811 702 811 702 811 673 c 0,228,229
 811 646 811 646 821 645 c 0,214,215
650 243 m 0,230,231
 482 243 482 243 412 358 c 0,232,233
 362 438 362 438 362 536 c 0,234,235
 362 640 362 640 392 741.5 c 128,-1,236
 422 843 422 843 470 930 c 1,237,238
 437 933 437 933 393 933 c 0,239,240
 306 933 306 933 243 915 c 128,-1,241
 180 897 180 897 156 847 c 1,242,-1
 152 861 l 2,243,244
 148 874 148 874 148 892 c 0,245,246
 148 975 148 975 247 984 c 0,247,248
 289 988 289 988 328 988 c 0,249,250
 384 988 384 988 429 985 c 0,251,252
 464 982 464 982 491 982 c 0,253,254
 496 982 496 982 500 983 c 0,255,256
 567 1088 567 1088 639.5 1152.5 c 128,-1,257
 712 1217 712 1217 764 1217 c 0,258,259
 799 1217 799 1217 799 1180 c 0,260,261
 799 1174 799 1174 791.5 1139 c 128,-1,262
 784 1104 784 1104 758 1059 c 0,263,264
 693 950 693 950 523 929 c 1,265,266
 512 903 512 903 486 835 c 0,267,268
 421 659 421 659 421 538 c 0,269,270
 421 445 421 445 484 377.5 c 128,-1,271
 547 310 547 310 640 310 c 0,272,273
 732 310 732 310 851 343 c 128,-1,274
 970 376 970 376 1098 418 c 0,275,276
 1230 462 1230 462 1356.5 496.5 c 128,-1,277
 1483 531 1483 531 1582 531 c 256,278,279
 1681 531 1681 531 1744.5 507 c 128,-1,280
 1808 483 1808 483 1843 452 c 128,-1,281
 1878 421 1878 421 1893 394 c 1,282,-1
 1897 375 l 1,283,-1
 1871 397 l 2,284,285
 1845 418 1845 418 1782.5 439 c 128,-1,286
 1720 460 1720 460 1615 460 c 0,287,288
 1513 460 1513 460 1415.5 441.5 c 128,-1,289
 1318 423 1318 423 1225 395 c 128,-1,290
 1132 367 1132 367 1045 337 c 0,291,292
 936 298 936 298 836.5 270.5 c 128,-1,293
 737 243 737 243 650 243 c 0,230,231
555 986 m 2,294,295
 590 986 590 986 625.5 1000.5 c 128,-1,296
 661 1015 661 1015 703 1058 c 0,297,298
 723 1082 723 1082 734 1107.5 c 128,-1,299
 745 1133 745 1133 748 1152 c 2,300,-1
 752 1171 l 1,301,-1
 717 1148 l 2,302,303
 681 1125 681 1125 634.5 1083 c 128,-1,304
 588 1041 588 1041 550 986 c 1,305,-1
 555 986 l 2,294,295
616 416 m 1,306,-1
 601 421 l 2,307,308
 585 430 585 430 575 454 c 0,309,310
 561 484 561 484 561 542 c 0,311,312
 561 593 561 593 569 644 c 128,-1,313
 577 695 577 695 587 732 c 1,314,-1
 563 665 l 2,315,316
 533 583 533 583 531 562 c 1,317,-1
 524 564 l 2,318,319
 516 566 516 566 506 570.5 c 128,-1,320
 496 575 496 575 487.5 581.5 c 128,-1,321
 479 588 479 588 475.5 600.5 c 128,-1,322
 472 613 472 613 472 634 c 0,323,324
 472 666 472 666 487.5 724.5 c 128,-1,325
 503 783 503 783 523 833 c 128,-1,326
 543 883 543 883 556 895 c 1,327,-1
 583 892 l 2,328,329
 597 889 597 889 597 883 c 2,330,-1
 574 829 l 2,331,332
 556 785 556 785 539 733.5 c 128,-1,333
 522 682 522 682 519 647 c 1,334,-1
 537 689 l 2,335,336
 555 730 555 730 580.5 784 c 128,-1,337
 606 838 606 838 629 880 c 128,-1,338
 652 922 652 922 662 922 c 1,339,-1
 663 921 l 1,340,341
 672 919 672 919 682 914 c 0,342,343
 684 914 684 914 685.5 912.5 c 128,-1,344
 687 911 687 911 688 910.5 c 128,-1,345
 689 910 689 910 690 909 c 128,-1,346
 691 908 691 908 691.5 908 c 128,-1,347
 692 908 692 908 692 907.5 c 128,-1,348
 692 907 692 907 693 906 c 1,349,-1
 693 906 l 1,350,-1
 673 860 l 2,351,352
 652 814 652 814 632 740 c 128,-1,353
 612 666 612 666 609 582 c 1,354,-1
 625 635 l 2,355,356
 641 688 641 688 665 758 c 0,357,358
 725 934 725 934 755 954 c 1,359,-1
 777 950 l 2,360,361
 780 949 780 949 784 948 c 128,-1,362
 788 947 788 947 793 944.5 c 128,-1,363
 798 942 798 942 798 939 c 2,364,-1
 797 938 l 1,365,-1
 774 861 l 2,366,367
 716 665 716 665 716 574 c 0,368,369
 716 541 716 541 720.5 531 c 128,-1,370
 725 521 725 521 735 521 c 0,371,372
 746 521 746 521 780 534 c 0,373,374
 867 565 867 565 913 565 c 0,375,376
 950 565 950 565 977 548 c 2,377,-1
 981 545 l 2,378,379
 987 540 987 540 989.5 537 c 128,-1,380
 992 534 992 534 992.5 533.5 c 128,-1,381
 993 533 993 533 995 531 c 1,382,-1
 994 531 l 1,383,-1
 956 528 l 2,384,385
 867 518 867 518 765 470 c 2,386,-1
 763 469 l 2,387,388
 761 468 761 468 757.5 466.5 c 128,-1,389
 754 465 754 465 747 465 c 0,390,391
 722 465 722 465 703 499 c 1,392,-1
 697 502 l 2,393,394
 696 503 696 503 693 505.5 c 128,-1,395
 690 508 690 508 685 514 c 0,396,397
 667 533 667 533 667 576 c 0,398,399
 667 608 667 608 685 689 c 2,400,-1
 702 766 l 1,401,-1
 689 730 l 2,402,403
 676 693 676 693 659.5 638.5 c 128,-1,404
 643 584 643 584 629 527 c 128,-1,405
 615 470 615 470 615 426 c 1,406,-1
 616 416 l 1,306,-1
352 362 m 2,407,-1
 349 362 l 2,408,409
 338 362 338 362 318.5 369 c 128,-1,410
 299 376 299 376 283.5 400.5 c 128,-1,411
 268 425 268 425 266 476 c 0,412,413
 266 493 266 493 268 517 c 0,414,415
 268 526 268 526 269 528 c 0,416,417
 274 592 274 592 279 624 c 2,418,-1
 281 644 l 1,419,-1
 246 571 l 2,420,421
 219 516 219 516 208 502 c 0,422,423
 202 490 202 490 190 490 c 0,424,425
 183 490 183 490 179 499 c 0,426,427
 172 517 172 517 154 522 c 0,428,429
 140 526 140 526 140 560 c 0,430,431
 140 605 140 605 163.5 669.5 c 128,-1,432
 187 734 187 734 221.5 785 c 128,-1,433
 256 836 256 836 292 839 c 1,434,435
 315 836 315 836 321 800 c 1,436,-1
 342 847 l 2,437,438
 359 884 359 884 365 885 c 128,-1,439
 371 886 371 886 383 898 c 0,440,441
 390 905 390 905 396 905 c 0,442,443
 397 905 397 905 397 904.5 c 128,-1,444
 397 904 397 904 399 904 c 128,-1,445
 401 904 401 904 402 903 c 0,446,447
 407 898 407 898 407 888 c 0,448,449
 405 857 405 857 382 803 c 0,450,451
 363 756 363 756 344.5 695.5 c 128,-1,452
 326 635 326 635 326 553 c 0,453,454
 326 444 326 444 371 364 c 1,455,456
 366 362 366 362 352 362 c 2,407,-1
189 546 m 2,457,458
 192 546 192 546 210 580 c 0,459,460
 249 653 249 653 268 692 c 2,461,-1
 306 765 l 2,462,463
 306 768 306 768 305.5 772.5 c 128,-1,464
 305 777 305 777 303.5 784 c 128,-1,465
 302 791 302 791 300 795.5 c 128,-1,466
 298 800 298 800 297 801.5 c 128,-1,467
 296 803 296 803 295 803 c 0,468,469
 285 802 285 802 260 761 c 128,-1,470
 235 720 235 720 212.5 662.5 c 128,-1,471
 190 605 190 605 188 554 c 1,472,-1
 189 546 l 2,457,458
1206 553 m 0,473,474
 1204 553 1204 553 1203 554 c 0,475,476
 1194 562 1194 562 1184 567.5 c 128,-1,477
 1174 573 1174 573 1166 585 c 128,-1,478
 1158 597 1158 597 1158 631 c 0,479,480
 1158 721 1158 721 1182.5 831.5 c 128,-1,481
 1207 942 1207 942 1239 1041.5 c 128,-1,482
 1271 1141 1271 1141 1294 1202 c 1,483,484
 1281 1203 1281 1203 1262 1203 c 0,485,486
 1231 1203 1231 1203 1183 1200 c 0,487,488
 990 1191 990 1191 952 1099 c 1,489,-1
 948 1112 l 2,490,491
 944 1124 944 1124 941 1144 c 0,492,493
 941 1212 941 1212 996.5 1231 c 128,-1,494
 1052 1250 1052 1250 1115 1251 c 0,495,496
 1170 1255 1170 1255 1215 1255 c 0,497,498
 1304 1255 1304 1255 1318 1264 c 1,499,500
 1328 1278 1328 1278 1337 1278 c 256,501,502
 1346 1278 1346 1278 1352 1259 c 2,503,-1
 1354 1254 l 2,504,505
 1359 1234 1359 1234 1368 1225 c 0,506,507
 1370 1222 1370 1222 1370 1219 c 2,508,-1
 1333 1136 l 1,509,510
 1248 934 1248 934 1229 772 c 1,511,512
 1239 807 1239 807 1254 844 c 0,513,514
 1332 1054 1332 1054 1390 1054 c 0,515,516
 1396 1054 1396 1054 1407 1048.5 c 128,-1,517
 1418 1043 1418 1043 1425.5 1030.5 c 128,-1,518
 1433 1018 1433 1018 1433 992 c 0,519,520
 1433 968 1433 968 1418.5 917.5 c 128,-1,521
 1404 867 1404 867 1373.5 822.5 c 128,-1,522
 1343 778 1343 778 1294 764 c 1,523,-1
 1295 762 l 2,524,525
 1300 755 1300 755 1311 743 c 128,-1,526
 1322 731 1322 731 1335 731 c 0,527,528
 1356 731 1356 731 1377 752 c 0,529,530
 1412 787 1412 787 1442 840 c 1,531,532
 1479 1010 1479 1010 1554 1217 c 1,533,-1
 1579 1282 l 1,534,-1
 1581 1285 l 2,535,536
 1583 1291 1583 1291 1589 1294 c 0,537,538
 1590 1296 1590 1296 1592.5 1298 c 128,-1,539
 1595 1300 1595 1300 1600 1300 c 0,540,541
 1608 1300 1608 1300 1614 1281 c 0,542,543
 1623 1253 1623 1253 1630 1246 c 0,544,545
 1633 1243 1633 1243 1633 1241 c 2,546,-1
 1632 1240 l 2,547,548
 1626 1230 1626 1230 1595 1158 c 0,549,550
 1505 955 1505 955 1486 770 c 1,551,-1
 1500 807 l 1,552,553
 1585 1010 1585 1010 1651 1010 c 2,554,-1
 1673 1010 l 2,555,556
 1703 1010 1703 1010 1703 993 c 0,557,558
 1703 987 1703 987 1692 968 c 0,559,560
 1630 855 1630 855 1630 736 c 0,561,562
 1633 657 1633 657 1701 615 c 0,563,564
 1728 601 1728 601 1758 601 c 2,565,-1
 1762 601 l 1,566,-1
 1753 589 l 2,567,568
 1748 583 1748 583 1742 579 c 0,569,570
 1726 570 1726 570 1690 570 c 0,571,572
 1656 570 1656 570 1632 583 c 0,573,574
 1596 604 1596 604 1580 644 c 0,575,576
 1568 669 1568 669 1568 705 c 2,577,-1
 1569 721 l 2,578,579
 1574 798 1574 798 1603 900 c 0,580,581
 1612 935 1612 935 1615 940 c 1,582,-1
 1596 902 l 2,583,584
 1494 692 1494 692 1472 615 c 1,585,-1
 1470 611 l 2,586,587
 1470 606 1470 606 1467 601 c 128,-1,588
 1464 596 1464 596 1462 592 c 128,-1,589
 1460 588 1460 588 1456 588 c 0,590,591
 1455 588 1455 588 1455 589 c 0,592,593
 1445 598 1445 598 1434.5 603 c 128,-1,594
 1424 608 1424 608 1421 615 c 2,595,-1
 1420 618 l 2,596,597
 1418 624 1418 624 1418 639 c 0,598,599
 1418 686 1418 686 1425 739 c 1,600,601
 1369 683 1369 683 1328 683 c 0,602,603
 1313 683 1313 683 1300 694 c 0,604,605
 1281 717 1281 717 1271 733 c 2,606,-1
 1260 748 l 1,607,-1
 1250 715 l 2,608,609
 1246 700 1246 700 1241.5 684.5 c 128,-1,610
 1237 669 1237 669 1232 642 c 0,611,612
 1230 630 1230 630 1228 620 c 128,-1,613
 1226 610 1226 610 1225 601 c 0,614,615
 1215 553 1215 553 1206 553 c 0,473,474
1285 810 m 1,616,617
 1311 819 1311 819 1330.5 848 c 128,-1,618
 1350 877 1350 877 1362.5 911 c 128,-1,619
 1375 945 1375 945 1381 972.5 c 128,-1,620
 1387 1000 1387 1000 1387 1004 c 1,621,-1
 1366 972 l 2,622,623
 1345 940 1345 940 1321 895 c 128,-1,624
 1297 850 1297 850 1285 810 c 1,616,617
1945 955 m 1,625,-1
 1945 956 l 1,626,-1
 1942 957 l 2,627,628
 1931 962 1931 962 1924 974 c 0,629,630
 1921 982 1921 982 1921 995 c 0,631,632
 1921 1009 1921 1009 1937 1046 c 0,633,634
 1949 1077 1949 1077 1960 1101 c 2,635,-1
 1974 1133 l 1,636,-1
 1970 1126 l 2,637,638
 1966 1119 1966 1119 1958 1108 c 0,639,640
 1954 1103 1954 1103 1950.5 1098 c 128,-1,641
 1947 1093 1947 1093 1944 1088.5 c 128,-1,642
 1941 1084 1941 1084 1930 1073 c 0,643,644
 1925 1069 1925 1069 1920 1069 c 0,645,646
 1916 1073 1916 1073 1914.5 1077 c 128,-1,647
 1913 1081 1913 1081 1911 1082 c 0,648,649
 1910 1087 1910 1087 1907 1088 c 0,650,651
 1907 1093 1907 1093 1911 1101 c 1,652,653
 1888 1069 1888 1069 1876 1069 c 0,654,655
 1874 1069 1874 1069 1871 1071 c 128,-1,656
 1868 1073 1868 1073 1868 1075.5 c 128,-1,657
 1868 1078 1868 1078 1867 1079 c 2,658,-1
 1867 1081 l 1,659,-1
 1866 1081 l 1,660,-1
 1866 1083 l 1,661,-1
 1864 1084 l 2,662,663
 1856 1087 1856 1087 1856 1110 c 0,664,665
 1856 1122 1856 1122 1864 1141 c 128,-1,666
 1872 1160 1872 1160 1878.5 1178.5 c 128,-1,667
 1885 1197 1885 1197 1895 1227 c 1,668,669
 1885 1224 1885 1224 1876 1223 c 0,670,671
 1865 1219 1865 1219 1859.5 1214.5 c 128,-1,672
 1854 1210 1854 1210 1851.5 1207 c 128,-1,673
 1849 1204 1849 1204 1847.5 1201.5 c 128,-1,674
 1846 1199 1846 1199 1845 1197 c 128,-1,675
 1844 1195 1844 1195 1843 1193.5 c 128,-1,676
 1842 1192 1842 1192 1842 1191 c 1,677,-1
 1842 1191 l 1,678,679
 1841 1191 1841 1191 1838 1193.5 c 128,-1,680
 1835 1196 1835 1196 1835 1197 c 1,681,-1
 1834 1197 l 1,682,-1
 1830 1203 l 2,683,684
 1830 1204 1830 1204 1829 1205.5 c 128,-1,685
 1828 1207 1828 1207 1828 1213 c 0,686,687
 1828 1229 1828 1229 1854.5 1237 c 128,-1,688
 1881 1245 1881 1245 1893 1245 c 2,689,-1
 1901 1246 l 1,690,691
 1903 1253 1903 1253 1906 1261.5 c 128,-1,692
 1909 1270 1909 1270 1912 1279.5 c 128,-1,693
 1915 1289 1915 1289 1937 1294 c 2,694,-1
 1949 1298 l 2,695,696
 1950 1298 1950 1298 1951.5 1297.5 c 128,-1,697
 1953 1297 1953 1297 1953 1292 c 0,698,699
 1949 1285 1949 1285 1944.5 1273.5 c 128,-1,700
 1940 1262 1940 1262 1933 1248 c 1,701,702
 2004 1248 2004 1248 2026 1241 c 0,703,704
 2034 1241 2034 1241 2050 1236 c 0,705,706
 2080 1229 2080 1229 2080 1211 c 1,707,708
 2044 1231 2044 1231 1961 1231 c 2,709,-1
 1925 1230 l 1,710,711
 1907 1188 1907 1188 1892 1150 c 0,712,713
 1879 1116 1879 1116 1879 1103 c 0,714,715
 1880 1101 1880 1101 1883 1101 c 0,716,717
 1890 1101 1890 1101 1907.5 1119.5 c 128,-1,718
 1925 1138 1925 1138 1934 1150 c 2,719,-1
 1946 1164 l 1,720,-1
 1950 1165 l 1,721,-1
 1954 1168 l 1,722,-1
 1955 1168 l 1,723,-1
 1957 1171 l 1,724,-1
 1959 1171 l 1,725,-1
 1964 1173 l 2,726,727
 1965 1173 1965 1173 1965 1172 c 2,728,-1
 1961 1166 l 2,729,730
 1931 1114 1931 1114 1931 1105 c 1,731,-1
 1932 1103 l 2,732,733
 1934 1103 1934 1103 1941 1112 c 2,734,-1
 1966 1145 l 2,735,736
 1992 1183 1992 1183 2001 1183 c 1,737,-1
 2005 1181 l 1,738,-1
 2007 1181 l 1,739,740
 2007 1180 2007 1180 2008 1180 c 128,-1,741
 2009 1180 2009 1180 2010 1179 c 2,742,-1
 2011 1179 l 1,743,-1
 2012 1176 l 1,744,-1
 2002 1155 l 1,745,-1
 1999 1147 l 2,746,747
 1978 1102 1978 1102 1956 1039 c 0,748,749
 1940 996 1940 996 1940 970 c 0,750,751
 1940 959 1940 959 1945 955 c 1,625,-1
1962 962 m 1,752,-1
 1961 962 l 2,753,754
 1959 963 1959 963 1958.5 963 c 128,-1,755
 1958 963 1958 963 1956 965.5 c 128,-1,756
 1954 968 1954 968 1953 970 c 128,-1,757
 1952 972 1952 972 1950 974 c 2,758,-1
 1950 977 l 2,759,760
 1950 995 1950 995 1977 1064 c 0,761,762
 1982 1075 1982 1075 1986 1087 c 0,763,764
 2022 1174 2022 1174 2025 1177 c 2,765,-1
 2027 1177 l 2,766,767
 2028 1176 2028 1176 2030.5 1175.5 c 128,-1,768
 2033 1175 2033 1175 2034.5 1174.5 c 128,-1,769
 2036 1174 2036 1174 2038.5 1173 c 128,-1,770
 2041 1172 2041 1172 2041 1169 c 2,771,-1
 2041 1167 l 1,772,-1
 2039 1164 l 2,773,774
 2032 1157 2032 1157 2001 1080 c 1,775,-1
 2052 1173 l 1,776,777
 2065 1167 2065 1167 2065 1132 c 0,778,779
 2064 1082 2064 1082 2045 1082 c 0,780,781
 2029 1082 2029 1082 2024 1092 c 1,782,783
 1975 1000 1975 1000 1962 962 c 1,752,-1
2026 1096 m 1,784,785
 2043 1096 2043 1096 2047 1105 c 128,-1,786
 2051 1114 2051 1114 2051 1127 c 0,787,788
 2051 1133 2051 1133 2050 1138 c 2,789,-1
 2050 1142 l 1,790,-1
 2026 1096 l 1,784,785
2094 1080 m 0,791,792
 2074 1080 2074 1080 2070 1106 c 1,793,-1
 2074 1131 l 1,794,795
 2084 1167 2084 1167 2098 1170 c 0,796,797
 2099 1170 2099 1170 2099 1169.5 c 128,-1,798
 2099 1169 2099 1169 2100.5 1169 c 128,-1,799
 2102 1169 2102 1169 2103.5 1168 c 128,-1,800
 2105 1167 2105 1167 2108 1165 c 0,801,802
 2112 1158 2112 1158 2112 1149 c 0,803,804
 2112 1137 2112 1137 2105.5 1124.5 c 128,-1,805
 2099 1112 2099 1112 2086 1103 c 0,806,807
 2086 1101 2086 1101 2087.5 1096.5 c 128,-1,808
 2089 1092 2089 1092 2091 1092 c 0,809,810
 2094 1092 2094 1092 2101 1098.5 c 128,-1,811
 2108 1105 2108 1105 2114.5 1116.5 c 128,-1,812
 2121 1128 2121 1128 2121 1146 c 0,813,814
 2121 1166 2121 1166 2117 1177 c 2,815,-1
 2115 1188 l 1,816,817
 2129 1185 2129 1185 2134 1164 c 2,818,-1
 2135 1161 l 2,819,820
 2136 1154 2136 1154 2136 1142 c 0,821,822
 2136 1117 2136 1117 2124 1098.5 c 128,-1,823
 2112 1080 2112 1080 2094 1080 c 0,791,792
2089 1118 m 1,824,825
 2101 1133 2101 1133 2101 1150 c 2,826,-1
 2101 1152 l 1,827,-1
 2100 1152 l 2,828,829
 2099 1152 2099 1152 2097.5 1148 c 128,-1,830
 2096 1144 2096 1144 2095 1142 c 0,831,832
 2091 1131 2091 1131 2089 1118 c 1,824,825
EndSplineSet
EndChar

StartChar: quotesingle
Encoding: 39 39 10
Width: 257
GlyphClass: 2
Flags: W
LayerCount: 2
Fore
SplineSet
179 1150 m 2,0,-1
 78 1150 l 2,1,2
 65 1150 65 1150 55 1160 c 128,-1,3
 45 1170 45 1170 45 1183 c 2,4,-1
 45 1475 l 2,5,6
 45 1489 45 1489 55 1498.5 c 128,-1,7
 65 1508 65 1508 78 1508 c 2,8,-1
 179 1508 l 2,9,10
 193 1508 193 1508 202.5 1498.5 c 128,-1,11
 212 1489 212 1489 212 1475 c 2,12,-1
 212 1183 l 2,13,14
 212 1170 212 1170 202.5 1160 c 128,-1,15
 193 1150 193 1150 179 1150 c 2,0,-1
EndSplineSet
EndChar

StartChar: parenleft
Encoding: 40 40 11
Width: 442
GlyphClass: 2
Flags: W
LayerCount: 2
Fore
SplineSet
377 -180 m 2,0,-1
 331 -180 l 2,1,2
 298 -180 298 -180 272 -155 c 2,3,-1
 117 0 l 2,4,5
 92 26 92 26 92 59 c 2,6,-1
 92 1349 l 2,7,8
 92 1382 92 1382 117 1408 c 2,9,-1
 272 1564 l 2,10,11
 298 1588 298 1588 331 1588 c 2,12,-1
 377 1588 l 2,13,14
 391 1588 391 1588 400.5 1578.5 c 128,-1,15
 410 1569 410 1569 410 1555 c 2,16,-1
 410 1454 l 2,17,18
 410 1421 410 1421 366 1421 c 1,19,-1
 259 1315 l 1,20,-1
 259 94 l 1,21,-1
 366 -13 l 1,22,23
 386 -13 386 -13 398 -19.5 c 128,-1,24
 410 -26 410 -26 410 -46 c 2,25,-1
 410 -147 l 2,26,27
 410 -160 410 -160 400.5 -170 c 128,-1,28
 391 -180 391 -180 377 -180 c 2,0,-1
EndSplineSet
EndChar

StartChar: parenright
Encoding: 41 41 12
Width: 442
GlyphClass: 2
Flags: W
LayerCount: 2
Fore
SplineSet
111 -180 m 2,0,-1
 64 -180 l 2,1,2
 51 -180 51 -180 41 -170 c 128,-1,3
 31 -160 31 -160 31 -147 c 2,4,-1
 31 -46 l 2,5,6
 31 -26 31 -26 44 -19.5 c 128,-1,7
 57 -13 57 -13 76 -13 c 1,8,-1
 182 94 l 1,9,-1
 182 1315 l 1,10,-1
 76 1421 l 1,11,12
 57 1421 57 1421 44 1428 c 128,-1,13
 31 1435 31 1435 31 1454 c 2,14,-1
 31 1555 l 2,15,16
 31 1569 31 1569 41 1578.5 c 128,-1,17
 51 1588 51 1588 64 1588 c 2,18,-1
 111 1588 l 2,19,20
 144 1588 144 1588 170 1564 c 2,21,-1
 325 1408 l 2,22,23
 349 1384 349 1384 349 1349 c 2,24,-1
 349 59 l 2,25,26
 349 26 349 26 325 0 c 2,27,-1
 170 -155 l 2,28,29
 144 -180 144 -180 111 -180 c 2,0,-1
EndSplineSet
EndChar

StartChar: asterisk
Encoding: 42 42 13
Width: 563
GlyphClass: 2
Flags: W
LayerCount: 2
Fore
SplineSet
371 1150 m 0,0,1
 355 1150 355 1150 344 1164 c 2,2,-1
 282 1250 l 1,3,-1
 219 1164 l 2,4,5
 207 1150 207 1150 192 1150 c 0,6,7
 182 1150 182 1150 172 1157 c 2,8,-1
 110 1202 l 2,9,10
 96 1213 96 1213 96 1228 c 0,11,12
 96 1239 96 1239 103 1248 c 2,13,-1
 166 1335 l 1,14,-1
 64 1368 l 2,15,16
 41 1377 41 1377 41 1398 c 0,17,18
 43 1410 43 1410 66 1482 c 0,19,20
 77 1505 77 1505 98 1505 c 2,21,-1
 108 1504 l 1,22,-1
 210 1471 l 1,23,-1
 210 1578 l 2,24,25
 210 1592 210 1592 220 1601.5 c 128,-1,26
 230 1611 230 1611 243 1611 c 2,27,-1
 320 1611 l 2,28,29
 334 1611 334 1611 343.5 1601.5 c 128,-1,30
 353 1592 353 1592 353 1578 c 2,31,-1
 353 1471 l 1,32,-1
 455 1504 l 1,33,-1
 465 1505 l 2,34,35
 486 1505 486 1505 497 1482 c 0,36,37
 520 1410 520 1410 522 1399 c 0,38,39
 522 1389 522 1389 515.5 1380 c 128,-1,40
 509 1371 509 1371 499 1368 c 2,41,-1
 397 1335 l 1,42,-1
 460 1248 l 2,43,44
 466 1239 466 1239 466 1228 c 0,45,46
 466 1213 466 1213 453 1202 c 2,47,-1
 391 1157 l 2,48,49
 382 1150 382 1150 371 1150 c 0,0,1
EndSplineSet
EndChar

StartChar: plus
Encoding: 43 43 14
Width: 870
GlyphClass: 2
Flags: W
LayerCount: 2
Fore
SplineSet
486 250 m 2,0,-1
 385 250 l 2,1,2
 372 250 372 250 362 260 c 128,-1,3
 352 270 352 270 352 283 c 2,4,-1
 352 567 l 1,5,-1
 68 567 l 2,6,7
 55 567 55 567 45 576.5 c 128,-1,8
 35 586 35 586 35 600 c 2,9,-1
 35 700 l 2,10,11
 35 714 35 714 45 724 c 128,-1,12
 55 734 55 734 68 734 c 2,13,-1
 352 734 l 1,14,-1
 352 1017 l 2,15,16
 352 1031 352 1031 362 1040.5 c 128,-1,17
 372 1050 372 1050 385 1050 c 2,18,-1
 486 1050 l 2,19,20
 500 1050 500 1050 509.5 1040.5 c 128,-1,21
 519 1031 519 1031 519 1017 c 2,22,-1
 519 734 l 1,23,-1
 802 734 l 2,24,25
 816 734 816 734 826 724 c 128,-1,26
 836 714 836 714 836 700 c 2,27,-1
 836 600 l 2,28,29
 836 586 836 586 826 576.5 c 128,-1,30
 816 567 816 567 802 567 c 2,31,-1
 519 567 l 1,32,-1
 519 283 l 2,33,34
 519 270 519 270 509.5 260 c 128,-1,35
 500 250 500 250 486 250 c 2,0,-1
EndSplineSet
EndChar

StartChar: comma
Encoding: 44 44 15
Width: 260
GlyphClass: 2
Flags: W
LayerCount: 2
Fore
SplineSet
69 -238 m 0,0,1
 57 -238 57 -238 46 -228 c 2,2,-1
 -42 -140 l 2,3,4
 -52 -129 -52 -129 -52 -117 c 0,5,6
 -52 -103 -52 -103 -42 -93 c 2,7,-1
 44 -7 l 1,8,-1
 44 158 l 2,9,10
 44 172 44 172 53.5 181.5 c 128,-1,11
 63 191 63 191 77 191 c 2,12,-1
 201 191 l 2,13,14
 215 191 215 191 225 181.5 c 128,-1,15
 235 172 235 172 235 158 c 2,16,-1
 235 -66 l 2,17,18
 235 -87 235 -87 215 -106 c 2,19,-1
 93 -228 l 2,20,21
 83 -238 83 -238 69 -238 c 0,0,1
EndSplineSet
EndChar

StartChar: hyphen
Encoding: 45 45 16
AltUni2: 0000ad.ffffffff.0 0000ad.ffffffff.0
Width: 778
GlyphClass: 2
Flags: W
LayerCount: 2
Fore
SplineSet
714 570 m 2,0,-1
 64 570 l 2,1,2
 51 570 51 570 41 580 c 128,-1,3
 31 590 31 590 31 603 c 2,4,-1
 31 704 l 2,5,6
 31 718 31 718 41 727.5 c 128,-1,7
 51 737 51 737 64 737 c 2,8,-1
 714 737 l 2,9,10
 728 737 728 737 738 727.5 c 128,-1,11
 748 718 748 718 748 704 c 2,12,-1
 748 603 l 2,13,14
 748 590 748 590 738 580 c 128,-1,15
 728 570 728 570 714 570 c 2,0,-1
EndSplineSet
EndChar

StartChar: period
Encoding: 46 46 17
Width: 256
GlyphClass: 2
Flags: W
LayerCount: 2
Fore
SplineSet
198 0 m 2,0,-1
 73 0 l 2,1,2
 60 0 60 0 50 10 c 128,-1,3
 40 20 40 20 40 33 c 2,4,-1
 40 158 l 2,5,6
 40 172 40 172 50 181.5 c 128,-1,7
 60 191 60 191 73 191 c 2,8,-1
 198 191 l 2,9,10
 212 191 212 191 221.5 181.5 c 128,-1,11
 231 172 231 172 231 158 c 2,12,-1
 231 33 l 2,13,14
 231 20 231 20 221.5 10 c 128,-1,15
 212 0 212 0 198 0 c 2,0,-1
EndSplineSet
EndChar

StartChar: slash
Encoding: 47 47 18
Width: 831
GlyphClass: 2
Flags: W
LayerCount: 2
Fore
SplineSet
215 0 m 2,0,-1
 115 0 l 2,1,2
 104 0 104 0 97 6 c 128,-1,3
 90 12 90 12 90 20 c 0,4,5
 92 29 92 29 573 1403 c 0,6,7
 578 1416 578 1416 590.5 1424.5 c 128,-1,8
 603 1433 603 1433 617 1433 c 2,9,-1
 717 1433 l 2,10,11
 740 1433 740 1433 741 1412 c 2,12,-1
 740 1403 l 1,13,-1
 259 29 l 2,14,15
 255 17 255 17 242 8.5 c 128,-1,16
 229 0 229 0 215 0 c 2,0,-1
EndSplineSet
EndChar

StartChar: zero
Encoding: 48 48 19
Width: 981
GlyphClass: 2
Flags: W
LayerCount: 2
Fore
SplineSet
415 0 m 2,0,-1
 331 0 l 2,1,2
 298 0 298 0 272 24 c 2,3,-1
 116 180 l 2,4,5
 92 206 92 206 92 239 c 2,6,-1
 92 1195 l 2,7,8
 92 1228 92 1228 116 1254 c 2,9,-1
 272 1409 l 2,10,11
 298 1434 298 1434 331 1434 c 2,12,-1
 415 1434 l 2,13,14
 429 1434 429 1434 438.5 1424 c 128,-1,15
 448 1414 448 1414 448 1400 c 2,16,-1
 448 1300 l 2,17,18
 448 1286 448 1286 438.5 1276 c 128,-1,19
 429 1266 429 1266 415 1266 c 2,20,-1
 366 1266 l 1,21,-1
 259 1160 l 1,22,-1
 259 274 l 1,23,-1
 366 167 l 1,24,-1
 415 167 l 2,25,26
 429 167 429 167 438.5 157.5 c 128,-1,27
 448 148 448 148 448 134 c 2,28,-1
 448 33 l 2,29,30
 448 20 448 20 438.5 10 c 128,-1,31
 429 0 429 0 415 0 c 2,0,-1
649 0 m 2,32,-1
 565 0 l 2,33,34
 552 0 552 0 542 10 c 128,-1,35
 532 20 532 20 532 33 c 2,36,-1
 532 134 l 2,37,38
 532 148 532 148 542 157.5 c 128,-1,39
 552 167 552 167 565 167 c 2,40,-1
 614 167 l 1,41,-1
 720 274 l 1,42,-1
 720 1160 l 1,43,-1
 614 1266 l 1,44,-1
 565 1266 l 2,45,46
 552 1266 552 1266 542 1276 c 128,-1,47
 532 1286 532 1286 532 1300 c 2,48,-1
 532 1400 l 2,49,50
 532 1414 532 1414 542 1424 c 128,-1,51
 552 1434 552 1434 565 1434 c 2,52,-1
 649 1434 l 2,53,54
 682 1434 682 1434 708 1409 c 2,55,-1
 863 1254 l 2,56,57
 888 1228 888 1228 888 1195 c 2,58,-1
 888 239 l 2,59,60
 888 206 888 206 863 180 c 2,61,-1
 708 24 l 2,62,63
 682 0 682 0 649 0 c 2,32,-1
EndSplineSet
EndChar

StartChar: one
Encoding: 49 49 20
Width: 443
GlyphClass: 2
Flags: W
LayerCount: 2
Fore
SplineSet
326 0 m 2,0,-1
 226 0 l 2,1,2
 212 0 212 0 202 10 c 128,-1,3
 192 20 192 20 192 33 c 2,4,-1
 192 1163 l 1,5,-1
 98 1266 l 1,6,-1
 70 1266 l 2,7,8
 57 1266 57 1266 47 1276 c 128,-1,9
 37 1286 37 1286 37 1300 c 2,10,-1
 37 1400 l 2,11,12
 37 1414 37 1414 47 1424 c 128,-1,13
 57 1434 57 1434 70 1434 c 2,14,-1
 136 1434 l 2,15,16
 173 1432 173 1432 197 1406 c 2,17,-1
 338 1251 l 2,18,19
 360 1225 360 1225 360 1195 c 2,20,-1
 360 33 l 2,21,22
 360 20 360 20 350 10 c 128,-1,23
 340 0 340 0 326 0 c 2,0,-1
EndSplineSet
EndChar

StartChar: two
Encoding: 50 50 21
Width: 944
GlyphClass: 2
Flags: W
LayerCount: 2
Fore
SplineSet
208 1051 m 2,0,-1
 107 1051 l 2,1,2
 94 1051 94 1051 84 1061 c 128,-1,3
 74 1071 74 1071 74 1085 c 2,4,-1
 74 1195 l 2,5,6
 74 1228 74 1228 98 1254 c 2,7,-1
 254 1409 l 2,8,9
 280 1434 280 1434 313 1434 c 2,10,-1
 396 1434 l 2,11,12
 410 1434 410 1434 420 1424 c 128,-1,13
 430 1414 430 1414 430 1400 c 2,14,-1
 430 1300 l 2,15,16
 430 1286 430 1286 420 1276 c 128,-1,17
 410 1266 410 1266 396 1266 c 2,18,-1
 348 1266 l 1,19,-1
 241 1160 l 1,20,-1
 241 1085 l 2,21,22
 241 1071 241 1071 231.5 1061 c 128,-1,23
 222 1051 222 1051 208 1051 c 2,0,-1
535 664 m 0,24,25
 526 664 526 664 519.5 670.5 c 128,-1,26
 513 677 513 677 513 688 c 2,27,-1
 513 807 l 2,28,29
 513 823 513 823 519.5 837.5 c 128,-1,30
 526 852 526 852 556 872 c 2,31,-1
 702 968 l 1,32,-1
 702 1160 l 1,33,-1
 596 1266 l 1,34,-1
 547 1266 l 2,35,36
 533 1266 533 1266 523 1276 c 128,-1,37
 513 1286 513 1286 513 1300 c 2,38,-1
 513 1400 l 2,39,40
 513 1414 513 1414 523 1424 c 128,-1,41
 533 1434 533 1434 547 1434 c 2,42,-1
 630 1434 l 2,43,44
 665 1434 665 1434 689 1409 c 2,45,-1
 845 1254 l 2,46,47
 869 1228 869 1228 869 1195 c 2,48,-1
 869 923 l 2,49,50
 869 881 869 881 832 853 c 2,51,-1
 556 672 l 2,52,53
 546 664 546 664 535 664 c 0,24,25
786 0 m 2,54,-1
 158 0 l 2,55,56
 123 0 123 0 98.5 24.5 c 128,-1,57
 74 49 74 49 74 84 c 2,58,-1
 74 509 l 2,59,60
 74 553 74 553 112 579 c 2,61,-1
 390 763 l 2,62,63
 403 770 403 770 413 770 c 0,64,65
 430 767 430 767 430 752 c 2,66,-1
 430 633 l 2,67,68
 430 589 430 589 395 565 c 2,69,-1
 241 464 l 1,70,-1
 241 167 l 1,71,-1
 702 167 l 1,72,-1
 702 349 l 2,73,74
 702 363 702 363 712 372.5 c 128,-1,75
 722 382 722 382 736 382 c 2,76,-1
 836 382 l 2,77,78
 850 382 850 382 860 372.5 c 128,-1,79
 870 363 870 363 870 349 c 2,80,-1
 870 84 l 2,81,82
 870 49 870 49 845.5 24.5 c 128,-1,83
 821 0 821 0 786 0 c 2,54,-1
EndSplineSet
EndChar

StartChar: three
Encoding: 51 51 22
Width: 936
GlyphClass: 2
Flags: W
LayerCount: 2
Fore
SplineSet
191 1051 m 2,0,-1
 90 1051 l 2,1,2
 77 1051 77 1051 67 1061 c 128,-1,3
 57 1071 57 1071 57 1085 c 2,4,-1
 57 1195 l 2,5,6
 57 1228 57 1228 82 1254 c 2,7,-1
 237 1409 l 2,8,9
 263 1434 263 1434 296 1434 c 2,10,-1
 380 1434 l 2,11,12
 394 1434 394 1434 403.5 1424 c 128,-1,13
 413 1414 413 1414 413 1400 c 2,14,-1
 413 1300 l 2,15,16
 413 1286 413 1286 403.5 1276 c 128,-1,17
 394 1266 394 1266 380 1266 c 2,18,-1
 331 1266 l 1,19,-1
 224 1160 l 1,20,-1
 224 1085 l 2,21,22
 224 1071 224 1071 214.5 1061 c 128,-1,23
 205 1051 205 1051 191 1051 c 2,0,-1
614 0 m 2,24,-1
 530 0 l 2,25,26
 517 0 517 0 507 10 c 128,-1,27
 497 20 497 20 497 33 c 2,28,-1
 497 134 l 2,29,30
 497 148 497 148 507 157.5 c 128,-1,31
 517 167 517 167 530 167 c 2,32,-1
 579 167 l 1,33,-1
 685 274 l 1,34,-1
 685 527 l 1,35,-1
 579 633 l 1,36,-1
 530 633 l 2,37,38
 517 633 517 633 507 643 c 128,-1,39
 497 653 497 653 497 667 c 2,40,-1
 497 767 l 2,41,42
 497 781 497 781 507 791 c 128,-1,43
 517 801 517 801 530 801 c 2,44,-1
 579 801 l 1,45,-1
 685 907 l 1,46,-1
 685 1160 l 1,47,-1
 579 1266 l 1,48,-1
 530 1266 l 2,49,50
 517 1266 517 1266 507 1276 c 128,-1,51
 497 1286 497 1286 497 1300 c 2,52,-1
 497 1400 l 2,53,54
 497 1414 497 1414 507 1424 c 128,-1,55
 517 1434 517 1434 530 1434 c 2,56,-1
 614 1434 l 2,57,58
 647 1434 647 1434 673 1409 c 2,59,-1
 828 1254 l 2,60,61
 853 1228 853 1228 853 1195 c 2,62,-1
 853 872 l 2,63,64
 853 839 853 839 828 813 c 2,65,-1
 732 717 l 1,66,-1
 828 621 l 2,67,68
 853 595 853 595 853 562 c 2,69,-1
 853 239 l 2,70,71
 853 206 853 206 828 180 c 2,72,-1
 673 24 l 2,73,74
 647 0 647 0 614 0 c 2,24,-1
380 0 m 2,75,-1
 296 0 l 2,76,77
 263 0 263 0 237 24 c 2,78,-1
 82 180 l 2,79,80
 57 206 57 206 57 239 c 2,81,-1
 57 349 l 2,82,83
 57 363 57 363 67 372.5 c 128,-1,84
 77 382 77 382 90 382 c 2,85,-1
 191 382 l 2,86,87
 205 382 205 382 214.5 372.5 c 128,-1,88
 224 363 224 363 224 349 c 2,89,-1
 224 274 l 1,90,-1
 331 167 l 1,91,-1
 380 167 l 2,92,93
 394 167 394 167 403.5 157.5 c 128,-1,94
 413 148 413 148 413 134 c 2,95,-1
 413 33 l 2,96,97
 413 20 413 20 403.5 10 c 128,-1,98
 394 0 394 0 380 0 c 2,75,-1
EndSplineSet
EndChar

StartChar: four
Encoding: 52 52 23
Width: 905
GlyphClass: 2
Flags: W
LayerCount: 2
Fore
SplineSet
778 0 m 2,0,-1
 678 0 l 2,1,2
 664 0 664 0 654.5 10 c 128,-1,3
 645 20 645 20 645 33 c 2,4,-1
 645 1400 l 2,5,6
 645 1414 645 1414 654.5 1424 c 128,-1,7
 664 1434 664 1434 678 1434 c 2,8,-1
 778 1434 l 2,9,10
 792 1434 792 1434 802 1424 c 128,-1,11
 812 1414 812 1414 812 1400 c 2,12,-1
 812 33 l 2,13,14
 812 20 812 20 802 10 c 128,-1,15
 792 0 792 0 778 0 c 2,0,-1
527 335 m 2,16,-1
 81 335 l 2,17,18
 67 335 67 335 57 344.5 c 128,-1,19
 47 354 47 354 47 368 c 2,20,-1
 47 471 l 2,21,22
 47 477 47 477 294 1397 c 0,23,24
 298 1410 298 1410 310.5 1419 c 128,-1,25
 323 1428 323 1428 336 1428 c 2,26,-1
 436 1428 l 2,27,28
 460 1428 460 1428 463 1404 c 0,29,30
 462 1397 462 1397 221 502 c 1,31,-1
 527 502 l 2,32,33
 541 502 541 502 551 492 c 128,-1,34
 561 482 561 482 561 468 c 2,35,-1
 561 368 l 2,36,37
 561 354 561 354 551 344.5 c 128,-1,38
 541 335 541 335 527 335 c 2,16,-1
EndSplineSet
EndChar

StartChar: five
Encoding: 53 53 24
Width: 956
GlyphClass: 2
Flags: W
LayerCount: 2
Fore
SplineSet
842 1051 m 2,0,-1
 742 1051 l 2,1,2
 728 1051 728 1051 718 1061 c 128,-1,3
 708 1071 708 1071 708 1085 c 2,4,-1
 708 1266 l 1,5,-1
 364 1266 l 2,6,7
 351 1266 351 1266 341 1276 c 128,-1,8
 331 1286 331 1286 331 1300 c 2,9,-1
 331 1400 l 2,10,11
 331 1414 331 1414 341 1424 c 128,-1,12
 351 1434 351 1434 364 1434 c 2,13,-1
 792 1434 l 2,14,15
 827 1434 827 1434 851.5 1409.5 c 128,-1,16
 876 1385 876 1385 876 1350 c 2,17,-1
 876 1085 l 2,18,19
 876 1071 876 1071 866 1061 c 128,-1,20
 856 1051 856 1051 842 1051 c 2,0,-1
214 717 m 2,21,-1
 113 717 l 2,22,23
 100 717 100 717 90 727 c 128,-1,24
 80 737 80 737 80 750 c 2,25,-1
 80 1400 l 2,26,27
 80 1414 80 1414 90 1424 c 128,-1,28
 100 1434 100 1434 113 1434 c 2,29,-1
 214 1434 l 2,30,31
 228 1434 228 1434 237.5 1424 c 128,-1,32
 247 1414 247 1414 247 1400 c 2,33,-1
 247 750 l 2,34,35
 247 737 247 737 237.5 727 c 128,-1,36
 228 717 228 717 214 717 c 2,21,-1
637 0 m 2,37,-1
 319 0 l 2,38,39
 286 0 286 0 260 24 c 2,40,-1
 104 180 l 2,41,42
 80 206 80 206 80 239 c 2,43,-1
 80 349 l 2,44,45
 80 363 80 363 90 372.5 c 128,-1,46
 100 382 100 382 113 382 c 2,47,-1
 214 382 l 2,48,49
 228 382 228 382 237.5 372.5 c 128,-1,50
 247 363 247 363 247 349 c 2,51,-1
 247 274 l 1,52,-1
 354 167 l 1,53,-1
 602 167 l 1,54,-1
 708 274 l 1,55,-1
 708 611 l 1,56,-1
 602 717 l 1,57,-1
 364 717 l 2,58,59
 351 717 351 717 341 727 c 128,-1,60
 331 737 331 737 331 750 c 2,61,-1
 331 851 l 2,62,63
 331 865 331 865 341 874.5 c 128,-1,64
 351 884 351 884 364 884 c 2,65,-1
 637 884 l 2,66,67
 670 884 670 884 696 860 c 2,68,-1
 851 704 l 2,69,70
 876 678 876 678 876 645 c 2,71,-1
 876 239 l 2,72,73
 876 206 876 206 851 180 c 2,74,-1
 696 24 l 2,75,76
 670 0 670 0 637 0 c 2,37,-1
EndSplineSet
EndChar

StartChar: six
Encoding: 54 54 25
Width: 956
GlyphClass: 2
Flags: W
LayerCount: 2
Fore
SplineSet
406 0 m 2,0,-1
 323 0 l 2,1,2
 290 0 290 0 264 24 c 2,3,-1
 108 180 l 2,4,5
 84 206 84 206 84 239 c 2,6,-1
 84 1195 l 2,7,8
 84 1228 84 1228 108 1254 c 2,9,-1
 264 1409 l 2,10,11
 290 1434 290 1434 323 1434 c 2,12,-1
 406 1434 l 2,13,14
 420 1434 420 1434 430 1424 c 128,-1,15
 440 1414 440 1414 440 1400 c 2,16,-1
 440 1300 l 2,17,18
 440 1286 440 1286 430 1276 c 128,-1,19
 420 1266 420 1266 406 1266 c 2,20,-1
 358 1266 l 1,21,-1
 251 1160 l 1,22,-1
 251 847 l 1,23,24
 268 865 268 865 283 874.5 c 128,-1,25
 298 884 298 884 323 884 c 2,26,-1
 406 884 l 2,27,28
 420 884 420 884 430 874.5 c 128,-1,29
 440 865 440 865 440 851 c 2,30,-1
 440 750 l 2,31,32
 440 737 440 737 430 727 c 128,-1,33
 420 717 420 717 406 717 c 2,34,-1
 358 717 l 1,35,-1
 251 611 l 1,36,-1
 251 274 l 1,37,-1
 358 167 l 1,38,-1
 406 167 l 2,39,40
 420 167 420 167 430 157.5 c 128,-1,41
 440 148 440 148 440 134 c 2,42,-1
 440 33 l 2,43,44
 440 20 440 20 430 10 c 128,-1,45
 420 0 420 0 406 0 c 2,0,-1
846 1051 m 2,46,-1
 746 1051 l 2,47,48
 732 1051 732 1051 722 1061 c 128,-1,49
 712 1071 712 1071 712 1085 c 2,50,-1
 712 1160 l 1,51,-1
 606 1266 l 1,52,-1
 557 1266 l 2,53,54
 544 1266 544 1266 534 1276 c 128,-1,55
 524 1286 524 1286 524 1300 c 2,56,-1
 524 1400 l 2,57,58
 524 1414 524 1414 534 1424 c 128,-1,59
 544 1434 544 1434 557 1434 c 2,60,-1
 641 1434 l 2,61,62
 674 1434 674 1434 700 1409 c 2,63,-1
 855 1254 l 2,64,65
 880 1228 880 1228 880 1195 c 2,66,-1
 880 1085 l 2,67,68
 880 1071 880 1071 870 1061 c 128,-1,69
 860 1051 860 1051 846 1051 c 2,46,-1
641 0 m 2,70,-1
 557 0 l 2,71,72
 544 0 544 0 534 10 c 128,-1,73
 524 20 524 20 524 33 c 2,74,-1
 524 134 l 2,75,76
 524 148 524 148 534 157.5 c 128,-1,77
 544 167 544 167 557 167 c 2,78,-1
 606 167 l 1,79,-1
 712 274 l 1,80,-1
 712 611 l 1,81,-1
 606 717 l 1,82,-1
 557 717 l 2,83,84
 544 717 544 717 534 727 c 128,-1,85
 524 737 524 737 524 750 c 2,86,-1
 524 851 l 2,87,88
 524 865 524 865 534 874.5 c 128,-1,89
 544 884 544 884 557 884 c 2,90,-1
 641 884 l 2,91,92
 674 884 674 884 700 860 c 2,93,-1
 855 704 l 2,94,95
 880 678 880 678 880 645 c 2,96,-1
 880 239 l 2,97,98
 880 206 880 206 855 180 c 2,99,-1
 700 24 l 2,100,101
 674 0 674 0 641 0 c 2,70,-1
EndSplineSet
EndChar

StartChar: seven
Encoding: 55 55 26
Width: 881
GlyphClass: 2
Flags: W
LayerCount: 2
Fore
SplineSet
787 1266 m 2,0,-1
 113 1266 l 2,1,2
 100 1266 100 1266 90 1276 c 128,-1,3
 80 1286 80 1286 80 1300 c 2,4,-1
 80 1400 l 2,5,6
 80 1414 80 1414 90 1424 c 128,-1,7
 100 1434 100 1434 113 1434 c 2,8,-1
 787 1434 l 2,9,10
 801 1434 801 1434 811 1424 c 128,-1,11
 821 1414 821 1414 821 1400 c 2,12,-1
 821 1300 l 2,13,14
 821 1286 821 1286 811 1276 c 128,-1,15
 801 1266 801 1266 787 1266 c 2,0,-1
429 0 m 2,16,-1
 329 0 l 2,17,18
 317 0 317 0 309.5 6.5 c 128,-1,19
 302 13 302 13 302 23 c 2,20,-1
 621 1152 l 2,21,22
 625 1165 625 1165 637.5 1174 c 128,-1,23
 650 1183 650 1183 663 1183 c 2,24,-1
 764 1183 l 2,25,26
 775 1183 775 1183 782 1176.5 c 128,-1,27
 789 1170 789 1170 789 1160 c 0,28,29
 788 1152 788 1152 471 31 c 0,30,31
 467 18 467 18 455 9 c 128,-1,32
 443 0 443 0 429 0 c 2,16,-1
EndSplineSet
EndChar

StartChar: eight
Encoding: 56 56 27
Width: 961
GlyphClass: 2
Flags: W
LayerCount: 2
Fore
SplineSet
404 0 m 2,0,-1
 321 0 l 2,1,2
 288 0 288 0 262 24 c 2,3,-1
 106 180 l 2,4,5
 82 206 82 206 82 239 c 2,6,-1
 82 562 l 2,7,8
 82 595 82 595 106 621 c 2,9,-1
 203 717 l 1,10,-1
 106 813 l 2,11,12
 82 839 82 839 82 872 c 2,13,-1
 82 1195 l 2,14,15
 82 1228 82 1228 106 1254 c 2,16,-1
 262 1409 l 2,17,18
 288 1434 288 1434 321 1434 c 2,19,-1
 396 1434 l 2,20,21
 438 1434 438 1434 438 1400 c 2,22,-1
 438 1300 l 2,23,24
 438 1286 438 1286 428 1276 c 128,-1,25
 418 1266 418 1266 404 1266 c 2,26,-1
 356 1266 l 1,27,-1
 249 1160 l 1,28,-1
 249 907 l 1,29,-1
 356 801 l 1,30,-1
 408 800 l 2,31,32
 421 799 421 799 429.5 789 c 128,-1,33
 438 779 438 779 438 767 c 2,34,-1
 438 667 l 2,35,36
 438 653 438 653 428 643 c 128,-1,37
 418 633 418 633 404 633 c 2,38,-1
 356 633 l 1,39,-1
 249 527 l 1,40,-1
 249 274 l 1,41,-1
 356 167 l 1,42,-1
 404 167 l 2,43,44
 418 167 418 167 428 157.5 c 128,-1,45
 438 148 438 148 438 134 c 2,46,-1
 438 33 l 2,47,48
 438 20 438 20 428 10 c 128,-1,49
 418 0 418 0 404 0 c 2,0,-1
639 0 m 2,50,-1
 555 0 l 2,51,52
 542 0 542 0 532 10 c 128,-1,53
 522 20 522 20 522 33 c 2,54,-1
 522 134 l 2,55,56
 522 148 522 148 532 157.5 c 128,-1,57
 542 167 542 167 555 167 c 2,58,-1
 604 167 l 1,59,-1
 710 274 l 1,60,-1
 710 527 l 1,61,-1
 604 633 l 1,62,-1
 555 633 l 2,63,64
 542 633 542 633 532 643 c 128,-1,65
 522 653 522 653 522 667 c 2,66,-1
 522 767 l 2,67,68
 522 782 522 782 532 791.5 c 128,-1,69
 542 801 542 801 555 801 c 2,70,-1
 604 801 l 1,71,-1
 710 907 l 1,72,-1
 710 1160 l 1,73,-1
 604 1266 l 1,74,-1
 555 1266 l 2,75,76
 542 1266 542 1266 532 1276 c 128,-1,77
 522 1286 522 1286 522 1300 c 2,78,-1
 522 1400 l 2,79,80
 522 1414 522 1414 532 1424 c 128,-1,81
 542 1434 542 1434 555 1434 c 2,82,-1
 639 1434 l 2,83,84
 672 1434 672 1434 698 1409 c 2,85,-1
 853 1254 l 2,86,87
 878 1228 878 1228 878 1195 c 2,88,-1
 878 872 l 2,89,90
 878 839 878 839 853 813 c 2,91,-1
 757 717 l 1,92,-1
 853 621 l 2,93,94
 878 595 878 595 878 562 c 2,95,-1
 878 239 l 2,96,97
 878 206 878 206 853 180 c 2,98,-1
 698 24 l 2,99,100
 672 0 672 0 639 0 c 2,50,-1
EndSplineSet
EndChar

StartChar: nine
Encoding: 57 57 28
Width: 964
GlyphClass: 2
Flags: W
LayerCount: 2
Fore
SplineSet
407 550 m 2,0,-1
 323 550 l 2,1,2
 290 550 290 550 264 574 c 2,3,-1
 109 729 l 2,4,5
 84 755 84 755 84 788 c 2,6,-1
 84 1195 l 2,7,8
 84 1228 84 1228 109 1254 c 2,9,-1
 264 1409 l 2,10,11
 290 1434 290 1434 323 1434 c 2,12,-1
 407 1434 l 2,13,14
 421 1434 421 1434 430.5 1424 c 128,-1,15
 440 1414 440 1414 440 1400 c 2,16,-1
 440 1300 l 2,17,18
 440 1286 440 1286 430.5 1276 c 128,-1,19
 421 1266 421 1266 407 1266 c 2,20,-1
 358 1266 l 1,21,-1
 251 1160 l 1,22,-1
 251 823 l 1,23,-1
 358 717 l 1,24,-1
 407 717 l 2,25,26
 421 717 421 717 430.5 707 c 128,-1,27
 440 697 440 697 440 683 c 2,28,-1
 440 583 l 2,29,30
 440 569 440 569 430.5 559.5 c 128,-1,31
 421 550 421 550 407 550 c 2,0,-1
641 0 m 2,32,-1
 557 0 l 2,33,34
 544 0 544 0 534 10 c 128,-1,35
 524 20 524 20 524 33 c 2,36,-1
 524 134 l 2,37,38
 524 148 524 148 534 157.5 c 128,-1,39
 544 167 544 167 557 167 c 2,40,-1
 606 167 l 1,41,-1
 712 274 l 1,42,-1
 712 587 l 1,43,44
 696 569 696 569 681 559.5 c 128,-1,45
 666 550 666 550 641 550 c 2,46,-1
 557 550 l 2,47,48
 544 550 544 550 534 559.5 c 128,-1,49
 524 569 524 569 524 583 c 2,50,-1
 524 683 l 2,51,52
 524 697 524 697 534 707 c 128,-1,53
 544 717 544 717 557 717 c 2,54,-1
 606 717 l 1,55,-1
 712 823 l 1,56,-1
 712 1160 l 1,57,-1
 606 1266 l 1,58,-1
 557 1266 l 2,59,60
 544 1266 544 1266 534 1276 c 128,-1,61
 524 1286 524 1286 524 1300 c 2,62,-1
 524 1400 l 2,63,64
 524 1414 524 1414 534 1424 c 128,-1,65
 544 1434 544 1434 557 1434 c 2,66,-1
 641 1434 l 2,67,68
 674 1434 674 1434 700 1409 c 2,69,-1
 855 1254 l 2,70,71
 880 1228 880 1228 880 1195 c 2,72,-1
 880 239 l 2,73,74
 880 206 880 206 855 180 c 2,75,-1
 700 24 l 2,76,77
 674 0 674 0 641 0 c 2,32,-1
407 0 m 2,78,-1
 323 0 l 2,79,80
 290 0 290 0 264 24 c 2,81,-1
 109 180 l 2,82,83
 84 206 84 206 84 239 c 2,84,-1
 84 349 l 2,85,86
 84 363 84 363 94 372.5 c 128,-1,87
 104 382 104 382 117 382 c 2,88,-1
 218 382 l 2,89,90
 238 382 238 382 244.5 369 c 128,-1,91
 251 356 251 356 251 336 c 2,92,-1
 251 274 l 1,93,-1
 358 167 l 1,94,-1
 407 167 l 2,95,96
 421 167 421 167 430.5 157.5 c 128,-1,97
 440 148 440 148 440 134 c 2,98,-1
 440 33 l 2,99,100
 440 20 440 20 430.5 10 c 128,-1,101
 421 0 421 0 407 0 c 2,78,-1
EndSplineSet
EndChar

StartChar: colon
Encoding: 58 58 29
Width: 262
GlyphClass: 2
Flags: W
LayerCount: 2
Fore
SplineSet
193 855 m 2,0,-1
 68 855 l 2,1,2
 55 855 55 855 45 864.5 c 128,-1,3
 35 874 35 874 35 888 c 2,4,-1
 35 1012 l 2,5,6
 35 1026 35 1026 45 1036 c 128,-1,7
 55 1046 55 1046 68 1046 c 2,8,-1
 193 1046 l 2,9,10
 207 1046 207 1046 216.5 1036 c 128,-1,11
 226 1026 226 1026 226 1012 c 2,12,-1
 226 888 l 2,13,14
 226 874 226 874 216.5 864.5 c 128,-1,15
 207 855 207 855 193 855 c 2,0,-1
193 246 m 2,16,-1
 68 246 l 2,17,18
 55 246 55 246 45 256 c 128,-1,19
 35 266 35 266 35 279 c 2,20,-1
 35 404 l 2,21,22
 35 418 35 418 45 427.5 c 128,-1,23
 55 437 55 437 68 437 c 2,24,-1
 193 437 l 2,25,26
 207 437 207 437 216.5 427.5 c 128,-1,27
 226 418 226 418 226 404 c 2,28,-1
 226 279 l 2,29,30
 226 266 226 266 216.5 256 c 128,-1,31
 207 246 207 246 193 246 c 2,16,-1
EndSplineSet
EndChar

StartChar: semicolon
Encoding: 59 59 30
AltUni2: 00037e.ffffffff.0 00037e.ffffffff.0
Width: 260
GlyphClass: 2
Flags: W
LayerCount: 2
Fore
SplineSet
191 854 m 2,0,-1
 66 854 l 2,1,2
 53 854 53 854 43 863.5 c 128,-1,3
 33 873 33 873 33 887 c 2,4,-1
 33 1011 l 2,5,6
 33 1025 33 1025 43 1035 c 128,-1,7
 53 1045 53 1045 66 1045 c 2,8,-1
 191 1045 l 2,9,10
 205 1045 205 1045 214.5 1035 c 128,-1,11
 224 1025 224 1025 224 1011 c 2,12,-1
 224 887 l 2,13,14
 224 873 224 873 214.5 863.5 c 128,-1,15
 205 854 205 854 191 854 c 2,0,-1
58 3 m 0,16,17
 46 3 46 3 35 13 c 2,18,-1
 -53 101 l 2,19,20
 -63 112 -63 112 -63 124 c 0,21,22
 -63 138 -63 138 -53 148 c 2,23,-1
 33 234 l 1,24,-1
 33 399 l 2,25,26
 33 413 33 413 43 422.5 c 128,-1,27
 53 432 53 432 67 432 c 2,28,-1
 191 432 l 2,29,30
 205 432 205 432 214.5 422.5 c 128,-1,31
 224 413 224 413 224 399 c 2,32,-1
 224 175 l 2,33,34
 224 151 224 151 204 135 c 2,35,-1
 83 13 l 2,36,37
 72 3 72 3 58 3 c 0,16,17
EndSplineSet
EndChar

StartChar: less
Encoding: 60 60 31
Width: 809
GlyphClass: 2
Flags: W
LayerCount: 2
Fore
SplineSet
736 412 m 1,0,-1
 729 413 l 1,1,-1
 74 566 l 2,2,3
 61 569 61 569 52 581 c 128,-1,4
 43 593 43 593 43 606 c 2,5,-1
 43 707 l 2,6,7
 43 721 43 721 52 732.5 c 128,-1,8
 61 744 61 744 74 747 c 2,9,-1
 735 901 l 2,10,11
 746 901 746 901 753 893.5 c 128,-1,12
 760 886 760 886 760 874 c 2,13,-1
 760 773 l 2,14,15
 760 760 760 760 751 748 c 128,-1,16
 742 736 742 736 729 733 c 2,17,-1
 401 656 l 1,18,-1
 729 580 l 2,19,20
 742 577 742 577 751 565 c 128,-1,21
 760 553 760 553 760 539 c 2,22,-1
 760 439 l 2,23,24
 760 415 760 415 736 412 c 1,0,-1
EndSplineSet
EndChar

StartChar: equal
Encoding: 61 61 32
Width: 803
GlyphClass: 2
Flags: W
LayerCount: 2
Fore
SplineSet
726 715 m 2,0,-1
 76 715 l 2,1,2
 63 715 63 715 53 724.5 c 128,-1,3
 43 734 43 734 43 748 c 2,4,-1
 43 848 l 2,5,6
 43 862 43 862 53 872 c 128,-1,7
 63 882 63 882 76 882 c 2,8,-1
 726 882 l 2,9,10
 740 882 740 882 750 872 c 128,-1,11
 760 862 760 862 760 848 c 2,12,-1
 760 748 l 2,13,14
 760 734 760 734 750 724.5 c 128,-1,15
 740 715 740 715 726 715 c 2,0,-1
726 380 m 2,16,-1
 76 380 l 2,17,18
 63 380 63 380 53 390 c 128,-1,19
 43 400 43 400 43 413 c 2,20,-1
 43 514 l 2,21,22
 43 528 43 528 53 537.5 c 128,-1,23
 63 547 63 547 76 547 c 2,24,-1
 726 547 l 2,25,26
 740 547 740 547 750 537.5 c 128,-1,27
 760 528 760 528 760 514 c 2,28,-1
 760 413 l 2,29,30
 760 400 760 400 750 390 c 128,-1,31
 740 380 740 380 726 380 c 2,16,-1
EndSplineSet
EndChar

StartChar: greater
Encoding: 62 62 33
Width: 809
GlyphClass: 2
Flags: W
LayerCount: 2
Fore
SplineSet
73 412 m 0,0,1
 52 412 52 412 49 439 c 2,2,-1
 49 539 l 2,3,4
 49 553 49 553 58 565 c 128,-1,5
 67 577 67 577 80 580 c 2,6,-1
 408 656 l 1,7,-1
 80 733 l 2,8,9
 67 736 67 736 58 748 c 128,-1,10
 49 760 49 760 49 773 c 2,11,-1
 49 874 l 2,12,13
 49 886 49 886 56.5 893.5 c 128,-1,14
 64 901 64 901 74 901 c 2,15,-1
 735 747 l 2,16,17
 748 744 748 744 757 732.5 c 128,-1,18
 766 721 766 721 766 707 c 2,19,-1
 766 606 l 2,20,21
 766 593 766 593 757 581 c 128,-1,22
 748 569 748 569 735 566 c 0,23,24
 80 413 80 413 73 412 c 0,0,1
EndSplineSet
EndChar

StartChar: question
Encoding: 63 63 34
Width: 856
GlyphClass: 2
Flags: W
LayerCount: 2
Fore
SplineSet
489 278 m 2,0,-1
 389 278 l 2,1,2
 375 278 375 278 365.5 288 c 128,-1,3
 356 298 356 298 356 311 c 2,4,-1
 356 631 l 2,5,6
 356 657 356 657 371 679 c 1,7,-1
 649 956 l 1,8,-1
 649 1166 l 1,9,-1
 543 1273 l 1,10,-1
 295 1273 l 1,11,-1
 188 1166 l 1,12,-1
 188 1091 l 2,13,14
 188 1078 188 1078 178.5 1068 c 128,-1,15
 169 1058 169 1058 155 1058 c 2,16,-1
 54 1058 l 2,17,18
 41 1058 41 1058 31 1068 c 128,-1,19
 21 1078 21 1078 21 1091 c 2,20,-1
 21 1201 l 2,21,22
 21 1234 21 1234 45 1260 c 2,23,-1
 201 1415 l 2,24,25
 227 1440 227 1440 260 1440 c 2,26,-1
 578 1440 l 2,27,28
 611 1440 611 1440 637 1415 c 2,29,-1
 792 1260 l 2,30,31
 817 1234 817 1234 817 1201 c 2,32,-1
 817 929 l 2,33,34
 817 904 817 904 801 881 c 1,35,-1
 523 604 l 1,36,-1
 523 311 l 2,37,38
 523 298 523 298 513 288 c 128,-1,39
 503 278 503 278 489 278 c 2,0,-1
480 0 m 2,40,-1
 380 0 l 2,41,42
 366 0 366 0 356.5 10 c 128,-1,43
 347 20 347 20 347 33 c 2,44,-1
 347 134 l 2,45,46
 347 148 347 148 356.5 157.5 c 128,-1,47
 366 167 366 167 380 167 c 2,48,-1
 480 167 l 2,49,50
 494 167 494 167 504 157.5 c 128,-1,51
 514 148 514 148 514 134 c 2,52,-1
 514 33 l 2,53,54
 514 20 514 20 504 10 c 128,-1,55
 494 0 494 0 480 0 c 2,40,-1
EndSplineSet
EndChar

StartChar: at
Encoding: 64 64 35
Width: 2487
GlyphClass: 2
Flags: W
LayerCount: 2
Fore
SplineSet
1938 532 m 2,0,-1
 1937 532 l 2,1,2
 1933 532 1933 532 1925.5 533.5 c 128,-1,3
 1918 535 1918 535 1909 536 c 0,4,5
 1887 541 1887 541 1861 559 c 0,6,7
 1798 605 1798 605 1798 731 c 0,8,9
 1798 764 1798 764 1801.5 782 c 128,-1,10
 1805 800 1805 800 1810.5 814.5 c 128,-1,11
 1816 829 1816 829 1820 849 c 1,12,-1
 1779 745 l 2,13,14
 1769 719 1769 719 1761 704 c 0,15,16
 1745 669 1745 669 1737 665 c 0,17,18
 1736 665 1736 665 1734.5 664 c 128,-1,19
 1733 663 1733 663 1729 663 c 0,20,21
 1723 663 1723 663 1717.5 672.5 c 128,-1,22
 1712 682 1712 682 1707.5 686 c 128,-1,23
 1703 690 1703 690 1691 693 c 0,24,25
 1674 695 1674 695 1674 740 c 256,26,27
 1674 785 1674 785 1694 851 c 128,-1,28
 1714 917 1714 917 1745 967.5 c 128,-1,29
 1776 1018 1776 1018 1809 1018 c 0,30,31
 1824 1018 1824 1018 1835 993 c 1,32,-1
 1841 967 l 1,33,34
 1861 1022 1861 1022 1868.5 1024.5 c 128,-1,35
 1876 1027 1876 1027 1881 1035 c 0,36,37
 1883 1037 1883 1037 1885 1038.5 c 128,-1,38
 1887 1040 1887 1040 1890.5 1043.5 c 128,-1,39
 1894 1047 1894 1047 1898 1047 c 0,40,41
 1899 1047 1899 1047 1900 1046.5 c 128,-1,42
 1901 1046 1901 1046 1903 1045.5 c 128,-1,43
 1905 1045 1905 1045 1907.5 1040.5 c 128,-1,44
 1910 1036 1910 1036 1910 1025 c 0,45,46
 1910 991 1910 991 1887 920 c 0,47,48
 1872 873 1872 873 1859 819 c 0,49,50
 1844 757 1844 757 1844 688 c 0,51,52
 1844 616 1844 616 1866 584.5 c 128,-1,53
 1888 553 1888 553 1919 553 c 0,54,55
 1925 553 1925 553 1947 560.5 c 128,-1,56
 1969 568 1969 568 1993.5 593 c 128,-1,57
 2018 618 2018 618 2036 668.5 c 128,-1,58
 2054 719 2054 719 2054 806 c 0,59,60
 2054 817 2054 817 2053 849 c 128,-1,61
 2052 881 2052 881 2047 909.5 c 128,-1,62
 2042 938 2042 938 2031 938 c 0,63,64
 2025 938 2025 938 2009.5 907.5 c 128,-1,65
 1994 877 1994 877 1980.5 832 c 128,-1,66
 1967 787 1967 787 1967 743 c 0,67,68
 1967 710 1967 710 1978 683 c 1,69,-1
 1978 682 l 2,70,71
 1978 681 1978 681 1979.5 679 c 128,-1,72
 1981 677 1981 677 1983 676.5 c 128,-1,73
 1985 676 1985 676 1986 675 c 1,74,-1
 1984 674 l 2,75,76
 1983 672 1983 672 1977.5 670 c 128,-1,77
 1972 668 1972 668 1965 668 c 0,78,79
 1943 668 1943 668 1930 706 c 1,80,-1
 1930 709 l 2,81,82
 1929 718 1929 718 1925 731 c 2,83,-1
 1918 752 l 1,84,85
 1909 762 1909 762 1909 789 c 0,86,87
 1909 822 1909 822 1930.5 864 c 128,-1,88
 1952 906 1952 906 1984.5 937.5 c 128,-1,89
 2017 969 2017 969 2047 969 c 0,90,91
 2065 969 2065 969 2084.5 962.5 c 128,-1,92
 2104 956 2104 956 2117 932.5 c 128,-1,93
 2130 909 2130 909 2130 859 c 0,94,95
 2130 811 2130 811 2116.5 754.5 c 128,-1,96
 2103 698 2103 698 2077 647.5 c 128,-1,97
 2051 597 2051 597 2015.5 564.5 c 128,-1,98
 1980 532 1980 532 1938 532 c 2,0,-1
1725 719 m 256,99,100
 1727 719 1727 719 1737 743 c 0,101,102
 1746 760 1746 760 1756 784 c 2,103,-1
 1763 801 l 2,104,105
 1780 836 1780 836 1793 870 c 2,106,-1
 1826 945 l 1,107,108
 1825 954 1825 954 1822 963 c 2,109,-1
 1820 969 l 2,110,111
 1816 983 1816 983 1812 983 c 0,112,113
 1806 983 1806 983 1784 943.5 c 128,-1,114
 1762 904 1762 904 1742.5 846.5 c 128,-1,115
 1723 789 1723 789 1723 735 c 0,116,117
 1723 719 1723 719 1725 719 c 256,99,100
1157 491 m 1,118,-1
 1147 491 l 2,119,120
 1113 491 1113 491 1088 516 c 128,-1,121
 1063 541 1063 541 1063 577 c 0,122,123
 1063 603 1063 603 1079 685 c 0,124,125
 1104 808 1104 808 1126 897 c 0,126,127
 1138 948 1138 948 1140.5 955.5 c 128,-1,128
 1143 963 1143 963 1147 967.5 c 128,-1,129
 1151 972 1151 972 1153.5 975 c 128,-1,130
 1156 978 1156 978 1158 980 c 1,131,132
 1144 969 1144 969 1102 959 c 0,133,134
 1086 953 1086 953 1072 950 c 2,135,-1
 1059 947 l 1,136,137
 1060 930 1060 930 1060 910 c 0,138,139
 1060 849 1060 849 1048 777.5 c 128,-1,140
 1036 706 1036 706 1017 654 c 128,-1,141
 998 602 998 602 974 602 c 0,142,143
 968 602 968 602 965 605 c 128,-1,144
 962 608 962 608 959 612.5 c 128,-1,145
 956 617 956 617 950 623.5 c 128,-1,146
 944 630 944 630 929.5 638 c 128,-1,147
 915 646 915 646 910 674 c 128,-1,148
 905 702 905 702 905 729 c 2,149,-1
 907 771 l 1,150,-1
 886 694 l 1,151,152
 855 599 855 599 834 599 c 0,153,154
 827 599 827 599 819 611 c 0,155,156
 818 613 818 613 812.5 615 c 128,-1,157
 807 617 807 617 799 621 c 0,158,159
 780 636 780 636 780 682 c 0,160,161
 780 771 780 771 820 850.5 c 128,-1,162
 860 930 860 930 893 930 c 0,163,164
 914 930 914 930 924 887 c 1,165,166
 935 909 935 909 942 919 c 0,167,168
 953 931 953 931 959 931 c 2,169,-1
 964 932 l 2,170,171
 981 932 981 932 988 926 c 1,172,-1
 993 925 l 1,173,174
 980 911 980 911 961 863.5 c 128,-1,175
 942 816 942 816 942 738 c 0,176,177
 942 715 942 715 947 686 c 1,178,-1
 949 680 l 2,179,180
 953 666 953 666 957 662 c 2,181,-1
 961 659 l 1,182,183
 977 676 977 676 996 748 c 128,-1,184
 1015 820 1015 820 1015 896 c 0,185,186
 1015 929 1015 929 1009 959 c 1,187,188
 983 967 983 967 971 983.5 c 128,-1,189
 959 1000 959 1000 959 1016 c 0,190,191
 959 1034 959 1034 967.5 1044.5 c 128,-1,192
 976 1055 976 1055 987 1059 c 128,-1,193
 998 1063 998 1063 1005 1063 c 0,194,195
 1025 1063 1025 1063 1036.5 1041.5 c 128,-1,196
 1048 1020 1048 1020 1054 986 c 1,197,198
 1079 990 1079 990 1129 1008 c 2,199,-1
 1135 1010 l 2,200,201
 1150 1014 1150 1014 1158 1020 c 2,202,-1
 1170 1031 l 2,203,204
 1176 1039 1176 1039 1187 1039 c 0,205,206
 1196 1039 1196 1039 1203 1031.5 c 128,-1,207
 1210 1024 1210 1024 1210 1012 c 1,208,-1
 1209 1011 l 1,209,-1
 1186 931 l 2,210,211
 1128 730 1128 730 1128 623 c 0,212,213
 1128 547 1128 547 1157 491 c 1,118,-1
833 645 m 0,214,215
 836 645 836 645 842.5 663 c 128,-1,216
 849 681 849 681 858 708 c 128,-1,217
 867 735 867 735 875.5 763.5 c 128,-1,218
 884 792 884 792 891.5 814 c 128,-1,219
 899 836 899 836 902 843 c 0,220,221
 901 860 901 860 898.5 869.5 c 128,-1,222
 896 879 896 879 891 881 c 2,223,-1
 887 881 l 1,224,225
 872 868 872 868 857 829.5 c 128,-1,226
 842 791 842 791 832.5 746.5 c 128,-1,227
 823 702 823 702 823 673 c 0,228,229
 823 646 823 646 833 645 c 0,214,215
662 243 m 0,230,231
 494 243 494 243 424 358 c 0,232,233
 374 438 374 438 374 536 c 0,234,235
 374 640 374 640 404 741.5 c 128,-1,236
 434 843 434 843 482 930 c 1,237,238
 449 933 449 933 405 933 c 0,239,240
 318 933 318 933 255 915 c 128,-1,241
 192 897 192 897 168 847 c 1,242,-1
 164 861 l 2,243,244
 160 874 160 874 160 892 c 0,245,246
 160 975 160 975 259 984 c 0,247,248
 301 988 301 988 340 988 c 0,249,250
 396 988 396 988 441 985 c 0,251,252
 476 982 476 982 503 982 c 0,253,254
 508 982 508 982 512 983 c 0,255,256
 579 1088 579 1088 651.5 1152.5 c 128,-1,257
 724 1217 724 1217 776 1217 c 0,258,259
 811 1217 811 1217 811 1180 c 0,260,261
 811 1174 811 1174 803.5 1139 c 128,-1,262
 796 1104 796 1104 770 1059 c 0,263,264
 705 950 705 950 535 929 c 1,265,266
 524 903 524 903 498 835 c 0,267,268
 433 659 433 659 433 538 c 0,269,270
 433 445 433 445 496 377.5 c 128,-1,271
 559 310 559 310 652 310 c 0,272,273
 744 310 744 310 863 343 c 128,-1,274
 982 376 982 376 1110 418 c 0,275,276
 1242 462 1242 462 1368.5 496.5 c 128,-1,277
 1495 531 1495 531 1594 531 c 256,278,279
 1693 531 1693 531 1756.5 507 c 128,-1,280
 1820 483 1820 483 1855 452 c 128,-1,281
 1890 421 1890 421 1905 394 c 1,282,-1
 1909 375 l 1,283,-1
 1883 397 l 2,284,285
 1857 418 1857 418 1794.5 439 c 128,-1,286
 1732 460 1732 460 1627 460 c 0,287,288
 1525 460 1525 460 1427.5 441.5 c 128,-1,289
 1330 423 1330 423 1237 395 c 128,-1,290
 1144 367 1144 367 1057 337 c 0,291,292
 948 298 948 298 848.5 270.5 c 128,-1,293
 749 243 749 243 662 243 c 0,230,231
567 986 m 2,294,295
 602 986 602 986 637.5 1000.5 c 128,-1,296
 673 1015 673 1015 715 1058 c 0,297,298
 735 1082 735 1082 746 1107.5 c 128,-1,299
 757 1133 757 1133 760 1152 c 2,300,-1
 764 1171 l 1,301,-1
 729 1148 l 2,302,303
 693 1125 693 1125 646.5 1083 c 128,-1,304
 600 1041 600 1041 562 986 c 1,305,-1
 567 986 l 2,294,295
628 416 m 1,306,-1
 613 421 l 2,307,308
 597 430 597 430 587 454 c 0,309,310
 573 484 573 484 573 542 c 0,311,312
 573 593 573 593 581 644 c 128,-1,313
 589 695 589 695 599 732 c 1,314,-1
 575 665 l 2,315,316
 545 583 545 583 543 562 c 1,317,-1
 536 564 l 2,318,319
 528 566 528 566 518 570.5 c 128,-1,320
 508 575 508 575 499.5 581.5 c 128,-1,321
 491 588 491 588 487.5 600.5 c 128,-1,322
 484 613 484 613 484 634 c 0,323,324
 484 666 484 666 499.5 724.5 c 128,-1,325
 515 783 515 783 535 833 c 128,-1,326
 555 883 555 883 568 895 c 1,327,-1
 595 892 l 2,328,329
 609 889 609 889 609 883 c 2,330,-1
 586 829 l 2,331,332
 568 785 568 785 551 733.5 c 128,-1,333
 534 682 534 682 531 647 c 1,334,-1
 549 689 l 2,335,336
 567 730 567 730 592.5 784 c 128,-1,337
 618 838 618 838 641 880 c 128,-1,338
 664 922 664 922 674 922 c 1,339,-1
 675 921 l 1,340,341
 684 919 684 919 694 914 c 0,342,343
 696 914 696 914 697.5 912.5 c 128,-1,344
 699 911 699 911 700 910.5 c 128,-1,345
 701 910 701 910 702 909 c 128,-1,346
 703 908 703 908 703.5 908 c 128,-1,347
 704 908 704 908 704 907.5 c 128,-1,348
 704 907 704 907 705 906 c 1,349,-1
 705 906 l 1,350,-1
 685 860 l 2,351,352
 664 814 664 814 644 740 c 128,-1,353
 624 666 624 666 621 582 c 1,354,-1
 637 635 l 2,355,356
 653 688 653 688 677 758 c 0,357,358
 737 934 737 934 767 954 c 1,359,-1
 789 950 l 2,360,361
 792 949 792 949 796 948 c 128,-1,362
 800 947 800 947 805 944.5 c 128,-1,363
 810 942 810 942 810 939 c 2,364,-1
 809 938 l 1,365,-1
 786 861 l 2,366,367
 728 665 728 665 728 574 c 0,368,369
 728 541 728 541 732.5 531 c 128,-1,370
 737 521 737 521 747 521 c 0,371,372
 758 521 758 521 792 534 c 0,373,374
 879 565 879 565 925 565 c 0,375,376
 962 565 962 565 989 548 c 2,377,-1
 993 545 l 2,378,379
 999 540 999 540 1001.5 537 c 128,-1,380
 1004 534 1004 534 1004.5 533.5 c 128,-1,381
 1005 533 1005 533 1007 531 c 1,382,-1
 1006 531 l 1,383,-1
 968 528 l 2,384,385
 879 518 879 518 777 470 c 2,386,-1
 775 469 l 2,387,388
 773 468 773 468 769.5 466.5 c 128,-1,389
 766 465 766 465 759 465 c 0,390,391
 734 465 734 465 715 499 c 1,392,-1
 709 502 l 2,393,394
 708 503 708 503 705 505.5 c 128,-1,395
 702 508 702 508 697 514 c 0,396,397
 679 533 679 533 679 576 c 0,398,399
 679 608 679 608 697 689 c 2,400,-1
 714 766 l 1,401,-1
 701 730 l 2,402,403
 688 693 688 693 671.5 638.5 c 128,-1,404
 655 584 655 584 641 527 c 128,-1,405
 627 470 627 470 627 426 c 1,406,-1
 628 416 l 1,306,-1
364 362 m 2,407,-1
 361 362 l 2,408,409
 350 362 350 362 330.5 369 c 128,-1,410
 311 376 311 376 295.5 400.5 c 128,-1,411
 280 425 280 425 278 476 c 0,412,413
 278 493 278 493 280 517 c 0,414,415
 280 526 280 526 281 528 c 0,416,417
 286 592 286 592 291 624 c 2,418,-1
 293 644 l 1,419,-1
 258 571 l 2,420,421
 231 516 231 516 220 502 c 0,422,423
 214 490 214 490 202 490 c 0,424,425
 195 490 195 490 191 499 c 0,426,427
 184 517 184 517 166 522 c 0,428,429
 152 526 152 526 152 560 c 0,430,431
 152 605 152 605 175.5 669.5 c 128,-1,432
 199 734 199 734 233.5 785 c 128,-1,433
 268 836 268 836 304 839 c 1,434,435
 327 836 327 836 333 800 c 1,436,-1
 354 847 l 2,437,438
 371 884 371 884 377 885 c 128,-1,439
 383 886 383 886 395 898 c 0,440,441
 402 905 402 905 408 905 c 0,442,443
 409 905 409 905 409 904.5 c 128,-1,444
 409 904 409 904 411 904 c 128,-1,445
 413 904 413 904 414 903 c 0,446,447
 419 898 419 898 419 888 c 0,448,449
 417 857 417 857 394 803 c 0,450,451
 375 756 375 756 356.5 695.5 c 128,-1,452
 338 635 338 635 338 553 c 0,453,454
 338 444 338 444 383 364 c 1,455,456
 378 362 378 362 364 362 c 2,407,-1
201 546 m 2,457,458
 204 546 204 546 222 580 c 0,459,460
 261 653 261 653 280 692 c 2,461,-1
 318 765 l 2,462,463
 318 768 318 768 317.5 772.5 c 128,-1,464
 317 777 317 777 315.5 784 c 128,-1,465
 314 791 314 791 312 795.5 c 128,-1,466
 310 800 310 800 309 801.5 c 128,-1,467
 308 803 308 803 307 803 c 0,468,469
 297 802 297 802 272 761 c 128,-1,470
 247 720 247 720 224.5 662.5 c 128,-1,471
 202 605 202 605 200 554 c 1,472,-1
 201 546 l 2,457,458
1218 553 m 0,473,474
 1216 553 1216 553 1215 554 c 0,475,476
 1206 562 1206 562 1196 567.5 c 128,-1,477
 1186 573 1186 573 1178 585 c 128,-1,478
 1170 597 1170 597 1170 631 c 0,479,480
 1170 721 1170 721 1194.5 831.5 c 128,-1,481
 1219 942 1219 942 1251 1041.5 c 128,-1,482
 1283 1141 1283 1141 1306 1202 c 1,483,484
 1293 1203 1293 1203 1274 1203 c 0,485,486
 1243 1203 1243 1203 1195 1200 c 0,487,488
 1002 1191 1002 1191 964 1099 c 1,489,-1
 960 1112 l 2,490,491
 956 1124 956 1124 953 1144 c 0,492,493
 953 1212 953 1212 1008.5 1231 c 128,-1,494
 1064 1250 1064 1250 1127 1251 c 0,495,496
 1182 1255 1182 1255 1227 1255 c 0,497,498
 1316 1255 1316 1255 1330 1264 c 1,499,500
 1340 1278 1340 1278 1349 1278 c 256,501,502
 1358 1278 1358 1278 1364 1259 c 2,503,-1
 1366 1254 l 2,504,505
 1371 1234 1371 1234 1380 1225 c 0,506,507
 1382 1222 1382 1222 1382 1219 c 2,508,-1
 1345 1136 l 1,509,510
 1260 934 1260 934 1241 772 c 1,511,512
 1251 807 1251 807 1266 844 c 0,513,514
 1344 1054 1344 1054 1402 1054 c 0,515,516
 1408 1054 1408 1054 1419 1048.5 c 128,-1,517
 1430 1043 1430 1043 1437.5 1030.5 c 128,-1,518
 1445 1018 1445 1018 1445 992 c 0,519,520
 1445 968 1445 968 1430.5 917.5 c 128,-1,521
 1416 867 1416 867 1385.5 822.5 c 128,-1,522
 1355 778 1355 778 1306 764 c 1,523,-1
 1307 762 l 2,524,525
 1312 755 1312 755 1323 743 c 128,-1,526
 1334 731 1334 731 1347 731 c 0,527,528
 1368 731 1368 731 1389 752 c 0,529,530
 1424 787 1424 787 1454 840 c 1,531,532
 1491 1010 1491 1010 1566 1217 c 1,533,-1
 1591 1282 l 1,534,-1
 1593 1285 l 2,535,536
 1595 1291 1595 1291 1601 1294 c 0,537,538
 1602 1296 1602 1296 1604.5 1298 c 128,-1,539
 1607 1300 1607 1300 1612 1300 c 0,540,541
 1620 1300 1620 1300 1626 1281 c 0,542,543
 1635 1253 1635 1253 1642 1246 c 0,544,545
 1645 1243 1645 1243 1645 1241 c 2,546,-1
 1644 1240 l 2,547,548
 1638 1230 1638 1230 1607 1158 c 0,549,550
 1517 955 1517 955 1498 770 c 1,551,-1
 1512 807 l 1,552,553
 1597 1010 1597 1010 1663 1010 c 2,554,-1
 1685 1010 l 2,555,556
 1715 1010 1715 1010 1715 993 c 0,557,558
 1715 987 1715 987 1704 968 c 0,559,560
 1642 855 1642 855 1642 736 c 0,561,562
 1645 657 1645 657 1713 615 c 0,563,564
 1740 601 1740 601 1770 601 c 2,565,-1
 1774 601 l 1,566,-1
 1765 589 l 2,567,568
 1760 583 1760 583 1754 579 c 0,569,570
 1738 570 1738 570 1702 570 c 0,571,572
 1668 570 1668 570 1644 583 c 0,573,574
 1608 604 1608 604 1592 644 c 0,575,576
 1580 669 1580 669 1580 705 c 2,577,-1
 1581 721 l 2,578,579
 1586 798 1586 798 1615 900 c 0,580,581
 1624 935 1624 935 1627 940 c 1,582,-1
 1608 902 l 2,583,584
 1506 692 1506 692 1484 615 c 1,585,-1
 1482 611 l 2,586,587
 1482 606 1482 606 1479 601 c 128,-1,588
 1476 596 1476 596 1474 592 c 128,-1,589
 1472 588 1472 588 1468 588 c 0,590,591
 1467 588 1467 588 1467 589 c 0,592,593
 1457 598 1457 598 1446.5 603 c 128,-1,594
 1436 608 1436 608 1433 615 c 2,595,-1
 1432 618 l 2,596,597
 1430 624 1430 624 1430 639 c 0,598,599
 1430 686 1430 686 1437 739 c 1,600,601
 1381 683 1381 683 1340 683 c 0,602,603
 1325 683 1325 683 1312 694 c 0,604,605
 1293 717 1293 717 1283 733 c 2,606,-1
 1272 748 l 1,607,-1
 1262 715 l 2,608,609
 1258 700 1258 700 1253.5 684.5 c 128,-1,610
 1249 669 1249 669 1244 642 c 0,611,612
 1242 630 1242 630 1240 620 c 128,-1,613
 1238 610 1238 610 1237 601 c 0,614,615
 1227 553 1227 553 1218 553 c 0,473,474
1297 810 m 1,616,617
 1323 819 1323 819 1342.5 848 c 128,-1,618
 1362 877 1362 877 1374.5 911 c 128,-1,619
 1387 945 1387 945 1393 972.5 c 128,-1,620
 1399 1000 1399 1000 1399 1004 c 1,621,-1
 1378 972 l 2,622,623
 1357 940 1357 940 1333 895 c 128,-1,624
 1309 850 1309 850 1297 810 c 1,616,617
1957 955 m 1,625,-1
 1957 956 l 1,626,-1
 1954 957 l 2,627,628
 1943 962 1943 962 1936 974 c 0,629,630
 1933 982 1933 982 1933 995 c 0,631,632
 1933 1009 1933 1009 1949 1046 c 0,633,634
 1961 1077 1961 1077 1972 1101 c 2,635,-1
 1986 1133 l 1,636,-1
 1982 1126 l 2,637,638
 1978 1119 1978 1119 1970 1108 c 0,639,640
 1966 1103 1966 1103 1962.5 1098 c 128,-1,641
 1959 1093 1959 1093 1956 1088.5 c 128,-1,642
 1953 1084 1953 1084 1942 1073 c 0,643,644
 1937 1069 1937 1069 1932 1069 c 0,645,646
 1928 1073 1928 1073 1926.5 1077 c 128,-1,647
 1925 1081 1925 1081 1923 1082 c 0,648,649
 1922 1087 1922 1087 1919 1088 c 0,650,651
 1919 1093 1919 1093 1923 1101 c 1,652,653
 1900 1069 1900 1069 1888 1069 c 0,654,655
 1886 1069 1886 1069 1883 1071 c 128,-1,656
 1880 1073 1880 1073 1880 1075.5 c 128,-1,657
 1880 1078 1880 1078 1879 1079 c 2,658,-1
 1879 1081 l 1,659,-1
 1878 1081 l 1,660,-1
 1878 1083 l 1,661,-1
 1876 1084 l 2,662,663
 1868 1087 1868 1087 1868 1110 c 0,664,665
 1868 1122 1868 1122 1876 1141 c 128,-1,666
 1884 1160 1884 1160 1890.5 1178.5 c 128,-1,667
 1897 1197 1897 1197 1907 1227 c 1,668,669
 1897 1224 1897 1224 1888 1223 c 0,670,671
 1877 1219 1877 1219 1871.5 1214.5 c 128,-1,672
 1866 1210 1866 1210 1863.5 1207 c 128,-1,673
 1861 1204 1861 1204 1859.5 1201.5 c 128,-1,674
 1858 1199 1858 1199 1857 1197 c 128,-1,675
 1856 1195 1856 1195 1855 1193.5 c 128,-1,676
 1854 1192 1854 1192 1854 1191 c 1,677,-1
 1854 1191 l 1,678,679
 1853 1191 1853 1191 1850 1193.5 c 128,-1,680
 1847 1196 1847 1196 1847 1197 c 1,681,-1
 1846 1197 l 1,682,-1
 1842 1203 l 2,683,684
 1842 1204 1842 1204 1841 1205.5 c 128,-1,685
 1840 1207 1840 1207 1840 1213 c 0,686,687
 1840 1229 1840 1229 1866.5 1237 c 128,-1,688
 1893 1245 1893 1245 1905 1245 c 2,689,-1
 1913 1246 l 1,690,691
 1915 1253 1915 1253 1918 1261.5 c 128,-1,692
 1921 1270 1921 1270 1924 1279.5 c 128,-1,693
 1927 1289 1927 1289 1949 1294 c 2,694,-1
 1961 1298 l 2,695,696
 1962 1298 1962 1298 1963.5 1297.5 c 128,-1,697
 1965 1297 1965 1297 1965 1292 c 0,698,699
 1961 1285 1961 1285 1956.5 1273.5 c 128,-1,700
 1952 1262 1952 1262 1945 1248 c 1,701,702
 2016 1248 2016 1248 2038 1241 c 0,703,704
 2046 1241 2046 1241 2062 1236 c 0,705,706
 2092 1229 2092 1229 2092 1211 c 1,707,708
 2056 1231 2056 1231 1973 1231 c 2,709,-1
 1937 1230 l 1,710,711
 1919 1188 1919 1188 1904 1150 c 0,712,713
 1891 1116 1891 1116 1891 1103 c 0,714,715
 1892 1101 1892 1101 1895 1101 c 0,716,717
 1902 1101 1902 1101 1919.5 1119.5 c 128,-1,718
 1937 1138 1937 1138 1946 1150 c 2,719,-1
 1958 1164 l 1,720,-1
 1962 1165 l 1,721,-1
 1966 1168 l 1,722,-1
 1967 1168 l 1,723,-1
 1969 1171 l 1,724,-1
 1971 1171 l 1,725,-1
 1976 1173 l 2,726,727
 1977 1173 1977 1173 1977 1172 c 2,728,-1
 1973 1166 l 2,729,730
 1943 1114 1943 1114 1943 1105 c 1,731,-1
 1944 1103 l 2,732,733
 1946 1103 1946 1103 1953 1112 c 2,734,-1
 1978 1145 l 2,735,736
 2004 1183 2004 1183 2013 1183 c 1,737,-1
 2017 1181 l 1,738,-1
 2019 1181 l 1,739,740
 2019 1180 2019 1180 2020 1180 c 128,-1,741
 2021 1180 2021 1180 2022 1179 c 2,742,-1
 2023 1179 l 1,743,-1
 2024 1176 l 1,744,-1
 2014 1155 l 1,745,-1
 2011 1147 l 2,746,747
 1990 1102 1990 1102 1968 1039 c 0,748,749
 1952 996 1952 996 1952 970 c 0,750,751
 1952 959 1952 959 1957 955 c 1,625,-1
1974 962 m 1,752,-1
 1973 962 l 2,753,754
 1971 963 1971 963 1970.5 963 c 128,-1,755
 1970 963 1970 963 1968 965.5 c 128,-1,756
 1966 968 1966 968 1965 970 c 128,-1,757
 1964 972 1964 972 1962 974 c 2,758,-1
 1962 977 l 2,759,760
 1962 995 1962 995 1989 1064 c 0,761,762
 1994 1075 1994 1075 1998 1087 c 0,763,764
 2034 1174 2034 1174 2037 1177 c 2,765,-1
 2039 1177 l 2,766,767
 2040 1176 2040 1176 2042.5 1175.5 c 128,-1,768
 2045 1175 2045 1175 2046.5 1174.5 c 128,-1,769
 2048 1174 2048 1174 2050.5 1173 c 128,-1,770
 2053 1172 2053 1172 2053 1169 c 2,771,-1
 2053 1167 l 1,772,-1
 2051 1164 l 2,773,774
 2044 1157 2044 1157 2013 1080 c 1,775,-1
 2064 1173 l 1,776,777
 2077 1167 2077 1167 2077 1132 c 0,778,779
 2076 1082 2076 1082 2057 1082 c 0,780,781
 2041 1082 2041 1082 2036 1092 c 1,782,783
 1987 1000 1987 1000 1974 962 c 1,752,-1
2038 1096 m 1,784,785
 2055 1096 2055 1096 2059 1105 c 128,-1,786
 2063 1114 2063 1114 2063 1127 c 0,787,788
 2063 1133 2063 1133 2062 1138 c 2,789,-1
 2062 1142 l 1,790,-1
 2038 1096 l 1,784,785
2106 1080 m 0,791,792
 2086 1080 2086 1080 2082 1106 c 1,793,-1
 2086 1131 l 1,794,795
 2096 1167 2096 1167 2110 1170 c 0,796,797
 2111 1170 2111 1170 2111 1169.5 c 128,-1,798
 2111 1169 2111 1169 2112.5 1169 c 128,-1,799
 2114 1169 2114 1169 2115.5 1168 c 128,-1,800
 2117 1167 2117 1167 2120 1165 c 0,801,802
 2124 1158 2124 1158 2124 1149 c 0,803,804
 2124 1137 2124 1137 2117.5 1124.5 c 128,-1,805
 2111 1112 2111 1112 2098 1103 c 0,806,807
 2098 1101 2098 1101 2099.5 1096.5 c 128,-1,808
 2101 1092 2101 1092 2103 1092 c 0,809,810
 2106 1092 2106 1092 2113 1098.5 c 128,-1,811
 2120 1105 2120 1105 2126.5 1116.5 c 128,-1,812
 2133 1128 2133 1128 2133 1146 c 0,813,814
 2133 1166 2133 1166 2129 1177 c 2,815,-1
 2127 1188 l 1,816,817
 2141 1185 2141 1185 2146 1164 c 2,818,-1
 2147 1161 l 2,819,820
 2148 1154 2148 1154 2148 1142 c 0,821,822
 2148 1117 2148 1117 2136 1098.5 c 128,-1,823
 2124 1080 2124 1080 2106 1080 c 0,791,792
2101 1118 m 1,824,825
 2113 1133 2113 1133 2113 1150 c 2,826,-1
 2113 1152 l 1,827,-1
 2112 1152 l 2,828,829
 2111 1152 2111 1152 2109.5 1148 c 128,-1,830
 2108 1144 2108 1144 2107 1142 c 0,831,832
 2103 1131 2103 1131 2101 1118 c 1,824,825
EndSplineSet
EndChar

StartChar: A
Encoding: 65 65 36
Width: 950
GlyphClass: 2
Flags: W
LayerCount: 2
Fore
SplineSet
823 0 m 2,0,-1
 723 0 l 2,1,2
 709 0 709 0 699 10 c 128,-1,3
 689 20 689 20 689 33 c 2,4,-1
 689 466 l 1,5,-1
 550 466 l 2,6,7
 536 466 536 466 526 476 c 128,-1,8
 516 486 516 486 516 499 c 2,9,-1
 516 600 l 2,10,11
 516 614 516 614 526 623.5 c 128,-1,12
 536 633 536 633 550 633 c 2,13,-1
 689 633 l 1,14,-1
 689 1160 l 1,15,-1
 583 1266 l 1,16,-1
 550 1266 l 2,17,18
 536 1266 536 1266 526 1276 c 128,-1,19
 516 1286 516 1286 516 1300 c 2,20,-1
 516 1400 l 2,21,22
 516 1414 516 1414 526 1424 c 128,-1,23
 536 1434 536 1434 550 1434 c 2,24,-1
 618 1434 l 2,25,26
 651 1434 651 1434 677 1409 c 2,27,-1
 832 1254 l 2,28,29
 857 1228 857 1228 857 1195 c 2,30,-1
 857 33 l 2,31,32
 857 20 857 20 847 10 c 128,-1,33
 837 0 837 0 823 0 c 2,0,-1
226 0 m 2,34,-1
 125 0 l 2,35,36
 112 0 112 0 102 10 c 128,-1,37
 92 20 92 20 92 33 c 2,38,-1
 92 1195 l 2,39,40
 92 1228 92 1228 116 1254 c 2,41,-1
 272 1409 l 2,42,43
 298 1434 298 1434 331 1434 c 2,44,-1
 399 1434 l 2,45,46
 413 1434 413 1434 422.5 1424 c 128,-1,47
 432 1414 432 1414 432 1400 c 2,48,-1
 432 1300 l 2,49,50
 432 1286 432 1286 422.5 1276 c 128,-1,51
 413 1266 413 1266 399 1266 c 2,52,-1
 366 1266 l 1,53,-1
 259 1160 l 1,54,-1
 259 633 l 1,55,-1
 399 633 l 2,56,57
 413 633 413 633 422.5 623.5 c 128,-1,58
 432 614 432 614 432 600 c 2,59,-1
 432 499 l 2,60,61
 432 486 432 486 422.5 476 c 128,-1,62
 413 466 413 466 399 466 c 2,63,-1
 259 466 l 1,64,-1
 259 33 l 2,65,66
 259 20 259 20 249.5 10 c 128,-1,67
 240 0 240 0 226 0 c 2,34,-1
EndSplineSet
EndChar

StartChar: B
Encoding: 66 66 37
Width: 954
GlyphClass: 2
Flags: W
LayerCount: 2
Fore
SplineSet
622 0 m 2,0,-1
 376 0 l 2,1,2
 363 0 363 0 353 10 c 128,-1,3
 343 20 343 20 343 33 c 2,4,-1
 343 134 l 2,5,6
 343 148 343 148 353 157.5 c 128,-1,7
 363 167 363 167 376 167 c 2,8,-1
 587 167 l 1,9,-1
 694 274 l 1,10,-1
 694 527 l 1,11,-1
 587 633 l 1,12,-1
 376 633 l 2,13,14
 363 633 363 633 353 643 c 128,-1,15
 343 653 343 653 343 667 c 2,16,-1
 343 767 l 2,17,18
 343 781 343 781 353 790.5 c 128,-1,19
 363 800 363 800 376 800 c 2,20,-1
 587 800 l 1,21,-1
 694 907 l 1,22,-1
 694 1160 l 1,23,-1
 587 1266 l 1,24,-1
 376 1266 l 2,25,26
 363 1266 363 1266 353 1276 c 128,-1,27
 343 1286 343 1286 343 1300 c 2,28,-1
 343 1400 l 2,29,30
 343 1414 343 1414 353 1424 c 128,-1,31
 363 1434 363 1434 376 1434 c 2,32,-1
 622 1434 l 2,33,34
 655 1434 655 1434 681 1409 c 2,35,-1
 837 1254 l 2,36,37
 861 1228 861 1228 861 1195 c 2,38,-1
 861 872 l 2,39,40
 861 839 861 839 837 813 c 2,41,-1
 740 717 l 1,42,-1
 837 620 l 2,43,44
 861 596 861 596 861 561 c 2,45,-1
 861 239 l 2,46,47
 861 206 861 206 837 180 c 2,48,-1
 681 24 l 2,49,50
 655 0 655 0 622 0 c 2,0,-1
226 0 m 2,51,-1
 125 0 l 2,52,53
 112 0 112 0 102 10 c 128,-1,54
 92 20 92 20 92 33 c 2,55,-1
 92 1400 l 2,56,57
 92 1414 92 1414 102 1424 c 128,-1,58
 112 1434 112 1434 125 1434 c 2,59,-1
 226 1434 l 2,60,61
 240 1434 240 1434 249.5 1424 c 128,-1,62
 259 1414 259 1414 259 1400 c 2,63,-1
 259 33 l 2,64,65
 259 20 259 20 249.5 10 c 128,-1,66
 240 0 240 0 226 0 c 2,51,-1
EndSplineSet
EndChar

StartChar: C
Encoding: 67 67 38
Width: 971
GlyphClass: 2
Flags: W
LayerCount: 2
Fore
SplineSet
854 1051 m 2,0,-1
 754 1051 l 2,1,2
 740 1051 740 1051 730 1061 c 128,-1,3
 720 1071 720 1071 720 1085 c 2,4,-1
 720 1160 l 1,5,-1
 614 1266 l 1,6,-1
 565 1266 l 2,7,8
 552 1266 552 1266 541.5 1276 c 128,-1,9
 531 1286 531 1286 531 1300 c 2,10,-1
 531 1400 l 2,11,12
 531 1414 531 1414 541.5 1424 c 128,-1,13
 552 1434 552 1434 565 1434 c 2,14,-1
 649 1434 l 2,15,16
 682 1434 682 1434 708 1409 c 2,17,-1
 863 1254 l 2,18,19
 888 1228 888 1228 888 1195 c 2,20,-1
 888 1085 l 2,21,22
 888 1071 888 1071 878 1061 c 128,-1,23
 868 1051 868 1051 854 1051 c 2,0,-1
414 0 m 2,24,-1
 331 0 l 2,25,26
 298 0 298 0 272 24 c 2,27,-1
 116 180 l 2,28,29
 92 206 92 206 92 239 c 2,30,-1
 92 1195 l 2,31,32
 92 1228 92 1228 116 1254 c 2,33,-1
 272 1409 l 2,34,35
 298 1434 298 1434 331 1434 c 2,36,-1
 414 1434 l 2,37,38
 428 1434 428 1434 438 1424 c 128,-1,39
 448 1414 448 1414 448 1400 c 2,40,-1
 448 1300 l 2,41,42
 448 1286 448 1286 438 1276 c 128,-1,43
 428 1266 428 1266 414 1266 c 2,44,-1
 366 1266 l 1,45,-1
 259 1160 l 1,46,-1
 259 274 l 1,47,-1
 366 167 l 1,48,-1
 414 167 l 2,49,50
 428 167 428 167 438 157.5 c 128,-1,51
 448 148 448 148 448 134 c 2,52,-1
 448 33 l 2,53,54
 448 20 448 20 438 10 c 128,-1,55
 428 0 428 0 414 0 c 2,24,-1
649 0 m 2,56,-1
 565 0 l 2,57,58
 551 0 551 0 541 10 c 128,-1,59
 531 20 531 20 531 33 c 2,60,-1
 531 134 l 2,61,62
 531 148 531 148 541 157.5 c 128,-1,63
 551 167 551 167 565 167 c 2,64,-1
 614 167 l 1,65,-1
 720 274 l 1,66,-1
 720 349 l 2,67,68
 720 363 720 363 730 372.5 c 128,-1,69
 740 382 740 382 754 382 c 2,70,-1
 854 382 l 2,71,72
 868 382 868 382 878 372.5 c 128,-1,73
 888 363 888 363 888 349 c 2,74,-1
 888 239 l 2,75,76
 888 206 888 206 863 180 c 2,77,-1
 708 24 l 2,78,79
 682 0 682 0 649 0 c 2,56,-1
EndSplineSet
EndChar

StartChar: D
Encoding: 68 68 39
Width: 954
GlyphClass: 2
Flags: W
LayerCount: 2
Fore
SplineSet
622 0 m 2,0,-1
 376 0 l 2,1,2
 363 0 363 0 353 10 c 128,-1,3
 343 20 343 20 343 33 c 2,4,-1
 343 134 l 2,5,6
 343 148 343 148 353 157.5 c 128,-1,7
 363 167 363 167 376 167 c 2,8,-1
 587 167 l 1,9,-1
 694 274 l 1,10,-1
 694 1160 l 1,11,-1
 587 1266 l 1,12,-1
 376 1266 l 2,13,14
 363 1266 363 1266 353 1276 c 128,-1,15
 343 1286 343 1286 343 1300 c 2,16,-1
 343 1400 l 2,17,18
 343 1414 343 1414 353 1424 c 128,-1,19
 363 1434 363 1434 376 1434 c 2,20,-1
 622 1434 l 2,21,22
 655 1434 655 1434 681 1409 c 2,23,-1
 837 1254 l 2,24,25
 861 1228 861 1228 861 1195 c 2,26,-1
 861 239 l 2,27,28
 861 206 861 206 837 180 c 2,29,-1
 681 24 l 2,30,31
 655 0 655 0 622 0 c 2,0,-1
226 0 m 2,32,-1
 125 0 l 2,33,34
 112 0 112 0 102 10 c 128,-1,35
 92 20 92 20 92 33 c 2,36,-1
 92 1400 l 2,37,38
 92 1414 92 1414 102 1424 c 128,-1,39
 112 1434 112 1434 125 1434 c 2,40,-1
 226 1434 l 2,41,42
 240 1434 240 1434 249.5 1424 c 128,-1,43
 259 1414 259 1414 259 1400 c 2,44,-1
 259 33 l 2,45,46
 259 20 259 20 249.5 10 c 128,-1,47
 240 0 240 0 226 0 c 2,32,-1
EndSplineSet
EndChar

StartChar: E
Encoding: 69 69 40
Width: 844
GlyphClass: 2
Flags: W
LayerCount: 2
Fore
SplineSet
226 0 m 2,0,-1
 125 0 l 2,1,2
 112 0 112 0 102 10 c 128,-1,3
 92 20 92 20 92 33 c 2,4,-1
 92 1400 l 2,5,6
 92 1414 92 1414 102 1424 c 128,-1,7
 112 1434 112 1434 125 1434 c 2,8,-1
 226 1434 l 2,9,10
 240 1434 240 1434 249.5 1424 c 128,-1,11
 259 1414 259 1414 259 1400 c 2,12,-1
 259 33 l 2,13,14
 259 20 259 20 249.5 10 c 128,-1,15
 240 0 240 0 226 0 c 2,0,-1
728 1266 m 2,16,-1
 376 1266 l 2,17,18
 363 1266 363 1266 353 1276 c 128,-1,19
 343 1286 343 1286 343 1300 c 2,20,-1
 343 1400 l 2,21,22
 343 1414 343 1414 353 1424 c 128,-1,23
 363 1434 363 1434 376 1434 c 2,24,-1
 728 1434 l 2,25,26
 742 1434 742 1434 751.5 1424 c 128,-1,27
 761 1414 761 1414 761 1400 c 2,28,-1
 761 1300 l 2,29,30
 761 1286 761 1286 751.5 1276 c 128,-1,31
 742 1266 742 1266 728 1266 c 2,16,-1
632 633 m 2,32,-1
 376 633 l 2,33,34
 363 633 363 633 353 643 c 128,-1,35
 343 653 343 653 343 667 c 2,36,-1
 343 767 l 2,37,38
 343 781 343 781 353 790.5 c 128,-1,39
 363 800 363 800 376 800 c 2,40,-1
 632 800 l 2,41,42
 646 800 646 800 655.5 790.5 c 128,-1,43
 665 781 665 781 665 767 c 2,44,-1
 665 667 l 2,45,46
 665 653 665 653 655.5 643 c 128,-1,47
 646 633 646 633 632 633 c 2,32,-1
728 0 m 2,48,-1
 376 0 l 2,49,50
 363 0 363 0 353 10 c 128,-1,51
 343 20 343 20 343 33 c 2,52,-1
 343 134 l 2,53,54
 343 148 343 148 353 157.5 c 128,-1,55
 363 167 363 167 376 167 c 2,56,-1
 728 167 l 2,57,58
 742 167 742 167 751.5 157.5 c 128,-1,59
 761 148 761 148 761 134 c 2,60,-1
 761 33 l 2,61,62
 761 20 761 20 751.5 10 c 128,-1,63
 742 0 742 0 728 0 c 2,48,-1
EndSplineSet
EndChar

StartChar: F
Encoding: 70 70 41
Width: 844
GlyphClass: 2
Flags: W
LayerCount: 2
Fore
SplineSet
226 0 m 2,0,-1
 125 0 l 2,1,2
 112 0 112 0 102 10 c 128,-1,3
 92 20 92 20 92 33 c 2,4,-1
 92 1400 l 2,5,6
 92 1414 92 1414 102 1424 c 128,-1,7
 112 1434 112 1434 125 1434 c 2,8,-1
 226 1434 l 2,9,10
 240 1434 240 1434 249.5 1424 c 128,-1,11
 259 1414 259 1414 259 1400 c 2,12,-1
 259 33 l 2,13,14
 259 20 259 20 249.5 10 c 128,-1,15
 240 0 240 0 226 0 c 2,0,-1
728 1266 m 2,16,-1
 376 1266 l 2,17,18
 363 1266 363 1266 353 1276 c 128,-1,19
 343 1286 343 1286 343 1300 c 2,20,-1
 343 1400 l 2,21,22
 343 1414 343 1414 353 1424 c 128,-1,23
 363 1434 363 1434 376 1434 c 2,24,-1
 728 1434 l 2,25,26
 742 1434 742 1434 751.5 1424 c 128,-1,27
 761 1414 761 1414 761 1400 c 2,28,-1
 761 1300 l 2,29,30
 761 1286 761 1286 751.5 1276 c 128,-1,31
 742 1266 742 1266 728 1266 c 2,16,-1
632 633 m 2,32,-1
 376 633 l 2,33,34
 363 633 363 633 353 643 c 128,-1,35
 343 653 343 653 343 667 c 2,36,-1
 343 767 l 2,37,38
 343 781 343 781 353 790.5 c 128,-1,39
 363 800 363 800 376 800 c 2,40,-1
 632 800 l 2,41,42
 646 800 646 800 655.5 790.5 c 128,-1,43
 665 781 665 781 665 767 c 2,44,-1
 665 667 l 2,45,46
 665 653 665 653 655.5 643 c 128,-1,47
 646 633 646 633 632 633 c 2,32,-1
EndSplineSet
EndChar

StartChar: G
Encoding: 71 71 42
Width: 981
GlyphClass: 2
Flags: W
LayerCount: 2
Fore
SplineSet
854 1051 m 2,0,-1
 754 1051 l 2,1,2
 740 1051 740 1051 730 1061 c 128,-1,3
 720 1071 720 1071 720 1085 c 2,4,-1
 720 1160 l 1,5,-1
 614 1266 l 1,6,-1
 565 1266 l 2,7,8
 552 1266 552 1266 542 1276 c 128,-1,9
 532 1286 532 1286 532 1300 c 2,10,-1
 532 1400 l 2,11,12
 532 1414 532 1414 542 1424 c 128,-1,13
 552 1434 552 1434 565 1434 c 2,14,-1
 649 1434 l 2,15,16
 682 1434 682 1434 708 1409 c 2,17,-1
 863 1254 l 2,18,19
 888 1228 888 1228 888 1195 c 2,20,-1
 888 1085 l 2,21,22
 888 1071 888 1071 878 1061 c 128,-1,23
 868 1051 868 1051 854 1051 c 2,0,-1
415 0 m 2,24,-1
 331 0 l 2,25,26
 298 0 298 0 272 24 c 2,27,-1
 117 180 l 2,28,29
 92 206 92 206 92 239 c 2,30,-1
 92 1195 l 2,31,32
 92 1228 92 1228 117 1254 c 2,33,-1
 272 1409 l 2,34,35
 298 1434 298 1434 331 1434 c 2,36,-1
 415 1434 l 2,37,38
 429 1434 429 1434 438.5 1424 c 128,-1,39
 448 1414 448 1414 448 1400 c 2,40,-1
 448 1300 l 2,41,42
 448 1286 448 1286 438.5 1276 c 128,-1,43
 429 1266 429 1266 415 1266 c 2,44,-1
 366 1266 l 1,45,-1
 259 1160 l 1,46,-1
 259 274 l 1,47,-1
 366 167 l 1,48,-1
 415 167 l 2,49,50
 429 167 429 167 438.5 157.5 c 128,-1,51
 448 148 448 148 448 134 c 2,52,-1
 448 33 l 2,53,54
 448 20 448 20 438.5 10 c 128,-1,55
 429 0 429 0 415 0 c 2,24,-1
649 0 m 2,56,-1
 565 0 l 2,57,58
 552 0 552 0 542 10 c 128,-1,59
 532 20 532 20 532 33 c 2,60,-1
 532 134 l 2,61,62
 532 148 532 148 542 157.5 c 128,-1,63
 552 167 552 167 565 167 c 2,64,-1
 614 167 l 1,65,-1
 720 274 l 1,66,-1
 720 633 l 1,67,-1
 565 633 l 2,68,69
 552 633 552 633 542 643 c 128,-1,70
 532 653 532 653 532 667 c 2,71,-1
 532 767 l 2,72,73
 532 781 532 781 542 790.5 c 128,-1,74
 552 800 552 800 565 800 c 2,75,-1
 854 800 l 2,76,77
 867 800 867 800 877.5 791.5 c 128,-1,78
 888 783 888 783 888 767 c 2,79,-1
 888 239 l 2,80,81
 888 206 888 206 863 180 c 2,82,-1
 708 24 l 2,83,84
 682 0 682 0 649 0 c 2,56,-1
EndSplineSet
EndChar

StartChar: H
Encoding: 72 72 43
Width: 950
GlyphClass: 2
Flags: W
LayerCount: 2
Fore
SplineSet
226 0 m 2,0,-1
 125 0 l 2,1,2
 112 0 112 0 102 10 c 128,-1,3
 92 20 92 20 92 33 c 2,4,-1
 92 1400 l 2,5,6
 92 1414 92 1414 102 1424 c 128,-1,7
 112 1434 112 1434 125 1434 c 2,8,-1
 226 1434 l 2,9,10
 240 1434 240 1434 249.5 1424 c 128,-1,11
 259 1414 259 1414 259 1400 c 2,12,-1
 259 800 l 1,13,-1
 399 800 l 2,14,15
 413 800 413 800 422.5 790.5 c 128,-1,16
 432 781 432 781 432 767 c 2,17,-1
 432 667 l 2,18,19
 432 653 432 653 422.5 643 c 128,-1,20
 413 633 413 633 399 633 c 2,21,-1
 259 633 l 1,22,-1
 259 33 l 2,23,24
 259 20 259 20 249.5 10 c 128,-1,25
 240 0 240 0 226 0 c 2,0,-1
823 0 m 2,26,-1
 723 0 l 2,27,28
 709 0 709 0 699 10 c 128,-1,29
 689 20 689 20 689 33 c 2,30,-1
 689 633 l 1,31,-1
 550 633 l 2,32,33
 536 633 536 633 526 643 c 128,-1,34
 516 653 516 653 516 667 c 2,35,-1
 516 767 l 2,36,37
 516 781 516 781 526 790.5 c 128,-1,38
 536 800 536 800 550 800 c 2,39,-1
 689 800 l 1,40,-1
 689 1400 l 2,41,42
 689 1414 689 1414 699 1424 c 128,-1,43
 709 1434 709 1434 723 1434 c 2,44,-1
 823 1434 l 2,45,46
 837 1434 837 1434 847 1424 c 128,-1,47
 857 1414 857 1414 857 1400 c 2,48,-1
 857 33 l 2,49,50
 857 20 857 20 847 10 c 128,-1,51
 837 0 837 0 823 0 c 2,26,-1
EndSplineSet
EndChar

StartChar: I
Encoding: 73 73 44
Width: 352
GlyphClass: 2
Flags: W
LayerCount: 2
Fore
SplineSet
226 0 m 2,0,-1
 125 0 l 2,1,2
 112 0 112 0 102 10 c 128,-1,3
 92 20 92 20 92 33 c 2,4,-1
 92 1400 l 2,5,6
 92 1414 92 1414 102 1424 c 128,-1,7
 112 1434 112 1434 125 1434 c 2,8,-1
 226 1434 l 2,9,10
 240 1434 240 1434 249.5 1424 c 128,-1,11
 259 1414 259 1414 259 1400 c 2,12,-1
 259 33 l 2,13,14
 259 20 259 20 249.5 10 c 128,-1,15
 240 0 240 0 226 0 c 2,0,-1
EndSplineSet
EndChar

StartChar: J
Encoding: 74 74 45
Width: 902
GlyphClass: 2
Flags: W
LayerCount: 2
Fore
SplineSet
570 0 m 2,0,-1
 510 0 l 2,1,2
 496 0 496 0 486.5 10 c 128,-1,3
 477 20 477 20 477 33 c 2,4,-1
 477 134 l 2,5,6
 477 148 477 148 486.5 157.5 c 128,-1,7
 496 167 496 167 510 167 c 2,8,-1
 536 167 l 1,9,-1
 642 274 l 1,10,-1
 642 1400 l 2,11,12
 642 1414 642 1414 652 1424 c 128,-1,13
 662 1434 662 1434 675 1434 c 2,14,-1
 776 1434 l 2,15,16
 790 1434 790 1434 799.5 1424 c 128,-1,17
 809 1414 809 1414 809 1400 c 2,18,-1
 809 239 l 2,19,20
 809 206 809 206 785 180 c 2,21,-1
 629 24 l 2,22,23
 605 0 605 0 570 0 c 2,0,-1
359 0 m 2,24,-1
 299 0 l 2,25,26
 266 0 266 0 240 24 c 2,27,-1
 84 180 l 2,28,29
 60 206 60 206 60 239 c 2,30,-1
 60 349 l 2,31,32
 60 363 60 363 70 372.5 c 128,-1,33
 80 382 80 382 93 382 c 2,34,-1
 194 382 l 2,35,36
 208 382 208 382 217.5 372.5 c 128,-1,37
 227 363 227 363 227 349 c 2,38,-1
 227 274 l 1,39,-1
 334 167 l 1,40,-1
 359 167 l 2,41,42
 373 167 373 167 383 157.5 c 128,-1,43
 393 148 393 148 393 134 c 2,44,-1
 393 33 l 2,45,46
 393 20 393 20 383 10 c 128,-1,47
 373 0 373 0 359 0 c 2,24,-1
EndSplineSet
EndChar

StartChar: K
Encoding: 75 75 46
Width: 899
GlyphClass: 2
Flags: W
LayerCount: 2
Fore
SplineSet
832 0 m 2,0,-1
 706 0 l 2,1,2
 693 0 693 0 680.5 8 c 128,-1,3
 668 16 668 16 662 28 c 2,4,-1
 358 583 l 2,5,6
 350 597 350 597 346.5 609.5 c 128,-1,7
 343 622 343 622 343 643 c 2,8,-1
 343 951 l 2,9,10
 343 970 343 970 347 981 c 128,-1,11
 351 992 351 992 358 1003 c 2,12,-1
 631 1405 l 2,13,14
 638 1416 638 1416 650 1425 c 128,-1,15
 662 1434 662 1434 676 1434 c 2,16,-1
 801 1434 l 2,17,18
 812 1434 812 1434 819 1428.5 c 128,-1,19
 826 1423 826 1423 826 1415 c 0,20,21
 826 1411 826 1411 823 1405 c 2,22,-1
 423 815 l 1,23,-1
 854 28 l 2,24,25
 856 25 856 25 856 19 c 0,26,27
 856 11 856 11 849.5 5.5 c 128,-1,28
 843 0 843 0 832 0 c 2,0,-1
226 0 m 2,29,-1
 125 0 l 2,30,31
 112 0 112 0 102 10 c 128,-1,32
 92 20 92 20 92 33 c 2,33,-1
 92 1400 l 2,34,35
 92 1414 92 1414 102 1424 c 128,-1,36
 112 1434 112 1434 125 1434 c 2,37,-1
 226 1434 l 2,38,39
 240 1434 240 1434 249.5 1424 c 128,-1,40
 259 1414 259 1414 259 1400 c 2,41,-1
 259 33 l 2,42,43
 259 20 259 20 249.5 10 c 128,-1,44
 240 0 240 0 226 0 c 2,29,-1
EndSplineSet
EndChar

StartChar: L
Encoding: 76 76 47
Width: 865
GlyphClass: 2
Flags: W
LayerCount: 2
Fore
SplineSet
226 0 m 2,0,-1
 125 0 l 2,1,2
 112 0 112 0 102 10 c 128,-1,3
 92 20 92 20 92 33 c 2,4,-1
 92 1400 l 2,5,6
 92 1414 92 1414 102 1424 c 128,-1,7
 112 1434 112 1434 125 1434 c 2,8,-1
 226 1434 l 2,9,10
 240 1434 240 1434 249.5 1424 c 128,-1,11
 259 1414 259 1414 259 1400 c 2,12,-1
 259 33 l 2,13,14
 259 20 259 20 249.5 10 c 128,-1,15
 240 0 240 0 226 0 c 2,0,-1
751 0 m 2,16,-1
 376 0 l 2,17,18
 363 0 363 0 353 10 c 128,-1,19
 343 20 343 20 343 33 c 2,20,-1
 343 134 l 2,21,22
 343 148 343 148 353 157.5 c 128,-1,23
 363 167 363 167 376 167 c 2,24,-1
 751 167 l 2,25,26
 765 167 765 167 775 157.5 c 128,-1,27
 785 148 785 148 785 134 c 2,28,-1
 785 33 l 2,29,30
 785 20 785 20 775 10 c 128,-1,31
 765 0 765 0 751 0 c 2,16,-1
EndSplineSet
EndChar

StartChar: M
Encoding: 77 77 48
Width: 1190
GlyphClass: 2
Flags: W
LayerCount: 2
Fore
SplineSet
645 0 m 2,0,-1
 542 0 l 2,1,2
 528 0 528 0 516 8.5 c 128,-1,3
 504 17 504 17 500 30 c 0,4,5
 93 1403 93 1403 92 1411 c 0,6,7
 92 1431 92 1431 118 1434 c 2,8,-1
 227 1434 l 2,9,10
 245 1434 245 1434 256 1416 c 0,11,12
 261 1410 261 1410 263 1403 c 0,13,14
 669 30 669 30 670 22 c 0,15,16
 670 3 670 3 645 0 c 2,0,-1
1063 0 m 2,17,-1
 963 0 l 2,18,19
 949 0 949 0 939 10 c 128,-1,20
 929 20 929 20 929 33 c 2,21,-1
 929 838 l 1,22,-1
 731 166 l 2,23,24
 723 146 723 146 711 146 c 256,25,26
 699 146 699 146 692 163 c 2,27,-1
 641 334 l 2,28,29
 632 363 632 363 632 387 c 0,30,31
 632 404 632 404 637 423 c 2,32,-1
 926 1403 l 2,33,34
 938 1434 938 1434 963 1434 c 2,35,-1
 1071 1434 l 2,36,37
 1083 1434 1083 1434 1090 1427.5 c 128,-1,38
 1097 1421 1097 1421 1097 1412 c 0,39,40
 1096 1404 1096 1404 1096 33 c 0,41,42
 1096 20 1096 20 1086.5 10 c 128,-1,43
 1077 0 1077 0 1063 0 c 2,17,-1
227 0 m 2,44,-1
 126 0 l 2,45,46
 113 0 113 0 103 10 c 128,-1,47
 93 20 93 20 93 33 c 2,48,-1
 93 1030 l 2,49,50
 93 1044 93 1044 99.5 1051.5 c 128,-1,51
 106 1059 106 1059 115 1060 c 0,52,53
 126 1060 126 1060 133 1044 c 2,54,-1
 247 656 l 2,55,56
 260 616 260 616 260 563 c 2,57,-1
 260 33 l 2,58,59
 260 20 260 20 250.5 10 c 128,-1,60
 241 0 241 0 227 0 c 2,44,-1
EndSplineSet
EndChar

StartChar: N
Encoding: 78 78 49
Width: 930
GlyphClass: 2
Flags: W
LayerCount: 2
Fore
SplineSet
814 0 m 2,0,-1
 713 0 l 2,1,2
 700 0 700 0 687 8 c 128,-1,3
 674 16 674 16 668 28 c 0,4,5
 94 1406 94 1406 92 1415 c 0,6,7
 92 1432 92 1432 116 1434 c 2,8,-1
 216 1434 l 2,9,10
 230 1434 230 1434 243 1426 c 128,-1,11
 256 1418 256 1418 261 1406 c 2,12,-1
 835 28 l 2,13,14
 837 25 837 25 837 18 c 0,15,16
 837 2 837 2 814 0 c 2,0,-1
815 261 m 0,17,18
 805 261 805 261 798 277 c 2,19,-1
 683 552 l 2,20,21
 674 575 674 575 672 597.5 c 128,-1,22
 670 620 670 620 670 645 c 2,23,-1
 670 1400 l 2,24,25
 670 1414 670 1414 680 1424 c 128,-1,26
 690 1434 690 1434 704 1434 c 2,27,-1
 804 1434 l 2,28,29
 818 1434 818 1434 827.5 1424 c 128,-1,30
 837 1414 837 1414 837 1400 c 2,31,-1
 837 291 l 2,32,33
 837 278 837 278 830 269.5 c 128,-1,34
 823 261 823 261 815 261 c 0,17,18
226 0 m 2,35,-1
 125 0 l 2,36,37
 112 0 112 0 102 10 c 128,-1,38
 92 20 92 20 92 33 c 2,39,-1
 92 1134 l 2,40,41
 92 1148 92 1148 99 1156 c 128,-1,42
 106 1164 106 1164 114 1164 c 0,43,44
 125 1164 125 1164 132 1148 c 2,45,-1
 246 873 l 2,46,47
 255 850 255 850 257 828 c 128,-1,48
 259 806 259 806 259 33 c 0,49,50
 259 20 259 20 249.5 10 c 128,-1,51
 240 0 240 0 226 0 c 2,35,-1
EndSplineSet
EndChar

StartChar: O
Encoding: 79 79 50
Width: 981
GlyphClass: 2
Flags: W
LayerCount: 2
Fore
SplineSet
415 0 m 2,0,-1
 331 0 l 2,1,2
 298 0 298 0 272 24 c 2,3,-1
 116 180 l 2,4,5
 92 206 92 206 92 239 c 2,6,-1
 92 1195 l 2,7,8
 92 1228 92 1228 116 1254 c 2,9,-1
 272 1409 l 2,10,11
 298 1434 298 1434 331 1434 c 2,12,-1
 415 1434 l 2,13,14
 429 1434 429 1434 438.5 1424 c 128,-1,15
 448 1414 448 1414 448 1400 c 2,16,-1
 448 1300 l 2,17,18
 448 1286 448 1286 438.5 1276 c 128,-1,19
 429 1266 429 1266 415 1266 c 2,20,-1
 366 1266 l 1,21,-1
 259 1160 l 1,22,-1
 259 274 l 1,23,-1
 366 167 l 1,24,-1
 415 167 l 2,25,26
 429 167 429 167 438.5 157.5 c 128,-1,27
 448 148 448 148 448 134 c 2,28,-1
 448 33 l 2,29,30
 448 20 448 20 438.5 10 c 128,-1,31
 429 0 429 0 415 0 c 2,0,-1
649 0 m 2,32,-1
 565 0 l 2,33,34
 552 0 552 0 542 10 c 128,-1,35
 532 20 532 20 532 33 c 2,36,-1
 532 134 l 2,37,38
 532 148 532 148 542 157.5 c 128,-1,39
 552 167 552 167 565 167 c 2,40,-1
 614 167 l 1,41,-1
 720 274 l 1,42,-1
 720 1160 l 1,43,-1
 614 1266 l 1,44,-1
 565 1266 l 2,45,46
 552 1266 552 1266 542 1276 c 128,-1,47
 532 1286 532 1286 532 1300 c 2,48,-1
 532 1400 l 2,49,50
 532 1414 532 1414 542 1424 c 128,-1,51
 552 1434 552 1434 565 1434 c 2,52,-1
 649 1434 l 2,53,54
 682 1434 682 1434 708 1409 c 2,55,-1
 863 1254 l 2,56,57
 888 1228 888 1228 888 1195 c 2,58,-1
 888 239 l 2,59,60
 888 206 888 206 863 180 c 2,61,-1
 708 24 l 2,62,63
 682 0 682 0 649 0 c 2,32,-1
EndSplineSet
EndChar

StartChar: P
Encoding: 80 80 51
Width: 941
GlyphClass: 2
Flags: W
LayerCount: 2
Fore
SplineSet
622 633 m 2,0,-1
 376 633 l 2,1,2
 363 633 363 633 353 643 c 128,-1,3
 343 653 343 653 343 667 c 2,4,-1
 343 767 l 2,5,6
 343 781 343 781 353 790.5 c 128,-1,7
 363 800 363 800 376 800 c 2,8,-1
 587 800 l 1,9,-1
 694 907 l 1,10,-1
 694 1160 l 1,11,-1
 587 1266 l 1,12,-1
 376 1266 l 2,13,14
 363 1266 363 1266 353 1276 c 128,-1,15
 343 1286 343 1286 343 1300 c 2,16,-1
 343 1400 l 2,17,18
 343 1414 343 1414 353 1424 c 128,-1,19
 363 1434 363 1434 376 1434 c 2,20,-1
 622 1434 l 2,21,22
 655 1434 655 1434 681 1409 c 2,23,-1
 837 1254 l 2,24,25
 861 1228 861 1228 861 1195 c 2,26,-1
 861 872 l 2,27,28
 861 839 861 839 837 813 c 2,29,-1
 681 658 l 2,30,31
 655 633 655 633 622 633 c 2,0,-1
226 0 m 2,32,-1
 125 0 l 2,33,34
 112 0 112 0 102 10 c 128,-1,35
 92 20 92 20 92 33 c 2,36,-1
 92 1400 l 2,37,38
 92 1414 92 1414 102 1424 c 128,-1,39
 112 1434 112 1434 125 1434 c 2,40,-1
 226 1434 l 2,41,42
 240 1434 240 1434 249.5 1424 c 128,-1,43
 259 1414 259 1414 259 1400 c 2,44,-1
 259 33 l 2,45,46
 259 20 259 20 249.5 10 c 128,-1,47
 240 0 240 0 226 0 c 2,32,-1
EndSplineSet
EndChar

StartChar: Q
Encoding: 81 81 52
Width: 978
GlyphClass: 2
Flags: W
LayerCount: 2
Fore
SplineSet
853 -80 m 0,0,1
 840 -80 840 -80 829 -70 c 2,2,-1
 721 38 l 1,3,4
 705 19 705 19 689.5 9.5 c 128,-1,5
 674 0 674 0 648 0 c 2,6,-1
 565 0 l 2,7,8
 551 0 551 0 541 10 c 128,-1,9
 531 20 531 20 531 33 c 2,10,-1
 531 134 l 2,11,12
 531 148 531 148 541 157.5 c 128,-1,13
 551 167 551 167 565 167 c 2,14,-1
 592 167 l 1,15,-1
 522 238 l 2,16,17
 512 249 512 249 512 261 c 0,18,19
 512 275 512 275 522 285 c 2,20,-1
 593 356 l 2,21,22
 604 366 604 366 617 366 c 0,23,24
 629 366 629 366 640 356 c 2,25,-1
 720 276 l 1,26,-1
 720 1160 l 1,27,-1
 614 1266 l 1,28,-1
 565 1266 l 2,29,30
 551 1266 551 1266 541 1276 c 128,-1,31
 531 1286 531 1286 531 1300 c 2,32,-1
 531 1400 l 2,33,34
 531 1414 531 1414 541 1424 c 128,-1,35
 551 1434 551 1434 565 1434 c 2,36,-1
 648 1434 l 2,37,38
 683 1434 683 1434 708 1409 c 2,39,-1
 863 1254 l 2,40,41
 887 1228 887 1228 887 1195 c 2,42,-1
 887 239 l 2,43,44
 887 211 887 211 877.5 196.5 c 128,-1,45
 868 182 868 182 849 166 c 2,46,-1
 840 157 l 1,47,-1
 948 49 l 2,48,49
 958 39 958 39 958 25 c 0,50,51
 958 12 958 12 948 1 c 2,52,-1
 877 -70 l 2,53,54
 865 -80 865 -80 853 -80 c 0,0,1
414 0 m 2,55,-1
 331 0 l 2,56,57
 298 0 298 0 272 24 c 2,58,-1
 116 179 l 2,59,60
 92 206 92 206 92 239 c 2,61,-1
 92 1194 l 2,62,63
 92 1229 92 1229 116 1254 c 2,64,-1
 272 1409 l 2,65,66
 298 1433 298 1433 331 1433 c 2,67,-1
 414 1433 l 2,68,69
 428 1433 428 1433 438 1423.5 c 128,-1,70
 448 1414 448 1414 448 1400 c 2,71,-1
 448 1300 l 2,72,73
 448 1286 448 1286 438 1276 c 128,-1,74
 428 1266 428 1266 414 1266 c 2,75,-1
 366 1266 l 1,76,-1
 259 1160 l 1,77,-1
 259 273 l 1,78,-1
 366 167 l 1,79,-1
 414 167 l 2,80,81
 428 167 428 167 438 157.5 c 128,-1,82
 448 148 448 148 448 134 c 2,83,-1
 448 33 l 2,84,85
 448 20 448 20 438 10 c 128,-1,86
 428 0 428 0 414 0 c 2,55,-1
EndSplineSet
EndChar

StartChar: R
Encoding: 82 82 53
Width: 947
GlyphClass: 2
Flags: W
LayerCount: 2
Fore
SplineSet
875 0 m 2,0,-1
 754 0 l 2,1,2
 740 0 740 0 726.5 8 c 128,-1,3
 713 16 713 16 707 28 c 2,4,-1
 424 633 l 1,5,-1
 376 633 l 2,6,7
 363 633 363 633 353 643 c 128,-1,8
 343 653 343 653 343 667 c 2,9,-1
 343 767 l 2,10,11
 343 781 343 781 353 790.5 c 128,-1,12
 363 800 363 800 376 800 c 2,13,-1
 588 800 l 1,14,-1
 694 907 l 1,15,-1
 694 1160 l 1,16,-1
 588 1266 l 1,17,-1
 376 1266 l 2,18,19
 363 1266 363 1266 353 1276 c 128,-1,20
 343 1286 343 1286 343 1300 c 2,21,-1
 343 1400 l 2,22,23
 343 1414 343 1414 353 1424 c 128,-1,24
 363 1434 363 1434 376 1434 c 2,25,-1
 622 1434 l 2,26,27
 655 1434 655 1434 681 1409 c 2,28,-1
 837 1254 l 2,29,30
 861 1228 861 1228 861 1195 c 2,31,-1
 861 872 l 2,32,33
 861 839 861 839 837 813 c 2,34,-1
 681 658 l 2,35,36
 666 643 666 643 649.5 638 c 128,-1,37
 633 633 633 633 612 633 c 1,38,39
 895 28 895 28 896 25 c 128,-1,40
 897 22 897 22 897 18 c 0,41,42
 897 2 897 2 875 0 c 2,0,-1
226 0 m 2,43,-1
 125 0 l 2,44,45
 112 0 112 0 102 10 c 128,-1,46
 92 20 92 20 92 33 c 2,47,-1
 92 1400 l 2,48,49
 92 1414 92 1414 102 1424 c 128,-1,50
 112 1434 112 1434 125 1434 c 2,51,-1
 226 1434 l 2,52,53
 240 1434 240 1434 249.5 1424 c 128,-1,54
 259 1414 259 1414 259 1400 c 2,55,-1
 259 33 l 2,56,57
 259 20 259 20 249.5 10 c 128,-1,58
 240 0 240 0 226 0 c 2,43,-1
EndSplineSet
EndChar

StartChar: S
Encoding: 83 83 54
Width: 956
GlyphClass: 2
Flags: W
LayerCount: 2
Fore
SplineSet
843 1051 m 2,0,-1
 742 1051 l 2,1,2
 729 1051 729 1051 719 1061 c 128,-1,3
 709 1071 709 1071 709 1085 c 2,4,-1
 709 1160 l 1,5,-1
 602 1266 l 1,6,-1
 553 1266 l 2,7,8
 540 1266 540 1266 530 1276 c 128,-1,9
 520 1286 520 1286 520 1300 c 2,10,-1
 520 1400 l 2,11,12
 520 1414 520 1414 530 1424 c 128,-1,13
 540 1434 540 1434 553 1434 c 2,14,-1
 637 1434 l 2,15,16
 670 1434 670 1434 696 1409 c 2,17,-1
 851 1254 l 2,18,19
 876 1228 876 1228 876 1195 c 2,20,-1
 876 1085 l 2,21,22
 876 1071 876 1071 866.5 1061 c 128,-1,23
 857 1051 857 1051 843 1051 c 2,0,-1
415 664 m 0,24,25
 406 664 406 664 393 672 c 2,26,-1
 118 853 l 2,27,28
 80 880 80 880 80 923 c 2,29,-1
 80 1195 l 2,30,31
 80 1228 80 1228 105 1254 c 2,32,-1
 260 1409 l 2,33,34
 286 1434 286 1434 319 1434 c 2,35,-1
 403 1434 l 2,36,37
 417 1434 417 1434 426.5 1424 c 128,-1,38
 436 1414 436 1414 436 1400 c 2,39,-1
 436 1300 l 2,40,41
 436 1286 436 1286 426.5 1276 c 128,-1,42
 417 1266 417 1266 403 1266 c 2,43,-1
 354 1266 l 1,44,-1
 248 1160 l 1,45,-1
 248 968 l 1,46,-1
 393 872 l 2,47,48
 424 852 424 852 430 837.5 c 128,-1,49
 436 823 436 823 436 807 c 2,50,-1
 436 688 l 2,51,52
 436 666 436 666 415 664 c 0,24,25
637 0 m 2,53,-1
 553 0 l 2,54,55
 540 0 540 0 530 10 c 128,-1,56
 520 20 520 20 520 33 c 2,57,-1
 520 134 l 2,58,59
 520 148 520 148 530 157.5 c 128,-1,60
 540 167 540 167 553 167 c 2,61,-1
 602 167 l 1,62,-1
 709 274 l 1,63,-1
 709 464 l 1,64,-1
 555 565 l 2,65,66
 520 589 520 589 520 633 c 2,67,-1
 520 752 l 2,68,69
 520 769 520 769 540 770 c 0,70,71
 548 769 548 769 559 762 c 2,72,-1
 838 579 l 2,73,74
 876 553 876 553 876 509 c 2,75,-1
 876 239 l 2,76,77
 876 206 876 206 851 180 c 2,78,-1
 696 24 l 2,79,80
 670 0 670 0 637 0 c 2,53,-1
403 0 m 2,81,-1
 319 0 l 2,82,83
 286 0 286 0 260 24 c 2,84,-1
 105 180 l 2,85,86
 80 206 80 206 80 239 c 2,87,-1
 80 349 l 2,88,89
 80 363 80 363 90 372.5 c 128,-1,90
 100 382 100 382 114 382 c 2,91,-1
 214 382 l 2,92,93
 228 382 228 382 238 372.5 c 128,-1,94
 248 363 248 363 248 349 c 2,95,-1
 248 274 l 1,96,-1
 354 167 l 1,97,-1
 403 167 l 2,98,99
 417 167 417 167 426.5 157.5 c 128,-1,100
 436 148 436 148 436 134 c 2,101,-1
 436 33 l 2,102,103
 436 20 436 20 426.5 10 c 128,-1,104
 417 0 417 0 403 0 c 2,81,-1
EndSplineSet
EndChar

StartChar: T
Encoding: 84 84 55
Width: 1000
GlyphClass: 2
Flags: W
LayerCount: 2
Fore
SplineSet
897 1266 m 2,0,-1
 103 1266 l 2,1,2
 90 1266 90 1266 80 1276 c 128,-1,3
 70 1286 70 1286 70 1300 c 2,4,-1
 70 1400 l 2,5,6
 70 1414 70 1414 80 1424 c 128,-1,7
 90 1434 90 1434 103 1434 c 2,8,-1
 897 1434 l 2,9,10
 911 1434 911 1434 920.5 1424 c 128,-1,11
 930 1414 930 1414 930 1400 c 2,12,-1
 930 1300 l 2,13,14
 930 1286 930 1286 920.5 1276 c 128,-1,15
 911 1266 911 1266 897 1266 c 2,0,-1
550 0 m 2,16,-1
 450 0 l 2,17,18
 436 0 436 0 426.5 10 c 128,-1,19
 417 20 417 20 417 33 c 2,20,-1
 417 1149 l 2,21,22
 417 1163 417 1163 426.5 1173 c 128,-1,23
 436 1183 436 1183 450 1183 c 2,24,-1
 550 1183 l 2,25,26
 564 1183 564 1183 574 1173 c 128,-1,27
 584 1163 584 1163 584 1149 c 2,28,-1
 584 33 l 2,29,30
 584 20 584 20 574 10 c 128,-1,31
 564 0 564 0 550 0 c 2,16,-1
EndSplineSet
EndChar

StartChar: U
Encoding: 85 85 56
Width: 950
GlyphClass: 2
Flags: W
LayerCount: 2
Fore
SplineSet
618 0 m 2,0,-1
 550 0 l 2,1,2
 536 0 536 0 526 10 c 128,-1,3
 516 20 516 20 516 33 c 2,4,-1
 516 134 l 2,5,6
 516 148 516 148 526 157.5 c 128,-1,7
 536 167 536 167 550 167 c 2,8,-1
 583 167 l 1,9,-1
 689 274 l 1,10,-1
 689 1400 l 2,11,12
 689 1414 689 1414 699 1424 c 128,-1,13
 709 1434 709 1434 723 1434 c 2,14,-1
 823 1434 l 2,15,16
 837 1434 837 1434 847 1424 c 128,-1,17
 857 1414 857 1414 857 1400 c 2,18,-1
 857 239 l 2,19,20
 857 206 857 206 832 180 c 2,21,-1
 677 24 l 2,22,23
 651 0 651 0 618 0 c 2,0,-1
399 0 m 2,24,-1
 331 0 l 2,25,26
 298 0 298 0 272 24 c 2,27,-1
 116 180 l 2,28,29
 92 206 92 206 92 239 c 2,30,-1
 92 1400 l 2,31,32
 92 1414 92 1414 102 1424 c 128,-1,33
 112 1434 112 1434 125 1434 c 2,34,-1
 226 1434 l 2,35,36
 240 1434 240 1434 249.5 1424 c 128,-1,37
 259 1414 259 1414 259 1400 c 2,38,-1
 259 274 l 1,39,-1
 366 167 l 1,40,-1
 399 167 l 2,41,42
 413 167 413 167 422.5 157.5 c 128,-1,43
 432 148 432 148 432 134 c 2,44,-1
 432 33 l 2,45,46
 432 20 432 20 422.5 10 c 128,-1,47
 413 0 413 0 399 0 c 2,24,-1
EndSplineSet
EndChar

StartChar: V
Encoding: 86 86 57
Width: 853
GlyphClass: 2
Flags: W
LayerCount: 2
Fore
SplineSet
477 0 m 2,0,-1
 377 0 l 2,1,2
 363 0 363 0 351 9 c 128,-1,3
 339 18 339 18 336 32 c 2,4,-1
 50 1408 l 1,5,6
 50 1431 50 1431 78 1434 c 2,7,-1
 178 1434 l 2,8,9
 192 1434 192 1434 203.5 1424.5 c 128,-1,10
 215 1415 215 1415 218 1402 c 0,11,12
 504 32 504 32 504 27 c 0,13,14
 504 3 504 3 477 0 c 2,0,-1
555 290 m 0,15,16
 537 290 537 290 525 338 c 2,17,-1
 484 538 l 2,18,19
 474 577 474 577 474 607 c 0,20,21
 474 633 474 633 482 665 c 2,22,-1
 635 1402 l 2,23,24
 638 1415 638 1415 650 1424.5 c 128,-1,25
 662 1434 662 1434 675 1434 c 2,26,-1
 775 1434 l 2,27,28
 787 1434 787 1434 795 1426.5 c 128,-1,29
 803 1419 803 1419 803 1408 c 2,30,-1
 578 325 l 2,31,32
 569 290 569 290 555 290 c 0,15,16
EndSplineSet
EndChar

StartChar: W
Encoding: 87 87 58
Width: 1450
GlyphClass: 2
Flags: W
LayerCount: 2
Fore
SplineSet
477 0 m 2,0,-1
 377 0 l 2,1,2
 363 0 363 0 351.5 9 c 128,-1,3
 340 18 340 18 337 32 c 2,4,-1
 50 1408 l 1,5,6
 50 1431 50 1431 78 1434 c 2,7,-1
 178 1434 l 2,8,9
 192 1434 192 1434 203.5 1424.5 c 128,-1,10
 215 1415 215 1415 218 1402 c 0,11,12
 504 32 504 32 504 27 c 0,13,14
 504 3 504 3 477 0 c 2,0,-1
1074 0 m 2,15,-1
 974 0 l 2,16,17
 960 0 960 0 948.5 9 c 128,-1,18
 937 18 937 18 934 32 c 2,19,-1
 725 1032 l 1,20,-1
 578 325 l 2,21,22
 569 290 569 290 555 290 c 0,23,24
 537 290 537 290 525 338 c 2,25,-1
 484 538 l 2,26,27
 474 577 474 577 474 607 c 0,28,29
 474 633 474 633 482 665 c 2,30,-1
 635 1402 l 2,31,32
 642 1426 642 1426 675 1434 c 1,33,-1
 776 1434 l 1,34,35
 810 1426 810 1426 815 1402 c 2,36,-1
 1102 25 l 2,37,38
 1102 15 1102 15 1094 7.5 c 128,-1,39
 1086 0 1086 0 1074 0 c 2,15,-1
1152 290 m 0,40,41
 1136 290 1136 290 1123 338 c 2,42,-1
 1081 538 l 2,43,44
 1071 577 1071 577 1071 607 c 0,45,46
 1071 633 1071 633 1079 665 c 2,47,-1
 1232 1402 l 2,48,49
 1235 1415 1235 1415 1247 1424.5 c 128,-1,50
 1259 1434 1259 1434 1272 1434 c 2,51,-1
 1373 1434 l 2,52,53
 1385 1434 1385 1434 1392.5 1426 c 128,-1,54
 1400 1418 1400 1418 1400 1407 c 0,55,56
 1400 1402 1400 1402 1175 325 c 0,57,58
 1166 290 1166 290 1152 290 c 0,40,41
EndSplineSet
EndChar

StartChar: X
Encoding: 88 88 59
Width: 892
GlyphClass: 2
Flags: W
LayerCount: 2
Fore
SplineSet
818 0 m 2,0,-1
 718 0 l 2,1,2
 700 0 700 0 687 11 c 0,3,4
 684 13 684 13 681 15.5 c 128,-1,5
 678 18 678 18 676 21 c 0,6,7
 672 28 672 28 52 1406 c 0,8,9
 50 1411 50 1411 50 1416 c 0,10,11
 50 1424 50 1424 56.5 1429 c 128,-1,12
 63 1434 63 1434 73 1434 c 2,13,-1
 173 1434 l 2,14,15
 187 1434 187 1434 200 1426 c 128,-1,16
 213 1418 213 1418 219 1406 c 0,17,18
 842 20 842 20 842 17 c 0,19,20
 842 2 842 2 818 0 c 2,0,-1
570 844 m 0,21,22
 560 844 560 844 552 861 c 2,23,-1
 507 961 l 2,24,25
 497 982 497 982 497 1000 c 0,26,27
 497 1020 497 1020 508 1042 c 2,28,-1
 672 1406 l 2,29,30
 678 1418 678 1418 691 1426 c 128,-1,31
 704 1434 704 1434 718 1434 c 2,32,-1
 818 1434 l 2,33,34
 841 1434 841 1434 842 1416 c 0,35,36
 842 1413 842 1413 605 885 c 0,37,38
 587 844 587 844 570 844 c 0,21,22
173 0 m 2,39,-1
 73 0 l 2,40,41
 52 0 52 0 50 17 c 0,42,43
 50 19 50 19 50.5 22.5 c 128,-1,44
 51 26 51 26 286 548 c 0,45,46
 306 590 306 590 322 590 c 0,47,48
 331 589 331 589 339 572 c 2,49,-1
 384 472 l 2,50,51
 394 452 394 452 394 434 c 0,52,53
 394 415 394 415 383 392 c 2,54,-1
 219 27 l 2,55,56
 213 15 213 15 200 7.5 c 128,-1,57
 187 0 187 0 173 0 c 2,39,-1
EndSplineSet
EndChar

StartChar: Y
Encoding: 89 89 60
Width: 847
GlyphClass: 2
Flags: W
LayerCount: 2
Fore
SplineSet
473 0 m 2,0,-1
 373 0 l 2,1,2
 360 0 360 0 350 10 c 128,-1,3
 340 20 340 20 340 33 c 2,4,-1
 340 646 l 1,5,6
 332 654 332 654 329 661 c 2,7,-1
 51 1406 l 2,8,9
 50 1409 50 1409 50 1414 c 0,10,11
 50 1422 50 1422 57 1428 c 128,-1,12
 64 1434 64 1434 75 1434 c 2,13,-1
 175 1434 l 2,14,15
 189 1434 189 1434 201.5 1426 c 128,-1,16
 214 1418 214 1418 219 1406 c 2,17,-1
 499 657 l 2,18,19
 507 643 507 643 507 618 c 2,20,-1
 507 33 l 2,21,22
 507 20 507 20 497 10 c 128,-1,23
 487 0 487 0 473 0 c 2,0,-1
551 783 m 0,24,25
 541 783 541 783 532 806 c 2,26,-1
 490 917 l 2,27,28
 478 949 478 949 478 977 c 0,29,30
 478 1004 478 1004 489 1033 c 2,31,-1
 628 1406 l 2,32,33
 633 1418 633 1418 645.5 1426 c 128,-1,34
 658 1434 658 1434 672 1434 c 2,35,-1
 772 1434 l 2,36,37
 796 1434 796 1434 797 1415 c 0,38,39
 795 1406 795 1406 573 811 c 0,40,41
 563 783 563 783 551 783 c 0,24,25
EndSplineSet
EndChar

StartChar: Z
Encoding: 90 90 61
Width: 930
GlyphClass: 2
Flags: W
LayerCount: 2
Fore
SplineSet
813 1266 m 2,0,-1
 115 1266 l 2,1,2
 102 1266 102 1266 92 1276 c 128,-1,3
 82 1286 82 1286 82 1300 c 2,4,-1
 82 1400 l 2,5,6
 82 1414 82 1414 92 1424 c 128,-1,7
 102 1434 102 1434 115 1434 c 2,8,-1
 813 1434 l 2,9,10
 827 1434 827 1434 837 1424 c 128,-1,11
 847 1414 847 1414 847 1400 c 2,12,-1
 847 1300 l 2,13,14
 847 1286 847 1286 837 1276 c 128,-1,15
 827 1266 827 1266 813 1266 c 2,0,-1
271 249 m 2,16,-1
 161 249 l 2,17,18
 139 249 139 249 137 263 c 0,19,20
 137 265 137 265 137 266 c 128,-1,21
 137 267 137 267 615 1162 c 0,22,23
 620 1171 620 1171 633 1177 c 128,-1,24
 646 1183 646 1183 660 1183 c 2,25,-1
 769 1183 l 2,26,27
 792 1183 792 1183 793 1168 c 0,28,29
 792 1162 792 1162 315 270 c 0,30,31
 310 261 310 261 297.5 255 c 128,-1,32
 285 249 285 249 271 249 c 2,16,-1
813 0 m 2,33,-1
 115 0 l 2,34,35
 102 0 102 0 92 10 c 128,-1,36
 82 20 82 20 82 33 c 2,37,-1
 82 134 l 2,38,39
 82 148 82 148 92 157.5 c 128,-1,40
 102 167 102 167 115 167 c 2,41,-1
 813 167 l 2,42,43
 827 167 827 167 837 157.5 c 128,-1,44
 847 148 847 148 847 134 c 2,45,-1
 847 33 l 2,46,47
 847 20 847 20 837 10 c 128,-1,48
 827 0 827 0 813 0 c 2,33,-1
EndSplineSet
EndChar

StartChar: bracketleft
Encoding: 91 91 62
Width: 442
GlyphClass: 2
Flags: W
LayerCount: 2
Fore
SplineSet
377 -180 m 2,0,-1
 176 -180 l 2,1,2
 141 -180 141 -180 116.5 -155.5 c 128,-1,3
 92 -131 92 -131 92 -96 c 2,4,-1
 92 1505 l 2,5,6
 92 1540 92 1540 116.5 1564 c 128,-1,7
 141 1588 141 1588 176 1588 c 2,8,-1
 377 1588 l 2,9,10
 391 1588 391 1588 400.5 1578.5 c 128,-1,11
 410 1569 410 1569 410 1555 c 2,12,-1
 410 1454 l 2,13,14
 410 1441 410 1441 400.5 1431 c 128,-1,15
 391 1421 391 1421 377 1421 c 2,16,-1
 259 1421 l 1,17,-1
 259 -13 l 1,18,-1
 377 -13 l 2,19,20
 391 -13 391 -13 400.5 -22.5 c 128,-1,21
 410 -32 410 -32 410 -46 c 2,22,-1
 410 -147 l 2,23,24
 410 -160 410 -160 400.5 -170 c 128,-1,25
 391 -180 391 -180 377 -180 c 2,0,-1
EndSplineSet
EndChar

StartChar: backslash
Encoding: 92 92 63
Width: 831
GlyphClass: 2
Flags: W
LayerCount: 2
Fore
SplineSet
717 0 m 2,0,-1
 617 0 l 2,1,2
 603 0 603 0 590 8.5 c 128,-1,3
 577 17 577 17 573 29 c 0,4,5
 92 1403 92 1403 90 1412 c 0,6,7
 90 1432 90 1432 115 1433 c 2,8,-1
 215 1433 l 2,9,10
 229 1433 229 1433 241.5 1424.5 c 128,-1,11
 254 1416 254 1416 259 1403 c 2,12,-1
 740 29 l 1,13,-1
 741 20 l 2,14,15
 741 12 741 12 734.5 6 c 128,-1,16
 728 0 728 0 717 0 c 2,0,-1
EndSplineSet
EndChar

StartChar: bracketright
Encoding: 93 93 64
Width: 442
GlyphClass: 2
Flags: W
LayerCount: 2
Fore
SplineSet
266 -180 m 2,0,-1
 64 -180 l 2,1,2
 51 -180 51 -180 41 -170 c 128,-1,3
 31 -160 31 -160 31 -147 c 2,4,-1
 31 -46 l 2,5,6
 31 -32 31 -32 41 -22.5 c 128,-1,7
 51 -13 51 -13 64 -13 c 2,8,-1
 182 -13 l 1,9,-1
 182 1421 l 1,10,-1
 64 1421 l 2,11,12
 51 1421 51 1421 41 1431 c 128,-1,13
 31 1441 31 1441 31 1454 c 2,14,-1
 31 1555 l 2,15,16
 31 1569 31 1569 41 1578.5 c 128,-1,17
 51 1588 51 1588 64 1588 c 2,18,-1
 266 1588 l 2,19,20
 301 1588 301 1588 325 1564 c 128,-1,21
 349 1540 349 1540 349 1505 c 2,22,-1
 349 -96 l 2,23,24
 349 -131 349 -131 325 -155.5 c 128,-1,25
 301 -180 301 -180 266 -180 c 2,0,-1
EndSplineSet
EndChar

StartChar: asciicircum
Encoding: 94 94 65
Width: 559
GlyphClass: 2
Flags: W
LayerCount: 2
Fore
SplineSet
496 1150 m 2,0,-1
 396 1150 l 2,1,2
 383 1150 383 1150 370 1158.5 c 128,-1,3
 357 1167 357 1167 353 1179 c 2,4,-1
 279 1389 l 1,5,-1
 206 1179 l 2,6,7
 201 1167 201 1167 188.5 1158.5 c 128,-1,8
 176 1150 176 1150 162 1150 c 2,9,-1
 62 1150 l 2,10,11
 40 1150 40 1150 37 1171 c 0,12,13
 38 1179 38 1179 185 1599 c 0,14,15
 190 1611 190 1611 202.5 1619.5 c 128,-1,16
 215 1628 215 1628 229 1628 c 2,17,-1
 329 1628 l 2,18,19
 343 1628 343 1628 355.5 1619.5 c 128,-1,20
 368 1611 368 1611 373 1599 c 0,21,22
 520 1179 520 1179 522 1171 c 0,23,24
 522 1153 522 1153 496 1150 c 2,0,-1
EndSplineSet
EndChar

StartChar: underscore
Encoding: 95 95 66
Width: 894
GlyphClass: 2
Flags: W
LayerCount: 2
Fore
SplineSet
825 -50 m 2,0,-1
 70 -50 l 2,1,2
 54 -50 54 -50 42.5 -40 c 128,-1,3
 31 -30 31 -30 31 -17 c 2,4,-1
 31 84 l 2,5,6
 31 98 31 98 42.5 107.5 c 128,-1,7
 54 117 54 117 70 117 c 2,8,-1
 825 117 l 2,9,10
 841 117 841 117 852.5 107.5 c 128,-1,11
 864 98 864 98 864 84 c 2,12,-1
 864 -17 l 2,13,14
 864 -30 864 -30 852.5 -40 c 128,-1,15
 841 -50 841 -50 825 -50 c 2,0,-1
EndSplineSet
EndChar

StartChar: grave
Encoding: 96 96 67
Width: 276
GlyphClass: 2
Flags: W
LayerCount: 2
Fore
SplineSet
224 1200 m 2,0,-1
 172 1200 l 2,1,2
 158 1200 158 1200 144.5 1207.5 c 128,-1,3
 131 1215 131 1215 125 1227 c 2,4,-1
 32 1413 l 2,5,6
 30 1418 30 1418 30 1422 c 0,7,8
 30 1437 30 1437 52 1439 c 2,9,-1
 105 1439 l 2,10,11
 119 1439 119 1439 132.5 1431.5 c 128,-1,12
 146 1424 146 1424 152 1413 c 0,13,14
 248 1221 248 1221 248 1217 c 0,15,16
 248 1202 248 1202 224 1200 c 2,0,-1
EndSplineSet
EndChar

StartChar: a
Encoding: 97 97 68
Width: 950
GlyphClass: 2
Flags: W
LayerCount: 2
Fore
SplineSet
823 0 m 2,0,-1
 723 0 l 2,1,2
 709 0 709 0 699 10 c 128,-1,3
 689 20 689 20 689 33 c 2,4,-1
 689 466 l 1,5,-1
 550 466 l 2,6,7
 536 466 536 466 526 476 c 128,-1,8
 516 486 516 486 516 499 c 2,9,-1
 516 600 l 2,10,11
 516 614 516 614 526 623.5 c 128,-1,12
 536 633 536 633 550 633 c 2,13,-1
 689 633 l 1,14,-1
 689 1160 l 1,15,-1
 583 1266 l 1,16,-1
 550 1266 l 2,17,18
 536 1266 536 1266 526 1276 c 128,-1,19
 516 1286 516 1286 516 1300 c 2,20,-1
 516 1400 l 2,21,22
 516 1414 516 1414 526 1424 c 128,-1,23
 536 1434 536 1434 550 1434 c 2,24,-1
 618 1434 l 2,25,26
 651 1434 651 1434 677 1409 c 2,27,-1
 832 1254 l 2,28,29
 857 1228 857 1228 857 1195 c 2,30,-1
 857 33 l 2,31,32
 857 20 857 20 847 10 c 128,-1,33
 837 0 837 0 823 0 c 2,0,-1
226 0 m 2,34,-1
 125 0 l 2,35,36
 112 0 112 0 102 10 c 128,-1,37
 92 20 92 20 92 33 c 2,38,-1
 92 1195 l 2,39,40
 92 1228 92 1228 116 1254 c 2,41,-1
 272 1409 l 2,42,43
 298 1434 298 1434 331 1434 c 2,44,-1
 399 1434 l 2,45,46
 413 1434 413 1434 422.5 1424 c 128,-1,47
 432 1414 432 1414 432 1400 c 2,48,-1
 432 1300 l 2,49,50
 432 1286 432 1286 422.5 1276 c 128,-1,51
 413 1266 413 1266 399 1266 c 2,52,-1
 366 1266 l 1,53,-1
 259 1160 l 1,54,-1
 259 633 l 1,55,-1
 399 633 l 2,56,57
 413 633 413 633 422.5 623.5 c 128,-1,58
 432 614 432 614 432 600 c 2,59,-1
 432 499 l 2,60,61
 432 486 432 486 422.5 476 c 128,-1,62
 413 466 413 466 399 466 c 2,63,-1
 259 466 l 1,64,-1
 259 33 l 2,65,66
 259 20 259 20 249.5 10 c 128,-1,67
 240 0 240 0 226 0 c 2,34,-1
EndSplineSet
EndChar

StartChar: b
Encoding: 98 98 69
Width: 954
GlyphClass: 2
Flags: W
LayerCount: 2
Fore
SplineSet
622 0 m 2,0,-1
 376 0 l 2,1,2
 363 0 363 0 353 10 c 128,-1,3
 343 20 343 20 343 33 c 2,4,-1
 343 134 l 2,5,6
 343 148 343 148 353 157.5 c 128,-1,7
 363 167 363 167 376 167 c 2,8,-1
 587 167 l 1,9,-1
 694 274 l 1,10,-1
 694 527 l 1,11,-1
 587 633 l 1,12,-1
 376 633 l 2,13,14
 363 633 363 633 353 643 c 128,-1,15
 343 653 343 653 343 667 c 2,16,-1
 343 767 l 2,17,18
 343 781 343 781 353 790.5 c 128,-1,19
 363 800 363 800 376 800 c 2,20,-1
 587 800 l 1,21,-1
 694 907 l 1,22,-1
 694 1160 l 1,23,-1
 587 1266 l 1,24,-1
 376 1266 l 2,25,26
 363 1266 363 1266 353 1276 c 128,-1,27
 343 1286 343 1286 343 1300 c 2,28,-1
 343 1400 l 2,29,30
 343 1414 343 1414 353 1424 c 128,-1,31
 363 1434 363 1434 376 1434 c 2,32,-1
 622 1434 l 2,33,34
 655 1434 655 1434 681 1409 c 2,35,-1
 837 1254 l 2,36,37
 861 1228 861 1228 861 1195 c 2,38,-1
 861 872 l 2,39,40
 861 839 861 839 837 813 c 2,41,-1
 740 717 l 1,42,-1
 837 620 l 2,43,44
 861 596 861 596 861 561 c 2,45,-1
 861 239 l 2,46,47
 861 206 861 206 837 180 c 2,48,-1
 681 24 l 2,49,50
 655 0 655 0 622 0 c 2,0,-1
226 0 m 2,51,-1
 125 0 l 2,52,53
 112 0 112 0 102 10 c 128,-1,54
 92 20 92 20 92 33 c 2,55,-1
 92 1400 l 2,56,57
 92 1414 92 1414 102 1424 c 128,-1,58
 112 1434 112 1434 125 1434 c 2,59,-1
 226 1434 l 2,60,61
 240 1434 240 1434 249.5 1424 c 128,-1,62
 259 1414 259 1414 259 1400 c 2,63,-1
 259 33 l 2,64,65
 259 20 259 20 249.5 10 c 128,-1,66
 240 0 240 0 226 0 c 2,51,-1
EndSplineSet
EndChar

StartChar: c
Encoding: 99 99 70
Width: 971
GlyphClass: 2
Flags: W
LayerCount: 2
Fore
SplineSet
854 1051 m 2,0,-1
 754 1051 l 2,1,2
 740 1051 740 1051 730 1061 c 128,-1,3
 720 1071 720 1071 720 1085 c 2,4,-1
 720 1160 l 1,5,-1
 614 1266 l 1,6,-1
 565 1266 l 2,7,8
 552 1266 552 1266 541.5 1276 c 128,-1,9
 531 1286 531 1286 531 1300 c 2,10,-1
 531 1400 l 2,11,12
 531 1414 531 1414 541.5 1424 c 128,-1,13
 552 1434 552 1434 565 1434 c 2,14,-1
 649 1434 l 2,15,16
 682 1434 682 1434 708 1409 c 2,17,-1
 863 1254 l 2,18,19
 888 1228 888 1228 888 1195 c 2,20,-1
 888 1085 l 2,21,22
 888 1071 888 1071 878 1061 c 128,-1,23
 868 1051 868 1051 854 1051 c 2,0,-1
414 0 m 2,24,-1
 331 0 l 2,25,26
 298 0 298 0 272 24 c 2,27,-1
 116 180 l 2,28,29
 92 206 92 206 92 239 c 2,30,-1
 92 1195 l 2,31,32
 92 1228 92 1228 116 1254 c 2,33,-1
 272 1409 l 2,34,35
 298 1434 298 1434 331 1434 c 2,36,-1
 414 1434 l 2,37,38
 428 1434 428 1434 438 1424 c 128,-1,39
 448 1414 448 1414 448 1400 c 2,40,-1
 448 1300 l 2,41,42
 448 1286 448 1286 438 1276 c 128,-1,43
 428 1266 428 1266 414 1266 c 2,44,-1
 366 1266 l 1,45,-1
 259 1160 l 1,46,-1
 259 274 l 1,47,-1
 366 167 l 1,48,-1
 414 167 l 2,49,50
 428 167 428 167 438 157.5 c 128,-1,51
 448 148 448 148 448 134 c 2,52,-1
 448 33 l 2,53,54
 448 20 448 20 438 10 c 128,-1,55
 428 0 428 0 414 0 c 2,24,-1
649 0 m 2,56,-1
 565 0 l 2,57,58
 551 0 551 0 541 10 c 128,-1,59
 531 20 531 20 531 33 c 2,60,-1
 531 134 l 2,61,62
 531 148 531 148 541 157.5 c 128,-1,63
 551 167 551 167 565 167 c 2,64,-1
 614 167 l 1,65,-1
 720 274 l 1,66,-1
 720 349 l 2,67,68
 720 363 720 363 730 372.5 c 128,-1,69
 740 382 740 382 754 382 c 2,70,-1
 854 382 l 2,71,72
 868 382 868 382 878 372.5 c 128,-1,73
 888 363 888 363 888 349 c 2,74,-1
 888 239 l 2,75,76
 888 206 888 206 863 180 c 2,77,-1
 708 24 l 2,78,79
 682 0 682 0 649 0 c 2,56,-1
EndSplineSet
EndChar

StartChar: d
Encoding: 100 100 71
Width: 954
GlyphClass: 2
Flags: W
LayerCount: 2
Fore
SplineSet
622 0 m 2,0,-1
 376 0 l 2,1,2
 363 0 363 0 353 10 c 128,-1,3
 343 20 343 20 343 33 c 2,4,-1
 343 134 l 2,5,6
 343 148 343 148 353 157.5 c 128,-1,7
 363 167 363 167 376 167 c 2,8,-1
 587 167 l 1,9,-1
 694 274 l 1,10,-1
 694 1160 l 1,11,-1
 587 1266 l 1,12,-1
 376 1266 l 2,13,14
 363 1266 363 1266 353 1276 c 128,-1,15
 343 1286 343 1286 343 1300 c 2,16,-1
 343 1400 l 2,17,18
 343 1414 343 1414 353 1424 c 128,-1,19
 363 1434 363 1434 376 1434 c 2,20,-1
 622 1434 l 2,21,22
 655 1434 655 1434 681 1409 c 2,23,-1
 837 1254 l 2,24,25
 861 1228 861 1228 861 1195 c 2,26,-1
 861 239 l 2,27,28
 861 206 861 206 837 180 c 2,29,-1
 681 24 l 2,30,31
 655 0 655 0 622 0 c 2,0,-1
226 0 m 2,32,-1
 125 0 l 2,33,34
 112 0 112 0 102 10 c 128,-1,35
 92 20 92 20 92 33 c 2,36,-1
 92 1400 l 2,37,38
 92 1414 92 1414 102 1424 c 128,-1,39
 112 1434 112 1434 125 1434 c 2,40,-1
 226 1434 l 2,41,42
 240 1434 240 1434 249.5 1424 c 128,-1,43
 259 1414 259 1414 259 1400 c 2,44,-1
 259 33 l 2,45,46
 259 20 259 20 249.5 10 c 128,-1,47
 240 0 240 0 226 0 c 2,32,-1
EndSplineSet
EndChar

StartChar: e
Encoding: 101 101 72
Width: 844
GlyphClass: 2
Flags: W
LayerCount: 2
Fore
SplineSet
226 0 m 2,0,-1
 125 0 l 2,1,2
 112 0 112 0 102 10 c 128,-1,3
 92 20 92 20 92 33 c 2,4,-1
 92 1400 l 2,5,6
 92 1414 92 1414 102 1424 c 128,-1,7
 112 1434 112 1434 125 1434 c 2,8,-1
 226 1434 l 2,9,10
 240 1434 240 1434 249.5 1424 c 128,-1,11
 259 1414 259 1414 259 1400 c 2,12,-1
 259 33 l 2,13,14
 259 20 259 20 249.5 10 c 128,-1,15
 240 0 240 0 226 0 c 2,0,-1
728 1266 m 2,16,-1
 376 1266 l 2,17,18
 363 1266 363 1266 353 1276 c 128,-1,19
 343 1286 343 1286 343 1300 c 2,20,-1
 343 1400 l 2,21,22
 343 1414 343 1414 353 1424 c 128,-1,23
 363 1434 363 1434 376 1434 c 2,24,-1
 728 1434 l 2,25,26
 742 1434 742 1434 751.5 1424 c 128,-1,27
 761 1414 761 1414 761 1400 c 2,28,-1
 761 1300 l 2,29,30
 761 1286 761 1286 751.5 1276 c 128,-1,31
 742 1266 742 1266 728 1266 c 2,16,-1
632 633 m 2,32,-1
 376 633 l 2,33,34
 363 633 363 633 353 643 c 128,-1,35
 343 653 343 653 343 667 c 2,36,-1
 343 767 l 2,37,38
 343 781 343 781 353 790.5 c 128,-1,39
 363 800 363 800 376 800 c 2,40,-1
 632 800 l 2,41,42
 646 800 646 800 655.5 790.5 c 128,-1,43
 665 781 665 781 665 767 c 2,44,-1
 665 667 l 2,45,46
 665 653 665 653 655.5 643 c 128,-1,47
 646 633 646 633 632 633 c 2,32,-1
728 0 m 2,48,-1
 376 0 l 2,49,50
 363 0 363 0 353 10 c 128,-1,51
 343 20 343 20 343 33 c 2,52,-1
 343 134 l 2,53,54
 343 148 343 148 353 157.5 c 128,-1,55
 363 167 363 167 376 167 c 2,56,-1
 728 167 l 2,57,58
 742 167 742 167 751.5 157.5 c 128,-1,59
 761 148 761 148 761 134 c 2,60,-1
 761 33 l 2,61,62
 761 20 761 20 751.5 10 c 128,-1,63
 742 0 742 0 728 0 c 2,48,-1
EndSplineSet
EndChar

StartChar: f
Encoding: 102 102 73
Width: 844
GlyphClass: 2
Flags: W
LayerCount: 2
Fore
SplineSet
226 0 m 2,0,-1
 125 0 l 2,1,2
 112 0 112 0 102 10 c 128,-1,3
 92 20 92 20 92 33 c 2,4,-1
 92 1400 l 2,5,6
 92 1414 92 1414 102 1424 c 128,-1,7
 112 1434 112 1434 125 1434 c 2,8,-1
 226 1434 l 2,9,10
 240 1434 240 1434 249.5 1424 c 128,-1,11
 259 1414 259 1414 259 1400 c 2,12,-1
 259 33 l 2,13,14
 259 20 259 20 249.5 10 c 128,-1,15
 240 0 240 0 226 0 c 2,0,-1
728 1266 m 2,16,-1
 376 1266 l 2,17,18
 363 1266 363 1266 353 1276 c 128,-1,19
 343 1286 343 1286 343 1300 c 2,20,-1
 343 1400 l 2,21,22
 343 1414 343 1414 353 1424 c 128,-1,23
 363 1434 363 1434 376 1434 c 2,24,-1
 728 1434 l 2,25,26
 742 1434 742 1434 751.5 1424 c 128,-1,27
 761 1414 761 1414 761 1400 c 2,28,-1
 761 1300 l 2,29,30
 761 1286 761 1286 751.5 1276 c 128,-1,31
 742 1266 742 1266 728 1266 c 2,16,-1
632 633 m 2,32,-1
 376 633 l 2,33,34
 363 633 363 633 353 643 c 128,-1,35
 343 653 343 653 343 667 c 2,36,-1
 343 767 l 2,37,38
 343 781 343 781 353 790.5 c 128,-1,39
 363 800 363 800 376 800 c 2,40,-1
 632 800 l 2,41,42
 646 800 646 800 655.5 790.5 c 128,-1,43
 665 781 665 781 665 767 c 2,44,-1
 665 667 l 2,45,46
 665 653 665 653 655.5 643 c 128,-1,47
 646 633 646 633 632 633 c 2,32,-1
EndSplineSet
EndChar

StartChar: g
Encoding: 103 103 74
Width: 981
GlyphClass: 2
Flags: W
LayerCount: 2
Fore
SplineSet
854 1051 m 2,0,-1
 754 1051 l 2,1,2
 740 1051 740 1051 730 1061 c 128,-1,3
 720 1071 720 1071 720 1085 c 2,4,-1
 720 1160 l 1,5,-1
 614 1266 l 1,6,-1
 565 1266 l 2,7,8
 552 1266 552 1266 542 1276 c 128,-1,9
 532 1286 532 1286 532 1300 c 2,10,-1
 532 1400 l 2,11,12
 532 1414 532 1414 542 1424 c 128,-1,13
 552 1434 552 1434 565 1434 c 2,14,-1
 649 1434 l 2,15,16
 682 1434 682 1434 708 1409 c 2,17,-1
 863 1254 l 2,18,19
 888 1228 888 1228 888 1195 c 2,20,-1
 888 1085 l 2,21,22
 888 1071 888 1071 878 1061 c 128,-1,23
 868 1051 868 1051 854 1051 c 2,0,-1
415 0 m 2,24,-1
 331 0 l 2,25,26
 298 0 298 0 272 24 c 2,27,-1
 117 180 l 2,28,29
 92 206 92 206 92 239 c 2,30,-1
 92 1195 l 2,31,32
 92 1228 92 1228 117 1254 c 2,33,-1
 272 1409 l 2,34,35
 298 1434 298 1434 331 1434 c 2,36,-1
 415 1434 l 2,37,38
 429 1434 429 1434 438.5 1424 c 128,-1,39
 448 1414 448 1414 448 1400 c 2,40,-1
 448 1300 l 2,41,42
 448 1286 448 1286 438.5 1276 c 128,-1,43
 429 1266 429 1266 415 1266 c 2,44,-1
 366 1266 l 1,45,-1
 259 1160 l 1,46,-1
 259 274 l 1,47,-1
 366 167 l 1,48,-1
 415 167 l 2,49,50
 429 167 429 167 438.5 157.5 c 128,-1,51
 448 148 448 148 448 134 c 2,52,-1
 448 33 l 2,53,54
 448 20 448 20 438.5 10 c 128,-1,55
 429 0 429 0 415 0 c 2,24,-1
649 0 m 2,56,-1
 565 0 l 2,57,58
 552 0 552 0 542 10 c 128,-1,59
 532 20 532 20 532 33 c 2,60,-1
 532 134 l 2,61,62
 532 148 532 148 542 157.5 c 128,-1,63
 552 167 552 167 565 167 c 2,64,-1
 614 167 l 1,65,-1
 720 274 l 1,66,-1
 720 633 l 1,67,-1
 565 633 l 2,68,69
 552 633 552 633 542 643 c 128,-1,70
 532 653 532 653 532 667 c 2,71,-1
 532 767 l 2,72,73
 532 781 532 781 542 790.5 c 128,-1,74
 552 800 552 800 565 800 c 2,75,-1
 854 800 l 2,76,77
 867 800 867 800 877.5 791.5 c 128,-1,78
 888 783 888 783 888 767 c 2,79,-1
 888 239 l 2,80,81
 888 206 888 206 863 180 c 2,82,-1
 708 24 l 2,83,84
 682 0 682 0 649 0 c 2,56,-1
EndSplineSet
EndChar

StartChar: h
Encoding: 104 104 75
Width: 950
GlyphClass: 2
Flags: W
LayerCount: 2
Fore
SplineSet
226 0 m 2,0,-1
 125 0 l 2,1,2
 112 0 112 0 102 10 c 128,-1,3
 92 20 92 20 92 33 c 2,4,-1
 92 1400 l 2,5,6
 92 1414 92 1414 102 1424 c 128,-1,7
 112 1434 112 1434 125 1434 c 2,8,-1
 226 1434 l 2,9,10
 240 1434 240 1434 249.5 1424 c 128,-1,11
 259 1414 259 1414 259 1400 c 2,12,-1
 259 800 l 1,13,-1
 399 800 l 2,14,15
 413 800 413 800 422.5 790.5 c 128,-1,16
 432 781 432 781 432 767 c 2,17,-1
 432 667 l 2,18,19
 432 653 432 653 422.5 643 c 128,-1,20
 413 633 413 633 399 633 c 2,21,-1
 259 633 l 1,22,-1
 259 33 l 2,23,24
 259 20 259 20 249.5 10 c 128,-1,25
 240 0 240 0 226 0 c 2,0,-1
823 0 m 2,26,-1
 723 0 l 2,27,28
 709 0 709 0 699 10 c 128,-1,29
 689 20 689 20 689 33 c 2,30,-1
 689 633 l 1,31,-1
 550 633 l 2,32,33
 536 633 536 633 526 643 c 128,-1,34
 516 653 516 653 516 667 c 2,35,-1
 516 767 l 2,36,37
 516 781 516 781 526 790.5 c 128,-1,38
 536 800 536 800 550 800 c 2,39,-1
 689 800 l 1,40,-1
 689 1400 l 2,41,42
 689 1414 689 1414 699 1424 c 128,-1,43
 709 1434 709 1434 723 1434 c 2,44,-1
 823 1434 l 2,45,46
 837 1434 837 1434 847 1424 c 128,-1,47
 857 1414 857 1414 857 1400 c 2,48,-1
 857 33 l 2,49,50
 857 20 857 20 847 10 c 128,-1,51
 837 0 837 0 823 0 c 2,26,-1
EndSplineSet
EndChar

StartChar: i
Encoding: 105 105 76
Width: 352
GlyphClass: 2
Flags: W
LayerCount: 2
Fore
SplineSet
226 0 m 2,0,-1
 125 0 l 2,1,2
 112 0 112 0 102 10 c 128,-1,3
 92 20 92 20 92 33 c 2,4,-1
 92 1400 l 2,5,6
 92 1414 92 1414 102 1424 c 128,-1,7
 112 1434 112 1434 125 1434 c 2,8,-1
 226 1434 l 2,9,10
 240 1434 240 1434 249.5 1424 c 128,-1,11
 259 1414 259 1414 259 1400 c 2,12,-1
 259 33 l 2,13,14
 259 20 259 20 249.5 10 c 128,-1,15
 240 0 240 0 226 0 c 2,0,-1
EndSplineSet
EndChar

StartChar: j
Encoding: 106 106 77
Width: 902
GlyphClass: 2
Flags: W
LayerCount: 2
Fore
SplineSet
570 0 m 2,0,-1
 510 0 l 2,1,2
 496 0 496 0 486.5 10 c 128,-1,3
 477 20 477 20 477 33 c 2,4,-1
 477 134 l 2,5,6
 477 148 477 148 486.5 157.5 c 128,-1,7
 496 167 496 167 510 167 c 2,8,-1
 536 167 l 1,9,-1
 642 274 l 1,10,-1
 642 1400 l 2,11,12
 642 1414 642 1414 652 1424 c 128,-1,13
 662 1434 662 1434 675 1434 c 2,14,-1
 776 1434 l 2,15,16
 790 1434 790 1434 799.5 1424 c 128,-1,17
 809 1414 809 1414 809 1400 c 2,18,-1
 809 239 l 2,19,20
 809 206 809 206 785 180 c 2,21,-1
 629 24 l 2,22,23
 605 0 605 0 570 0 c 2,0,-1
359 0 m 2,24,-1
 299 0 l 2,25,26
 266 0 266 0 240 24 c 2,27,-1
 84 180 l 2,28,29
 60 206 60 206 60 239 c 2,30,-1
 60 349 l 2,31,32
 60 363 60 363 70 372.5 c 128,-1,33
 80 382 80 382 93 382 c 2,34,-1
 194 382 l 2,35,36
 208 382 208 382 217.5 372.5 c 128,-1,37
 227 363 227 363 227 349 c 2,38,-1
 227 274 l 1,39,-1
 334 167 l 1,40,-1
 359 167 l 2,41,42
 373 167 373 167 383 157.5 c 128,-1,43
 393 148 393 148 393 134 c 2,44,-1
 393 33 l 2,45,46
 393 20 393 20 383 10 c 128,-1,47
 373 0 373 0 359 0 c 2,24,-1
EndSplineSet
EndChar

StartChar: k
Encoding: 107 107 78
Width: 899
GlyphClass: 2
Flags: W
LayerCount: 2
Fore
SplineSet
832 0 m 2,0,-1
 706 0 l 2,1,2
 693 0 693 0 680.5 8 c 128,-1,3
 668 16 668 16 662 28 c 2,4,-1
 358 583 l 2,5,6
 350 597 350 597 346.5 609.5 c 128,-1,7
 343 622 343 622 343 643 c 2,8,-1
 343 951 l 2,9,10
 343 970 343 970 347 981 c 128,-1,11
 351 992 351 992 358 1003 c 2,12,-1
 631 1405 l 2,13,14
 638 1416 638 1416 650 1425 c 128,-1,15
 662 1434 662 1434 676 1434 c 2,16,-1
 801 1434 l 2,17,18
 812 1434 812 1434 819 1428.5 c 128,-1,19
 826 1423 826 1423 826 1415 c 0,20,21
 826 1411 826 1411 823 1405 c 2,22,-1
 423 815 l 1,23,-1
 854 28 l 2,24,25
 856 25 856 25 856 19 c 0,26,27
 856 11 856 11 849.5 5.5 c 128,-1,28
 843 0 843 0 832 0 c 2,0,-1
226 0 m 2,29,-1
 125 0 l 2,30,31
 112 0 112 0 102 10 c 128,-1,32
 92 20 92 20 92 33 c 2,33,-1
 92 1400 l 2,34,35
 92 1414 92 1414 102 1424 c 128,-1,36
 112 1434 112 1434 125 1434 c 2,37,-1
 226 1434 l 2,38,39
 240 1434 240 1434 249.5 1424 c 128,-1,40
 259 1414 259 1414 259 1400 c 2,41,-1
 259 33 l 2,42,43
 259 20 259 20 249.5 10 c 128,-1,44
 240 0 240 0 226 0 c 2,29,-1
EndSplineSet
EndChar

StartChar: l
Encoding: 108 108 79
Width: 865
GlyphClass: 2
Flags: W
LayerCount: 2
Fore
SplineSet
226 0 m 2,0,-1
 125 0 l 2,1,2
 112 0 112 0 102 10 c 128,-1,3
 92 20 92 20 92 33 c 2,4,-1
 92 1400 l 2,5,6
 92 1414 92 1414 102 1424 c 128,-1,7
 112 1434 112 1434 125 1434 c 2,8,-1
 226 1434 l 2,9,10
 240 1434 240 1434 249.5 1424 c 128,-1,11
 259 1414 259 1414 259 1400 c 2,12,-1
 259 33 l 2,13,14
 259 20 259 20 249.5 10 c 128,-1,15
 240 0 240 0 226 0 c 2,0,-1
751 0 m 2,16,-1
 376 0 l 2,17,18
 363 0 363 0 353 10 c 128,-1,19
 343 20 343 20 343 33 c 2,20,-1
 343 134 l 2,21,22
 343 148 343 148 353 157.5 c 128,-1,23
 363 167 363 167 376 167 c 2,24,-1
 751 167 l 2,25,26
 765 167 765 167 775 157.5 c 128,-1,27
 785 148 785 148 785 134 c 2,28,-1
 785 33 l 2,29,30
 785 20 785 20 775 10 c 128,-1,31
 765 0 765 0 751 0 c 2,16,-1
EndSplineSet
EndChar

StartChar: m
Encoding: 109 109 80
Width: 1190
GlyphClass: 2
Flags: W
LayerCount: 2
Fore
SplineSet
645 0 m 2,0,-1
 542 0 l 2,1,2
 528 0 528 0 516 8.5 c 128,-1,3
 504 17 504 17 500 30 c 0,4,5
 93 1403 93 1403 92 1411 c 0,6,7
 92 1431 92 1431 118 1434 c 2,8,-1
 227 1434 l 2,9,10
 245 1434 245 1434 256 1416 c 0,11,12
 261 1410 261 1410 263 1403 c 0,13,14
 669 30 669 30 670 22 c 0,15,16
 670 3 670 3 645 0 c 2,0,-1
1063 0 m 2,17,-1
 963 0 l 2,18,19
 949 0 949 0 939 10 c 128,-1,20
 929 20 929 20 929 33 c 2,21,-1
 929 838 l 1,22,-1
 731 166 l 2,23,24
 723 146 723 146 711 146 c 256,25,26
 699 146 699 146 692 163 c 2,27,-1
 641 334 l 2,28,29
 632 363 632 363 632 387 c 0,30,31
 632 404 632 404 637 423 c 2,32,-1
 926 1403 l 2,33,34
 938 1434 938 1434 963 1434 c 2,35,-1
 1071 1434 l 2,36,37
 1083 1434 1083 1434 1090 1427.5 c 128,-1,38
 1097 1421 1097 1421 1097 1412 c 0,39,40
 1096 1404 1096 1404 1096 33 c 0,41,42
 1096 20 1096 20 1086.5 10 c 128,-1,43
 1077 0 1077 0 1063 0 c 2,17,-1
227 0 m 2,44,-1
 126 0 l 2,45,46
 113 0 113 0 103 10 c 128,-1,47
 93 20 93 20 93 33 c 2,48,-1
 93 1030 l 2,49,50
 93 1044 93 1044 99.5 1051.5 c 128,-1,51
 106 1059 106 1059 115 1060 c 0,52,53
 126 1060 126 1060 133 1044 c 2,54,-1
 247 656 l 2,55,56
 260 616 260 616 260 563 c 2,57,-1
 260 33 l 2,58,59
 260 20 260 20 250.5 10 c 128,-1,60
 241 0 241 0 227 0 c 2,44,-1
EndSplineSet
EndChar

StartChar: n
Encoding: 110 110 81
Width: 930
GlyphClass: 2
Flags: W
LayerCount: 2
Fore
SplineSet
814 0 m 2,0,-1
 713 0 l 2,1,2
 700 0 700 0 687 8 c 128,-1,3
 674 16 674 16 668 28 c 0,4,5
 94 1406 94 1406 92 1415 c 0,6,7
 92 1432 92 1432 116 1434 c 2,8,-1
 216 1434 l 2,9,10
 230 1434 230 1434 243 1426 c 128,-1,11
 256 1418 256 1418 261 1406 c 2,12,-1
 835 28 l 2,13,14
 837 25 837 25 837 18 c 0,15,16
 837 2 837 2 814 0 c 2,0,-1
815 261 m 0,17,18
 805 261 805 261 798 277 c 2,19,-1
 683 552 l 2,20,21
 674 575 674 575 672 597.5 c 128,-1,22
 670 620 670 620 670 645 c 2,23,-1
 670 1400 l 2,24,25
 670 1414 670 1414 680 1424 c 128,-1,26
 690 1434 690 1434 704 1434 c 2,27,-1
 804 1434 l 2,28,29
 818 1434 818 1434 827.5 1424 c 128,-1,30
 837 1414 837 1414 837 1400 c 2,31,-1
 837 291 l 2,32,33
 837 278 837 278 830 269.5 c 128,-1,34
 823 261 823 261 815 261 c 0,17,18
226 0 m 2,35,-1
 125 0 l 2,36,37
 112 0 112 0 102 10 c 128,-1,38
 92 20 92 20 92 33 c 2,39,-1
 92 1134 l 2,40,41
 92 1148 92 1148 99 1156 c 128,-1,42
 106 1164 106 1164 114 1164 c 0,43,44
 125 1164 125 1164 132 1148 c 2,45,-1
 246 873 l 2,46,47
 255 850 255 850 257 828 c 128,-1,48
 259 806 259 806 259 33 c 0,49,50
 259 20 259 20 249.5 10 c 128,-1,51
 240 0 240 0 226 0 c 2,35,-1
EndSplineSet
EndChar

StartChar: o
Encoding: 111 111 82
Width: 981
GlyphClass: 2
Flags: W
LayerCount: 2
Fore
SplineSet
415 0 m 2,0,-1
 331 0 l 2,1,2
 298 0 298 0 272 24 c 2,3,-1
 116 180 l 2,4,5
 92 206 92 206 92 239 c 2,6,-1
 92 1195 l 2,7,8
 92 1228 92 1228 116 1254 c 2,9,-1
 272 1409 l 2,10,11
 298 1434 298 1434 331 1434 c 2,12,-1
 415 1434 l 2,13,14
 429 1434 429 1434 438.5 1424 c 128,-1,15
 448 1414 448 1414 448 1400 c 2,16,-1
 448 1300 l 2,17,18
 448 1286 448 1286 438.5 1276 c 128,-1,19
 429 1266 429 1266 415 1266 c 2,20,-1
 366 1266 l 1,21,-1
 259 1160 l 1,22,-1
 259 274 l 1,23,-1
 366 167 l 1,24,-1
 415 167 l 2,25,26
 429 167 429 167 438.5 157.5 c 128,-1,27
 448 148 448 148 448 134 c 2,28,-1
 448 33 l 2,29,30
 448 20 448 20 438.5 10 c 128,-1,31
 429 0 429 0 415 0 c 2,0,-1
649 0 m 2,32,-1
 565 0 l 2,33,34
 552 0 552 0 542 10 c 128,-1,35
 532 20 532 20 532 33 c 2,36,-1
 532 134 l 2,37,38
 532 148 532 148 542 157.5 c 128,-1,39
 552 167 552 167 565 167 c 2,40,-1
 614 167 l 1,41,-1
 720 274 l 1,42,-1
 720 1160 l 1,43,-1
 614 1266 l 1,44,-1
 565 1266 l 2,45,46
 552 1266 552 1266 542 1276 c 128,-1,47
 532 1286 532 1286 532 1300 c 2,48,-1
 532 1400 l 2,49,50
 532 1414 532 1414 542 1424 c 128,-1,51
 552 1434 552 1434 565 1434 c 2,52,-1
 649 1434 l 2,53,54
 682 1434 682 1434 708 1409 c 2,55,-1
 863 1254 l 2,56,57
 888 1228 888 1228 888 1195 c 2,58,-1
 888 239 l 2,59,60
 888 206 888 206 863 180 c 2,61,-1
 708 24 l 2,62,63
 682 0 682 0 649 0 c 2,32,-1
EndSplineSet
EndChar

StartChar: p
Encoding: 112 112 83
Width: 941
GlyphClass: 2
Flags: W
LayerCount: 2
Fore
SplineSet
622 633 m 2,0,-1
 376 633 l 2,1,2
 363 633 363 633 353 643 c 128,-1,3
 343 653 343 653 343 667 c 2,4,-1
 343 767 l 2,5,6
 343 781 343 781 353 790.5 c 128,-1,7
 363 800 363 800 376 800 c 2,8,-1
 587 800 l 1,9,-1
 694 907 l 1,10,-1
 694 1160 l 1,11,-1
 587 1266 l 1,12,-1
 376 1266 l 2,13,14
 363 1266 363 1266 353 1276 c 128,-1,15
 343 1286 343 1286 343 1300 c 2,16,-1
 343 1400 l 2,17,18
 343 1414 343 1414 353 1424 c 128,-1,19
 363 1434 363 1434 376 1434 c 2,20,-1
 622 1434 l 2,21,22
 655 1434 655 1434 681 1409 c 2,23,-1
 837 1254 l 2,24,25
 861 1228 861 1228 861 1195 c 2,26,-1
 861 872 l 2,27,28
 861 839 861 839 837 813 c 2,29,-1
 681 658 l 2,30,31
 655 633 655 633 622 633 c 2,0,-1
226 0 m 2,32,-1
 125 0 l 2,33,34
 112 0 112 0 102 10 c 128,-1,35
 92 20 92 20 92 33 c 2,36,-1
 92 1400 l 2,37,38
 92 1414 92 1414 102 1424 c 128,-1,39
 112 1434 112 1434 125 1434 c 2,40,-1
 226 1434 l 2,41,42
 240 1434 240 1434 249.5 1424 c 128,-1,43
 259 1414 259 1414 259 1400 c 2,44,-1
 259 33 l 2,45,46
 259 20 259 20 249.5 10 c 128,-1,47
 240 0 240 0 226 0 c 2,32,-1
EndSplineSet
EndChar

StartChar: q
Encoding: 113 113 84
Width: 978
GlyphClass: 2
Flags: W
LayerCount: 2
Fore
SplineSet
853 -80 m 0,0,1
 840 -80 840 -80 829 -70 c 2,2,-1
 721 38 l 1,3,4
 705 19 705 19 689.5 9.5 c 128,-1,5
 674 0 674 0 648 0 c 2,6,-1
 565 0 l 2,7,8
 551 0 551 0 541 10 c 128,-1,9
 531 20 531 20 531 33 c 2,10,-1
 531 134 l 2,11,12
 531 148 531 148 541 157.5 c 128,-1,13
 551 167 551 167 565 167 c 2,14,-1
 592 167 l 1,15,-1
 522 238 l 2,16,17
 512 249 512 249 512 261 c 0,18,19
 512 275 512 275 522 285 c 2,20,-1
 593 356 l 2,21,22
 604 366 604 366 617 366 c 0,23,24
 629 366 629 366 640 356 c 2,25,-1
 720 276 l 1,26,-1
 720 1160 l 1,27,-1
 614 1266 l 1,28,-1
 565 1266 l 2,29,30
 551 1266 551 1266 541 1276 c 128,-1,31
 531 1286 531 1286 531 1300 c 2,32,-1
 531 1400 l 2,33,34
 531 1414 531 1414 541 1424 c 128,-1,35
 551 1434 551 1434 565 1434 c 2,36,-1
 648 1434 l 2,37,38
 683 1434 683 1434 708 1409 c 2,39,-1
 863 1254 l 2,40,41
 887 1228 887 1228 887 1195 c 2,42,-1
 887 239 l 2,43,44
 887 211 887 211 877.5 196.5 c 128,-1,45
 868 182 868 182 849 166 c 2,46,-1
 840 157 l 1,47,-1
 948 49 l 2,48,49
 958 39 958 39 958 25 c 0,50,51
 958 12 958 12 948 1 c 2,52,-1
 877 -70 l 2,53,54
 865 -80 865 -80 853 -80 c 0,0,1
414 0 m 2,55,-1
 331 0 l 2,56,57
 298 0 298 0 272 24 c 2,58,-1
 116 179 l 2,59,60
 92 206 92 206 92 239 c 2,61,-1
 92 1194 l 2,62,63
 92 1229 92 1229 116 1254 c 2,64,-1
 272 1409 l 2,65,66
 298 1433 298 1433 331 1433 c 2,67,-1
 414 1433 l 2,68,69
 428 1433 428 1433 438 1423.5 c 128,-1,70
 448 1414 448 1414 448 1400 c 2,71,-1
 448 1300 l 2,72,73
 448 1286 448 1286 438 1276 c 128,-1,74
 428 1266 428 1266 414 1266 c 2,75,-1
 366 1266 l 1,76,-1
 259 1160 l 1,77,-1
 259 273 l 1,78,-1
 366 167 l 1,79,-1
 414 167 l 2,80,81
 428 167 428 167 438 157.5 c 128,-1,82
 448 148 448 148 448 134 c 2,83,-1
 448 33 l 2,84,85
 448 20 448 20 438 10 c 128,-1,86
 428 0 428 0 414 0 c 2,55,-1
EndSplineSet
EndChar

StartChar: r
Encoding: 114 114 85
Width: 947
GlyphClass: 2
Flags: W
LayerCount: 2
Fore
SplineSet
875 0 m 2,0,-1
 754 0 l 2,1,2
 740 0 740 0 726.5 8 c 128,-1,3
 713 16 713 16 707 28 c 2,4,-1
 424 633 l 1,5,-1
 376 633 l 2,6,7
 363 633 363 633 353 643 c 128,-1,8
 343 653 343 653 343 667 c 2,9,-1
 343 767 l 2,10,11
 343 781 343 781 353 790.5 c 128,-1,12
 363 800 363 800 376 800 c 2,13,-1
 588 800 l 1,14,-1
 694 907 l 1,15,-1
 694 1160 l 1,16,-1
 588 1266 l 1,17,-1
 376 1266 l 2,18,19
 363 1266 363 1266 353 1276 c 128,-1,20
 343 1286 343 1286 343 1300 c 2,21,-1
 343 1400 l 2,22,23
 343 1414 343 1414 353 1424 c 128,-1,24
 363 1434 363 1434 376 1434 c 2,25,-1
 622 1434 l 2,26,27
 655 1434 655 1434 681 1409 c 2,28,-1
 837 1254 l 2,29,30
 861 1228 861 1228 861 1195 c 2,31,-1
 861 872 l 2,32,33
 861 839 861 839 837 813 c 2,34,-1
 681 658 l 2,35,36
 666 643 666 643 649.5 638 c 128,-1,37
 633 633 633 633 612 633 c 1,38,39
 895 28 895 28 896 25 c 128,-1,40
 897 22 897 22 897 18 c 0,41,42
 897 2 897 2 875 0 c 2,0,-1
226 0 m 2,43,-1
 125 0 l 2,44,45
 112 0 112 0 102 10 c 128,-1,46
 92 20 92 20 92 33 c 2,47,-1
 92 1400 l 2,48,49
 92 1414 92 1414 102 1424 c 128,-1,50
 112 1434 112 1434 125 1434 c 2,51,-1
 226 1434 l 2,52,53
 240 1434 240 1434 249.5 1424 c 128,-1,54
 259 1414 259 1414 259 1400 c 2,55,-1
 259 33 l 2,56,57
 259 20 259 20 249.5 10 c 128,-1,58
 240 0 240 0 226 0 c 2,43,-1
EndSplineSet
EndChar

StartChar: s
Encoding: 115 115 86
Width: 956
GlyphClass: 2
Flags: W
LayerCount: 2
Fore
SplineSet
843 1051 m 2,0,-1
 742 1051 l 2,1,2
 729 1051 729 1051 719 1061 c 128,-1,3
 709 1071 709 1071 709 1085 c 2,4,-1
 709 1160 l 1,5,-1
 602 1266 l 1,6,-1
 553 1266 l 2,7,8
 540 1266 540 1266 530 1276 c 128,-1,9
 520 1286 520 1286 520 1300 c 2,10,-1
 520 1400 l 2,11,12
 520 1414 520 1414 530 1424 c 128,-1,13
 540 1434 540 1434 553 1434 c 2,14,-1
 637 1434 l 2,15,16
 670 1434 670 1434 696 1409 c 2,17,-1
 851 1254 l 2,18,19
 876 1228 876 1228 876 1195 c 2,20,-1
 876 1085 l 2,21,22
 876 1071 876 1071 866.5 1061 c 128,-1,23
 857 1051 857 1051 843 1051 c 2,0,-1
415 664 m 0,24,25
 406 664 406 664 393 672 c 2,26,-1
 118 853 l 2,27,28
 80 880 80 880 80 923 c 2,29,-1
 80 1195 l 2,30,31
 80 1228 80 1228 105 1254 c 2,32,-1
 260 1409 l 2,33,34
 286 1434 286 1434 319 1434 c 2,35,-1
 403 1434 l 2,36,37
 417 1434 417 1434 426.5 1424 c 128,-1,38
 436 1414 436 1414 436 1400 c 2,39,-1
 436 1300 l 2,40,41
 436 1286 436 1286 426.5 1276 c 128,-1,42
 417 1266 417 1266 403 1266 c 2,43,-1
 354 1266 l 1,44,-1
 248 1160 l 1,45,-1
 248 968 l 1,46,-1
 393 872 l 2,47,48
 424 852 424 852 430 837.5 c 128,-1,49
 436 823 436 823 436 807 c 2,50,-1
 436 688 l 2,51,52
 436 666 436 666 415 664 c 0,24,25
637 0 m 2,53,-1
 553 0 l 2,54,55
 540 0 540 0 530 10 c 128,-1,56
 520 20 520 20 520 33 c 2,57,-1
 520 134 l 2,58,59
 520 148 520 148 530 157.5 c 128,-1,60
 540 167 540 167 553 167 c 2,61,-1
 602 167 l 1,62,-1
 709 274 l 1,63,-1
 709 464 l 1,64,-1
 555 565 l 2,65,66
 520 589 520 589 520 633 c 2,67,-1
 520 752 l 2,68,69
 520 769 520 769 540 770 c 0,70,71
 548 769 548 769 559 762 c 2,72,-1
 838 579 l 2,73,74
 876 553 876 553 876 509 c 2,75,-1
 876 239 l 2,76,77
 876 206 876 206 851 180 c 2,78,-1
 696 24 l 2,79,80
 670 0 670 0 637 0 c 2,53,-1
403 0 m 2,81,-1
 319 0 l 2,82,83
 286 0 286 0 260 24 c 2,84,-1
 105 180 l 2,85,86
 80 206 80 206 80 239 c 2,87,-1
 80 349 l 2,88,89
 80 363 80 363 90 372.5 c 128,-1,90
 100 382 100 382 114 382 c 2,91,-1
 214 382 l 2,92,93
 228 382 228 382 238 372.5 c 128,-1,94
 248 363 248 363 248 349 c 2,95,-1
 248 274 l 1,96,-1
 354 167 l 1,97,-1
 403 167 l 2,98,99
 417 167 417 167 426.5 157.5 c 128,-1,100
 436 148 436 148 436 134 c 2,101,-1
 436 33 l 2,102,103
 436 20 436 20 426.5 10 c 128,-1,104
 417 0 417 0 403 0 c 2,81,-1
EndSplineSet
EndChar

StartChar: t
Encoding: 116 116 87
Width: 1000
GlyphClass: 2
Flags: W
LayerCount: 2
Fore
SplineSet
897 1266 m 2,0,-1
 103 1266 l 2,1,2
 90 1266 90 1266 80 1276 c 128,-1,3
 70 1286 70 1286 70 1300 c 2,4,-1
 70 1400 l 2,5,6
 70 1414 70 1414 80 1424 c 128,-1,7
 90 1434 90 1434 103 1434 c 2,8,-1
 897 1434 l 2,9,10
 911 1434 911 1434 920.5 1424 c 128,-1,11
 930 1414 930 1414 930 1400 c 2,12,-1
 930 1300 l 2,13,14
 930 1286 930 1286 920.5 1276 c 128,-1,15
 911 1266 911 1266 897 1266 c 2,0,-1
550 0 m 2,16,-1
 450 0 l 2,17,18
 436 0 436 0 426.5 10 c 128,-1,19
 417 20 417 20 417 33 c 2,20,-1
 417 1149 l 2,21,22
 417 1163 417 1163 426.5 1173 c 128,-1,23
 436 1183 436 1183 450 1183 c 2,24,-1
 550 1183 l 2,25,26
 564 1183 564 1183 574 1173 c 128,-1,27
 584 1163 584 1163 584 1149 c 2,28,-1
 584 33 l 2,29,30
 584 20 584 20 574 10 c 128,-1,31
 564 0 564 0 550 0 c 2,16,-1
EndSplineSet
EndChar

StartChar: u
Encoding: 117 117 88
Width: 950
GlyphClass: 2
Flags: W
LayerCount: 2
Fore
SplineSet
618 0 m 2,0,-1
 550 0 l 2,1,2
 536 0 536 0 526 10 c 128,-1,3
 516 20 516 20 516 33 c 2,4,-1
 516 134 l 2,5,6
 516 148 516 148 526 157.5 c 128,-1,7
 536 167 536 167 550 167 c 2,8,-1
 583 167 l 1,9,-1
 689 274 l 1,10,-1
 689 1400 l 2,11,12
 689 1414 689 1414 699 1424 c 128,-1,13
 709 1434 709 1434 723 1434 c 2,14,-1
 823 1434 l 2,15,16
 837 1434 837 1434 847 1424 c 128,-1,17
 857 1414 857 1414 857 1400 c 2,18,-1
 857 239 l 2,19,20
 857 206 857 206 832 180 c 2,21,-1
 677 24 l 2,22,23
 651 0 651 0 618 0 c 2,0,-1
399 0 m 2,24,-1
 331 0 l 2,25,26
 298 0 298 0 272 24 c 2,27,-1
 116 180 l 2,28,29
 92 206 92 206 92 239 c 2,30,-1
 92 1400 l 2,31,32
 92 1414 92 1414 102 1424 c 128,-1,33
 112 1434 112 1434 125 1434 c 2,34,-1
 226 1434 l 2,35,36
 240 1434 240 1434 249.5 1424 c 128,-1,37
 259 1414 259 1414 259 1400 c 2,38,-1
 259 274 l 1,39,-1
 366 167 l 1,40,-1
 399 167 l 2,41,42
 413 167 413 167 422.5 157.5 c 128,-1,43
 432 148 432 148 432 134 c 2,44,-1
 432 33 l 2,45,46
 432 20 432 20 422.5 10 c 128,-1,47
 413 0 413 0 399 0 c 2,24,-1
EndSplineSet
EndChar

StartChar: v
Encoding: 118 118 89
Width: 853
GlyphClass: 2
Flags: W
LayerCount: 2
Fore
SplineSet
477 0 m 2,0,-1
 377 0 l 2,1,2
 363 0 363 0 351 9 c 128,-1,3
 339 18 339 18 336 32 c 2,4,-1
 50 1408 l 1,5,6
 50 1431 50 1431 78 1434 c 2,7,-1
 178 1434 l 2,8,9
 192 1434 192 1434 203.5 1424.5 c 128,-1,10
 215 1415 215 1415 218 1402 c 0,11,12
 504 32 504 32 504 27 c 0,13,14
 504 3 504 3 477 0 c 2,0,-1
555 290 m 0,15,16
 537 290 537 290 525 338 c 2,17,-1
 484 538 l 2,18,19
 474 577 474 577 474 607 c 0,20,21
 474 633 474 633 482 665 c 2,22,-1
 635 1402 l 2,23,24
 638 1415 638 1415 650 1424.5 c 128,-1,25
 662 1434 662 1434 675 1434 c 2,26,-1
 775 1434 l 2,27,28
 787 1434 787 1434 795 1426.5 c 128,-1,29
 803 1419 803 1419 803 1408 c 2,30,-1
 578 325 l 2,31,32
 569 290 569 290 555 290 c 0,15,16
EndSplineSet
EndChar

StartChar: w
Encoding: 119 119 90
Width: 1450
GlyphClass: 2
Flags: W
LayerCount: 2
Fore
SplineSet
477 0 m 2,0,-1
 377 0 l 2,1,2
 363 0 363 0 351.5 9 c 128,-1,3
 340 18 340 18 337 32 c 2,4,-1
 50 1408 l 1,5,6
 50 1431 50 1431 78 1434 c 2,7,-1
 178 1434 l 2,8,9
 192 1434 192 1434 203.5 1424.5 c 128,-1,10
 215 1415 215 1415 218 1402 c 0,11,12
 504 32 504 32 504 27 c 0,13,14
 504 3 504 3 477 0 c 2,0,-1
1074 0 m 2,15,-1
 974 0 l 2,16,17
 960 0 960 0 948.5 9 c 128,-1,18
 937 18 937 18 934 32 c 2,19,-1
 725 1032 l 1,20,-1
 578 325 l 2,21,22
 569 290 569 290 555 290 c 0,23,24
 537 290 537 290 525 338 c 2,25,-1
 484 538 l 2,26,27
 474 577 474 577 474 607 c 0,28,29
 474 633 474 633 482 665 c 2,30,-1
 635 1402 l 2,31,32
 642 1426 642 1426 675 1434 c 1,33,-1
 776 1434 l 1,34,35
 810 1426 810 1426 815 1402 c 2,36,-1
 1102 25 l 2,37,38
 1102 15 1102 15 1094 7.5 c 128,-1,39
 1086 0 1086 0 1074 0 c 2,15,-1
1152 290 m 0,40,41
 1136 290 1136 290 1123 338 c 2,42,-1
 1081 538 l 2,43,44
 1071 577 1071 577 1071 607 c 0,45,46
 1071 633 1071 633 1079 665 c 2,47,-1
 1232 1402 l 2,48,49
 1235 1415 1235 1415 1247 1424.5 c 128,-1,50
 1259 1434 1259 1434 1272 1434 c 2,51,-1
 1373 1434 l 2,52,53
 1385 1434 1385 1434 1392.5 1426 c 128,-1,54
 1400 1418 1400 1418 1400 1407 c 0,55,56
 1400 1402 1400 1402 1175 325 c 0,57,58
 1166 290 1166 290 1152 290 c 0,40,41
EndSplineSet
EndChar

StartChar: x
Encoding: 120 120 91
Width: 892
GlyphClass: 2
Flags: W
LayerCount: 2
Fore
SplineSet
818 0 m 2,0,-1
 718 0 l 2,1,2
 700 0 700 0 687 11 c 0,3,4
 684 13 684 13 681 15.5 c 128,-1,5
 678 18 678 18 676 21 c 0,6,7
 672 28 672 28 52 1406 c 0,8,9
 50 1411 50 1411 50 1416 c 0,10,11
 50 1424 50 1424 56.5 1429 c 128,-1,12
 63 1434 63 1434 73 1434 c 2,13,-1
 173 1434 l 2,14,15
 187 1434 187 1434 200 1426 c 128,-1,16
 213 1418 213 1418 219 1406 c 0,17,18
 842 20 842 20 842 17 c 0,19,20
 842 2 842 2 818 0 c 2,0,-1
570 844 m 0,21,22
 560 844 560 844 552 861 c 2,23,-1
 507 961 l 2,24,25
 497 982 497 982 497 1000 c 0,26,27
 497 1020 497 1020 508 1042 c 2,28,-1
 672 1406 l 2,29,30
 678 1418 678 1418 691 1426 c 128,-1,31
 704 1434 704 1434 718 1434 c 2,32,-1
 818 1434 l 2,33,34
 841 1434 841 1434 842 1416 c 0,35,36
 842 1413 842 1413 605 885 c 0,37,38
 587 844 587 844 570 844 c 0,21,22
173 0 m 2,39,-1
 73 0 l 2,40,41
 52 0 52 0 50 17 c 0,42,43
 50 19 50 19 50.5 22.5 c 128,-1,44
 51 26 51 26 286 548 c 0,45,46
 306 590 306 590 322 590 c 0,47,48
 331 589 331 589 339 572 c 2,49,-1
 384 472 l 2,50,51
 394 452 394 452 394 434 c 0,52,53
 394 415 394 415 383 392 c 2,54,-1
 219 27 l 2,55,56
 213 15 213 15 200 7.5 c 128,-1,57
 187 0 187 0 173 0 c 2,39,-1
EndSplineSet
EndChar

StartChar: y
Encoding: 121 121 92
Width: 847
GlyphClass: 2
Flags: W
LayerCount: 2
Fore
SplineSet
473 0 m 2,0,-1
 373 0 l 2,1,2
 360 0 360 0 350 10 c 128,-1,3
 340 20 340 20 340 33 c 2,4,-1
 340 646 l 1,5,6
 332 654 332 654 329 661 c 2,7,-1
 51 1406 l 2,8,9
 50 1409 50 1409 50 1414 c 0,10,11
 50 1422 50 1422 57 1428 c 128,-1,12
 64 1434 64 1434 75 1434 c 2,13,-1
 175 1434 l 2,14,15
 189 1434 189 1434 201.5 1426 c 128,-1,16
 214 1418 214 1418 219 1406 c 2,17,-1
 499 657 l 2,18,19
 507 643 507 643 507 618 c 2,20,-1
 507 33 l 2,21,22
 507 20 507 20 497 10 c 128,-1,23
 487 0 487 0 473 0 c 2,0,-1
551 783 m 0,24,25
 541 783 541 783 532 806 c 2,26,-1
 490 917 l 2,27,28
 478 949 478 949 478 977 c 0,29,30
 478 1004 478 1004 489 1033 c 2,31,-1
 628 1406 l 2,32,33
 633 1418 633 1418 645.5 1426 c 128,-1,34
 658 1434 658 1434 672 1434 c 2,35,-1
 772 1434 l 2,36,37
 796 1434 796 1434 797 1415 c 0,38,39
 795 1406 795 1406 573 811 c 0,40,41
 563 783 563 783 551 783 c 0,24,25
EndSplineSet
EndChar

StartChar: z
Encoding: 122 122 93
Width: 930
GlyphClass: 2
Flags: W
LayerCount: 2
Fore
SplineSet
813 1266 m 2,0,-1
 115 1266 l 2,1,2
 102 1266 102 1266 92 1276 c 128,-1,3
 82 1286 82 1286 82 1300 c 2,4,-1
 82 1400 l 2,5,6
 82 1414 82 1414 92 1424 c 128,-1,7
 102 1434 102 1434 115 1434 c 2,8,-1
 813 1434 l 2,9,10
 827 1434 827 1434 837 1424 c 128,-1,11
 847 1414 847 1414 847 1400 c 2,12,-1
 847 1300 l 2,13,14
 847 1286 847 1286 837 1276 c 128,-1,15
 827 1266 827 1266 813 1266 c 2,0,-1
271 249 m 2,16,-1
 161 249 l 2,17,18
 139 249 139 249 137 263 c 0,19,20
 137 265 137 265 137 266 c 128,-1,21
 137 267 137 267 615 1162 c 0,22,23
 620 1171 620 1171 633 1177 c 128,-1,24
 646 1183 646 1183 660 1183 c 2,25,-1
 769 1183 l 2,26,27
 792 1183 792 1183 793 1168 c 0,28,29
 792 1162 792 1162 315 270 c 0,30,31
 310 261 310 261 297.5 255 c 128,-1,32
 285 249 285 249 271 249 c 2,16,-1
813 0 m 2,33,-1
 115 0 l 2,34,35
 102 0 102 0 92 10 c 128,-1,36
 82 20 82 20 82 33 c 2,37,-1
 82 134 l 2,38,39
 82 148 82 148 92 157.5 c 128,-1,40
 102 167 102 167 115 167 c 2,41,-1
 813 167 l 2,42,43
 827 167 827 167 837 157.5 c 128,-1,44
 847 148 847 148 847 134 c 2,45,-1
 847 33 l 2,46,47
 847 20 847 20 837 10 c 128,-1,48
 827 0 827 0 813 0 c 2,33,-1
EndSplineSet
EndChar

StartChar: braceleft
Encoding: 123 123 94
Width: 551
GlyphClass: 2
Flags: W
LayerCount: 2
Fore
SplineSet
487 -180 m 2,0,-1
 441 -180 l 2,1,2
 408 -180 408 -180 381 -155 c 2,3,-1
 226 0 l 2,4,5
 202 26 202 26 202 59 c 2,6,-1
 202 514 l 1,7,-1
 95 621 l 1,8,-1
 41 621 l 1,9,-1
 41 788 l 1,10,-1
 95 788 l 1,11,-1
 202 894 l 1,12,-1
 202 1349 l 2,13,14
 202 1382 202 1382 226 1408 c 2,15,-1
 381 1564 l 2,16,17
 408 1588 408 1588 441 1588 c 2,18,-1
 487 1588 l 2,19,20
 501 1588 501 1588 510.5 1578.5 c 128,-1,21
 520 1569 520 1569 520 1555 c 2,22,-1
 520 1454 l 2,23,24
 520 1435 520 1435 507.5 1428 c 128,-1,25
 495 1421 495 1421 475 1421 c 1,26,-1
 369 1315 l 1,27,-1
 369 859 l 2,28,29
 369 826 369 826 345 800 c 2,30,-1
 248 704 l 1,31,-1
 345 608 l 2,32,33
 369 582 369 582 369 549 c 2,34,-1
 369 94 l 1,35,-1
 475 -13 l 1,36,37
 495 -13 495 -13 507.5 -19.5 c 128,-1,38
 520 -26 520 -26 520 -46 c 2,39,-1
 520 -147 l 2,40,41
 520 -160 520 -160 510.5 -170 c 128,-1,42
 501 -180 501 -180 487 -180 c 2,0,-1
EndSplineSet
EndChar

StartChar: bar
Encoding: 124 124 95
Width: 352
GlyphClass: 2
Flags: W
LayerCount: 2
Fore
SplineSet
226 -180 m 2,0,-1
 125 -180 l 2,1,2
 112 -180 112 -180 102 -170 c 128,-1,3
 92 -160 92 -160 92 -147 c 2,4,-1
 92 1555 l 2,5,6
 92 1569 92 1569 102 1578.5 c 128,-1,7
 112 1588 112 1588 125 1588 c 2,8,-1
 226 1588 l 2,9,10
 240 1588 240 1588 249.5 1578.5 c 128,-1,11
 259 1569 259 1569 259 1555 c 2,12,-1
 259 -147 l 2,13,14
 259 -160 259 -160 249.5 -170 c 128,-1,15
 240 -180 240 -180 226 -180 c 2,0,-1
EndSplineSet
EndChar

StartChar: braceright
Encoding: 125 125 96
Width: 551
GlyphClass: 2
Flags: W
LayerCount: 2
Fore
SplineSet
111 -180 m 2,0,-1
 64 -180 l 2,1,2
 51 -180 51 -180 41 -170 c 128,-1,3
 31 -160 31 -160 31 -147 c 2,4,-1
 31 -46 l 2,5,6
 31 -26 31 -26 44 -19.5 c 128,-1,7
 57 -13 57 -13 76 -13 c 1,8,-1
 182 94 l 1,9,-1
 182 549 l 2,10,11
 182 582 182 582 207 608 c 2,12,-1
 303 704 l 1,13,-1
 207 800 l 2,14,15
 182 826 182 826 182 859 c 2,16,-1
 182 1315 l 1,17,-1
 76 1421 l 1,18,19
 57 1421 57 1421 44 1428 c 128,-1,20
 31 1435 31 1435 31 1454 c 2,21,-1
 31 1555 l 2,22,23
 31 1569 31 1569 41 1578.5 c 128,-1,24
 51 1588 51 1588 64 1588 c 2,25,-1
 111 1588 l 2,26,27
 144 1588 144 1588 170 1564 c 2,28,-1
 325 1408 l 2,29,30
 349 1384 349 1384 349 1349 c 2,31,-1
 349 894 l 1,32,-1
 456 788 l 1,33,-1
 510 788 l 1,34,-1
 510 620 l 1,35,-1
 456 620 l 1,36,-1
 349 514 l 1,37,-1
 349 59 l 2,38,39
 349 26 349 26 325 0 c 2,40,-1
 170 -155 l 2,41,42
 144 -180 144 -180 111 -180 c 2,0,-1
EndSplineSet
EndChar

StartChar: asciitilde
Encoding: 126 126 97
Width: 891
GlyphClass: 2
Flags: W
LayerCount: 2
Fore
SplineSet
563 429 m 0,0,1
 532 429 532 429 504 453 c 2,2,-1
 326 631 l 1,3,-1
 149 453 l 1,4,-1
 31 571 l 1,5,-1
 267 808 l 2,6,7
 292 831 292 831 325 833 c 0,8,9
 360 833 360 833 385 808 c 2,10,-1
 563 631 l 1,11,-1
 740 808 l 1,12,-1
 859 690 l 1,13,-1
 622 453 l 2,14,15
 595 429 595 429 563 429 c 0,0,1
EndSplineSet
EndChar

StartChar: exclamdown
Encoding: 161 161 98
Width: 344
GlyphClass: 2
Flags: W
LayerCount: 2
Fore
SplineSet
222 -9 m 2,0,-1
 121 -9 l 2,1,2
 108 -9 108 -9 98 1 c 128,-1,3
 88 11 88 11 88 25 c 2,4,-1
 88 1138 l 2,5,6
 88 1152 88 1152 98 1161.5 c 128,-1,7
 108 1171 108 1171 121 1171 c 2,8,-1
 222 1171 l 2,9,10
 236 1171 236 1171 245.5 1161.5 c 128,-1,11
 255 1152 255 1152 255 1138 c 2,12,-1
 255 25 l 2,13,14
 255 11 255 11 245.5 1 c 128,-1,15
 236 -9 236 -9 222 -9 c 2,0,-1
222 1267 m 2,16,-1
 121 1267 l 2,17,18
 108 1267 108 1267 98 1277 c 128,-1,19
 88 1287 88 1287 88 1300 c 2,20,-1
 88 1401 l 2,21,22
 88 1415 88 1415 98 1424.5 c 128,-1,23
 108 1434 108 1434 121 1434 c 2,24,-1
 222 1434 l 2,25,26
 236 1434 236 1434 245.5 1424.5 c 128,-1,27
 255 1415 255 1415 255 1401 c 2,28,-1
 255 1300 l 2,29,30
 255 1287 255 1287 245.5 1277 c 128,-1,31
 236 1267 236 1267 222 1267 c 2,16,-1
EndSplineSet
EndChar

StartChar: cent
Encoding: 162 162 99
Width: 948
GlyphClass: 2
Flags: W
LayerCount: 2
Fore
SplineSet
520 0 m 2,0,-1
 420 0 l 2,1,2
 406 0 406 0 396 10 c 128,-1,3
 386 20 386 20 386 33 c 2,4,-1
 386 167 l 1,5,-1
 311 167 l 2,6,7
 278 167 278 167 252 192 c 2,8,-1
 96 347 l 2,9,10
 72 373 72 373 72 406 c 2,11,-1
 72 1027 l 2,12,13
 72 1062 72 1062 96 1087 c 2,14,-1
 252 1242 l 2,15,16
 278 1266 278 1266 311 1266 c 2,17,-1
 386 1266 l 1,18,-1
 386 1400 l 2,19,20
 386 1414 386 1414 396 1424 c 128,-1,21
 406 1434 406 1434 420 1434 c 2,22,-1
 520 1434 l 2,23,24
 534 1434 534 1434 543.5 1424 c 128,-1,25
 553 1414 553 1414 553 1400 c 2,26,-1
 553 1266 l 1,27,-1
 629 1266 l 2,28,29
 662 1266 662 1266 688 1242 c 2,30,-1
 843 1087 l 2,31,32
 868 1062 868 1062 868 1027 c 2,33,-1
 868 910 l 2,34,35
 868 896 868 896 858 886 c 128,-1,36
 848 876 848 876 834 876 c 2,37,-1
 734 876 l 2,38,39
 720 876 720 876 710 886 c 128,-1,40
 700 896 700 896 700 910 c 2,41,-1
 700 993 l 1,42,-1
 594 1099 l 1,43,-1
 553 1099 l 1,44,-1
 553 335 l 1,45,-1
 594 335 l 1,46,-1
 700 441 l 1,47,-1
 700 511 l 2,48,49
 700 525 700 525 710 535 c 128,-1,50
 720 545 720 545 734 545 c 2,51,-1
 834 545 l 2,52,53
 854 545 854 545 861 532 c 128,-1,54
 868 519 868 519 868 499 c 2,55,-1
 868 406 l 2,56,57
 868 373 868 373 843 347 c 2,58,-1
 688 192 l 2,59,60
 662 167 662 167 629 167 c 2,61,-1
 553 167 l 1,62,-1
 553 33 l 2,63,64
 553 20 553 20 543.5 10 c 128,-1,65
 534 0 534 0 520 0 c 2,0,-1
386 335 m 1,66,-1
 386 1099 l 1,67,-1
 346 1099 l 1,68,-1
 239 993 l 1,69,-1
 239 441 l 1,70,-1
 346 335 l 1,71,-1
 386 335 l 1,66,-1
EndSplineSet
EndChar

StartChar: sterling
Encoding: 163 163 100
Width: 1080
GlyphClass: 2
Flags: W
LayerCount: 2
Fore
SplineSet
761 0 m 2,0,-1
 133 0 l 2,1,2
 97 0 97 0 73.5 25 c 128,-1,3
 50 50 50 50 50 83 c 256,4,5
 50 116 50 116 74 142 c 2,6,-1
 204 273 l 1,7,-1
 204 633 l 1,8,-1
 83 633 l 2,9,10
 69 633 69 633 59 643 c 128,-1,11
 49 653 49 653 49 666 c 2,12,-1
 49 767 l 2,13,14
 49 781 49 781 59 790.5 c 128,-1,15
 69 800 69 800 83 800 c 2,16,-1
 204 800 l 1,17,-1
 204 1194 l 2,18,19
 204 1227 204 1227 229 1253 c 2,20,-1
 384 1409 l 2,21,22
 410 1433 410 1433 443 1433 c 2,23,-1
 761 1433 l 2,24,25
 794 1433 794 1433 820 1409 c 2,26,-1
 976 1253 l 2,27,28
 1000 1229 1000 1229 1000 1194 c 2,29,-1
 1000 1084 l 2,30,31
 1000 1071 1000 1071 990.5 1061 c 128,-1,32
 981 1051 981 1051 967 1051 c 2,33,-1
 866 1051 l 2,34,35
 853 1051 853 1051 843 1061 c 128,-1,36
 833 1071 833 1071 833 1084 c 2,37,-1
 833 1160 l 1,38,-1
 726 1266 l 1,39,-1
 478 1266 l 1,40,-1
 372 1160 l 1,41,-1
 372 800 l 1,42,-1
 730 800 l 2,43,44
 744 800 744 800 753.5 790.5 c 128,-1,45
 763 781 763 781 763 767 c 2,46,-1
 763 666 l 2,47,48
 763 653 763 653 753.5 643 c 128,-1,49
 744 633 744 633 730 633 c 2,50,-1
 372 633 l 1,51,-1
 372 238 l 2,52,53
 372 214 372 214 362.5 199 c 128,-1,54
 353 184 353 184 335 167 c 1,55,-1
 726 167 l 1,56,-1
 833 273 l 1,57,-1
 833 348 l 2,58,59
 833 362 833 362 843 372 c 128,-1,60
 853 382 853 382 866 382 c 2,61,-1
 967 382 l 2,62,63
 981 382 981 382 990.5 372 c 128,-1,64
 1000 362 1000 362 1000 348 c 2,65,-1
 1000 238 l 2,66,67
 1000 205 1000 205 976 179 c 2,68,-1
 820 24 l 2,69,70
 794 0 794 0 761 0 c 2,0,-1
EndSplineSet
EndChar

StartChar: yen
Encoding: 165 165 102
Width: 881
GlyphClass: 2
Flags: W
LayerCount: 2
Fore
SplineSet
469 0 m 2,0,-1
 368 0 l 2,1,2
 355 0 355 0 345 10 c 128,-1,3
 335 20 335 20 335 33 c 2,4,-1
 335 353 l 1,5,-1
 165 353 l 2,6,7
 152 353 152 353 142 363 c 128,-1,8
 132 373 132 373 132 386 c 2,9,-1
 132 487 l 2,10,11
 132 501 132 501 142 510.5 c 128,-1,12
 152 520 152 520 165 520 c 2,13,-1
 335 520 l 1,14,-1
 335 616 l 1,15,-1
 165 616 l 2,16,17
 152 616 152 616 142 626 c 128,-1,18
 132 636 132 636 132 649 c 2,19,-1
 132 749 l 2,20,21
 132 763 132 763 142 773 c 128,-1,22
 152 783 152 783 165 783 c 2,23,-1
 279 783 l 1,24,25
 47 1405 47 1405 45 1414 c 0,26,27
 45 1431 45 1431 70 1433 c 2,28,-1
 170 1433 l 2,29,30
 184 1433 184 1433 196.5 1425 c 128,-1,31
 209 1417 209 1417 214 1405 c 2,32,-1
 419 857 l 1,33,-1
 623 1405 l 2,34,35
 628 1417 628 1417 641 1425 c 128,-1,36
 654 1433 654 1433 667 1433 c 2,37,-1
 767 1433 l 2,38,39
 790 1433 790 1433 791 1414 c 2,40,-1
 790 1405 l 1,41,-1
 558 783 l 1,42,-1
 672 783 l 2,43,44
 686 783 686 783 695.5 773 c 128,-1,45
 705 763 705 763 705 749 c 2,46,-1
 705 649 l 2,47,48
 705 636 705 636 695.5 626 c 128,-1,49
 686 616 686 616 672 616 c 2,50,-1
 502 616 l 1,51,-1
 502 520 l 1,52,-1
 672 520 l 2,53,54
 686 520 686 520 695.5 510.5 c 128,-1,55
 705 501 705 501 705 487 c 2,56,-1
 705 386 l 2,57,58
 705 373 705 373 695.5 363 c 128,-1,59
 686 353 686 353 672 353 c 2,60,-1
 502 353 l 1,61,-1
 502 33 l 2,62,63
 502 20 502 20 492.5 10 c 128,-1,64
 483 0 483 0 469 0 c 2,0,-1
EndSplineSet
EndChar

StartChar: dieresis
Encoding: 168 168 105
Width: 401
GlyphClass: 2
Flags: W
LayerCount: 2
Fore
SplineSet
139 1250 m 2,0,-1
 62 1250 l 2,1,2
 49 1250 49 1250 39 1260 c 128,-1,3
 29 1270 29 1270 29 1283 c 2,4,-1
 29 1360 l 2,5,6
 29 1374 29 1374 39 1383.5 c 128,-1,7
 49 1393 49 1393 62 1393 c 2,8,-1
 139 1393 l 2,9,10
 153 1393 153 1393 162.5 1383.5 c 128,-1,11
 172 1374 172 1374 172 1360 c 2,12,-1
 172 1283 l 2,13,14
 172 1270 172 1270 162.5 1260 c 128,-1,15
 153 1250 153 1250 139 1250 c 2,0,-1
340 1250 m 2,16,-1
 263 1250 l 2,17,18
 250 1250 250 1250 240 1260 c 128,-1,19
 230 1270 230 1270 230 1283 c 2,20,-1
 230 1360 l 2,21,22
 230 1374 230 1374 240 1383.5 c 128,-1,23
 250 1393 250 1393 263 1393 c 2,24,-1
 340 1393 l 2,25,26
 354 1393 354 1393 363.5 1383.5 c 128,-1,27
 373 1374 373 1374 373 1360 c 2,28,-1
 373 1283 l 2,29,30
 373 1270 373 1270 363.5 1260 c 128,-1,31
 354 1250 354 1250 340 1250 c 2,16,-1
EndSplineSet
EndChar

StartChar: guillemotleft
Encoding: 171 171 108
Width: 707
GlyphClass: 2
Flags: W
LayerCount: 2
Fore
SplineSet
368 197 m 2,0,-1
 253 197 l 2,1,2
 239 197 239 197 226.5 205 c 128,-1,3
 214 213 214 213 208 225 c 0,4,5
 47 651 47 651 47 656 c 0,6,7
 47 660 47 660 208 1086 c 0,8,9
 214 1098 214 1098 226.5 1106 c 128,-1,10
 239 1114 239 1114 253 1114 c 2,11,-1
 368 1114 l 2,12,13
 391 1114 391 1114 392 1095 c 1,14,-1
 390 1086 l 1,15,16
 228 661 228 661 225 656 c 1,17,-1
 230 646 l 1,18,19
 390 225 390 225 392 216 c 0,20,21
 392 200 392 200 368 197 c 2,0,-1
633 197 m 2,22,-1
 518 197 l 2,23,24
 504 197 504 197 491.5 205 c 128,-1,25
 479 213 479 213 474 225 c 0,26,27
 312 651 312 651 312 656 c 0,28,29
 312 660 312 660 474 1086 c 0,30,31
 479 1098 479 1098 491.5 1106 c 128,-1,32
 504 1114 504 1114 518 1114 c 2,33,-1
 633 1114 l 2,34,35
 656 1114 656 1114 657 1095 c 1,36,-1
 655 1086 l 1,37,38
 493 661 493 661 490 656 c 1,39,-1
 495 646 l 1,40,41
 655 225 655 225 657 216 c 0,42,43
 657 200 657 200 633 197 c 2,22,-1
EndSplineSet
EndChar

StartChar: plusminus
Encoding: 177 177 113
Width: 887
GlyphClass: 2
Flags: W
LayerCount: 2
Fore
SplineSet
494 243 m 2,0,-1
 393 243 l 2,1,2
 380 243 380 243 370 253 c 128,-1,3
 360 263 360 263 360 276 c 2,4,-1
 360 560 l 1,5,-1
 76 560 l 2,6,7
 63 560 63 560 53 569.5 c 128,-1,8
 43 579 43 579 43 593 c 2,9,-1
 43 693 l 2,10,11
 43 707 43 707 53 717 c 128,-1,12
 63 727 63 727 76 727 c 2,13,-1
 360 727 l 1,14,-1
 360 1010 l 2,15,16
 360 1024 360 1024 370 1033.5 c 128,-1,17
 380 1043 380 1043 393 1043 c 2,18,-1
 494 1043 l 2,19,20
 508 1043 508 1043 517.5 1033.5 c 128,-1,21
 527 1024 527 1024 527 1010 c 2,22,-1
 527 727 l 1,23,-1
 810 727 l 2,24,25
 824 727 824 727 834 717 c 128,-1,26
 844 707 844 707 844 693 c 2,27,-1
 844 593 l 2,28,29
 844 579 844 579 834 569.5 c 128,-1,30
 824 560 824 560 810 560 c 2,31,-1
 527 560 l 1,32,-1
 527 276 l 2,33,34
 527 263 527 263 517.5 253 c 128,-1,35
 508 243 508 243 494 243 c 2,0,-1
810 0 m 2,36,-1
 76 0 l 2,37,38
 63 0 63 0 53 10 c 128,-1,39
 43 20 43 20 43 33 c 2,40,-1
 43 134 l 2,41,42
 43 148 43 148 53 157.5 c 128,-1,43
 63 167 63 167 76 167 c 2,44,-1
 810 167 l 2,45,46
 824 167 824 167 834 157.5 c 128,-1,47
 844 148 844 148 844 134 c 2,48,-1
 844 33 l 2,49,50
 844 20 844 20 834 10 c 128,-1,51
 824 0 824 0 810 0 c 2,36,-1
EndSplineSet
EndChar

StartChar: acute
Encoding: 180 180 116
Width: 276
GlyphClass: 2
Flags: W
LayerCount: 2
Fore
SplineSet
105 1200 m 2,0,-1
 52 1200 l 2,1,2
 33 1200 33 1200 30 1217 c 0,3,4
 30 1219 30 1219 31 1222.5 c 128,-1,5
 32 1226 32 1226 125 1413 c 0,6,7
 131 1424 131 1424 144.5 1431.5 c 128,-1,8
 158 1439 158 1439 172 1439 c 2,9,-1
 224 1439 l 2,10,11
 247 1439 247 1439 248 1422 c 0,12,13
 248 1419 248 1419 152 1227 c 0,14,15
 146 1215 146 1215 132.5 1207.5 c 128,-1,16
 119 1200 119 1200 105 1200 c 2,0,-1
EndSplineSet
EndChar

StartChar: periodcentered
Encoding: 183 183 119
AltUni2: 002219.ffffffff.0 002219.ffffffff.0
Width: 236
GlyphClass: 2
Flags: W
LayerCount: 2
Fore
SplineSet
178 500 m 2,0,-1
 53 500 l 2,1,2
 40 500 40 500 30 510 c 128,-1,3
 20 520 20 520 20 533 c 2,4,-1
 20 658 l 2,5,6
 20 672 20 672 30 681.5 c 128,-1,7
 40 691 40 691 53 691 c 2,8,-1
 178 691 l 2,9,10
 192 691 192 691 201.5 681.5 c 128,-1,11
 211 672 211 672 211 658 c 2,12,-1
 211 533 l 2,13,14
 211 520 211 520 201.5 510 c 128,-1,15
 192 500 192 500 178 500 c 2,0,-1
EndSplineSet
EndChar

StartChar: cedilla
Encoding: 184 184 120
Width: 285
GlyphClass: 2
Flags: W
LayerCount: 2
Fore
SplineSet
196 -200 m 2,0,-1
 59 -200 l 2,1,2
 50 -200 50 -200 43.5 -193.5 c 128,-1,3
 37 -187 37 -187 37 -178 c 2,4,-1
 37 -127 l 2,5,6
 37 -117 37 -117 43.5 -110.5 c 128,-1,7
 50 -104 50 -104 59 -104 c 2,8,-1
 149 -104 l 1,9,-1
 149 -69 l 1,10,-1
 99 -69 l 2,11,12
 90 -69 90 -69 83.5 -57.5 c 128,-1,13
 77 -46 77 -46 77 -30 c 2,14,-1
 77 60 l 2,15,16
 77 76 77 76 83.5 87.5 c 128,-1,17
 90 99 90 99 99 99 c 2,18,-1
 150 99 l 2,19,20
 160 99 160 99 166.5 87.5 c 128,-1,21
 173 76 173 76 173 60 c 2,22,-1
 173 27 l 1,23,-1
 196 27 l 2,24,25
 216 27 216 27 230 13 c 128,-1,26
 244 -1 244 -1 244 -21 c 2,27,-1
 244 -152 l 2,28,29
 244 -172 244 -172 230 -186 c 128,-1,30
 216 -200 216 -200 196 -200 c 2,0,-1
EndSplineSet
EndChar

StartChar: guillemotright
Encoding: 187 187 123
Width: 707
GlyphClass: 2
Flags: W
LayerCount: 2
Fore
SplineSet
188 197 m 2,0,-1
 73 197 l 2,1,2
 63 197 63 197 56 202.5 c 128,-1,3
 49 208 49 208 49 216 c 2,4,-1
 51 225 l 1,5,6
 211 646 211 646 216 656 c 1,7,-1
 211 665 l 1,8,9
 51 1086 51 1086 49 1095 c 0,10,11
 49 1103 49 1103 56 1108.5 c 128,-1,12
 63 1114 63 1114 73 1114 c 2,13,-1
 188 1114 l 2,14,15
 202 1114 202 1114 214.5 1106 c 128,-1,16
 227 1098 227 1098 232 1086 c 0,17,18
 394 660 394 660 394 656 c 0,19,20
 394 651 394 651 232 225 c 0,21,22
 227 213 227 213 214.5 205 c 128,-1,23
 202 197 202 197 188 197 c 2,0,-1
453 197 m 2,24,-1
 339 197 l 2,25,26
 317 197 317 197 314 216 c 1,27,-1
 316 225 l 1,28,29
 476 646 476 646 481 656 c 1,30,-1
 476 665 l 1,31,32
 316 1086 316 1086 314 1095 c 0,33,34
 314 1112 314 1112 339 1114 c 2,35,-1
 453 1114 l 2,36,37
 467 1114 467 1114 480 1106 c 128,-1,38
 493 1098 493 1098 497 1086 c 2,39,-1
 657 665 l 2,40,41
 659 662 659 662 659 656 c 0,42,43
 659 653 659 653 659 651.5 c 128,-1,44
 659 650 659 650 497 225 c 0,45,46
 493 213 493 213 480 205 c 128,-1,47
 467 197 467 197 453 197 c 2,24,-1
EndSplineSet
EndChar

StartChar: questiondown
Encoding: 191 191 127
Width: 856
GlyphClass: 2
Flags: W
LayerCount: 2
Fore
SplineSet
578 -6 m 2,0,-1
 260 -6 l 2,1,2
 227 -6 227 -6 201 19 c 2,3,-1
 45 174 l 2,4,5
 21 200 21 200 21 233 c 2,6,-1
 21 505 l 2,7,8
 21 531 21 531 36 553 c 1,9,-1
 315 830 l 1,10,-1
 315 1123 l 2,11,12
 315 1137 315 1137 325 1146.5 c 128,-1,13
 335 1156 335 1156 348 1156 c 2,14,-1
 449 1156 l 2,15,16
 463 1156 463 1156 472.5 1146.5 c 128,-1,17
 482 1137 482 1137 482 1123 c 2,18,-1
 482 803 l 2,19,20
 482 778 482 778 467 755 c 1,21,-1
 188 478 l 1,22,-1
 188 268 l 1,23,-1
 295 161 l 1,24,-1
 543 161 l 1,25,-1
 649 268 l 1,26,-1
 649 343 l 2,27,28
 649 357 649 357 659 366.5 c 128,-1,29
 669 376 669 376 683 376 c 2,30,-1
 783 376 l 2,31,32
 797 376 797 376 807 366.5 c 128,-1,33
 817 357 817 357 817 343 c 2,34,-1
 817 233 l 2,35,36
 817 200 817 200 792 174 c 2,37,-1
 637 19 l 2,38,39
 611 -6 611 -6 578 -6 c 2,0,-1
458 1267 m 2,40,-1
 357 1267 l 2,41,42
 344 1267 344 1267 334 1277 c 128,-1,43
 324 1287 324 1287 324 1300 c 2,44,-1
 324 1401 l 2,45,46
 324 1415 324 1415 334 1424.5 c 128,-1,47
 344 1434 344 1434 357 1434 c 2,48,-1
 458 1434 l 2,49,50
 472 1434 472 1434 481.5 1424.5 c 128,-1,51
 491 1415 491 1415 491 1401 c 2,52,-1
 491 1300 l 2,53,54
 491 1287 491 1287 481.5 1277 c 128,-1,55
 472 1267 472 1267 458 1267 c 2,40,-1
EndSplineSet
EndChar

StartChar: Agrave
Encoding: 192 192 128
Width: 950
GlyphClass: 2
Flags: W
LayerCount: 2
Fore
SplineSet
823 0 m 2,0,-1
 723 0 l 2,1,2
 709 0 709 0 699 10 c 128,-1,3
 689 20 689 20 689 33 c 2,4,-1
 689 466 l 1,5,-1
 550 466 l 2,6,7
 536 466 536 466 526 476 c 128,-1,8
 516 486 516 486 516 499 c 2,9,-1
 516 600 l 2,10,11
 516 614 516 614 526 623.5 c 128,-1,12
 536 633 536 633 550 633 c 2,13,-1
 689 633 l 1,14,-1
 689 1160 l 1,15,-1
 583 1266 l 1,16,-1
 550 1266 l 2,17,18
 536 1266 536 1266 526 1276 c 128,-1,19
 516 1286 516 1286 516 1300 c 2,20,-1
 516 1400 l 2,21,22
 516 1414 516 1414 526 1424 c 128,-1,23
 536 1434 536 1434 550 1434 c 2,24,-1
 618 1434 l 2,25,26
 651 1434 651 1434 677 1409 c 2,27,-1
 832 1254 l 2,28,29
 857 1228 857 1228 857 1195 c 2,30,-1
 857 33 l 2,31,32
 857 20 857 20 847 10 c 128,-1,33
 837 0 837 0 823 0 c 2,0,-1
226 0 m 2,34,-1
 125 0 l 2,35,36
 112 0 112 0 102 10 c 128,-1,37
 92 20 92 20 92 33 c 2,38,-1
 92 1195 l 2,39,40
 92 1228 92 1228 116 1254 c 2,41,-1
 272 1409 l 2,42,43
 298 1434 298 1434 331 1434 c 2,44,-1
 399 1434 l 2,45,46
 413 1434 413 1434 422.5 1424 c 128,-1,47
 432 1414 432 1414 432 1400 c 2,48,-1
 432 1300 l 2,49,50
 432 1286 432 1286 422.5 1276 c 128,-1,51
 413 1266 413 1266 399 1266 c 2,52,-1
 366 1266 l 1,53,-1
 259 1160 l 1,54,-1
 259 633 l 1,55,-1
 399 633 l 2,56,57
 413 633 413 633 422.5 623.5 c 128,-1,58
 432 614 432 614 432 600 c 2,59,-1
 432 499 l 2,60,61
 432 486 432 486 422.5 476 c 128,-1,62
 413 466 413 466 399 466 c 2,63,-1
 259 466 l 1,64,-1
 259 33 l 2,65,66
 259 20 259 20 249.5 10 c 128,-1,67
 240 0 240 0 226 0 c 2,34,-1
516 1497 m 2,68,-1
 464 1497 l 2,69,70
 450 1497 450 1497 436.5 1504.5 c 128,-1,71
 423 1512 423 1512 417 1524 c 0,72,73
 321 1716 321 1716 321 1719 c 0,74,75
 321 1734 321 1734 344 1736 c 2,76,-1
 397 1736 l 2,77,78
 411 1736 411 1736 424.5 1728.5 c 128,-1,79
 438 1721 438 1721 444 1710 c 2,80,-1
 537 1524 l 2,81,82
 539 1519 539 1519 539 1514 c 0,83,84
 539 1499 539 1499 516 1497 c 2,68,-1
EndSplineSet
EndChar

StartChar: Aacute
Encoding: 193 193 129
Width: 950
GlyphClass: 2
Flags: W
LayerCount: 2
Fore
SplineSet
823 0 m 2,0,-1
 723 0 l 2,1,2
 709 0 709 0 699 10 c 128,-1,3
 689 20 689 20 689 33 c 2,4,-1
 689 466 l 1,5,-1
 550 466 l 2,6,7
 536 466 536 466 526 476 c 128,-1,8
 516 486 516 486 516 499 c 2,9,-1
 516 600 l 2,10,11
 516 614 516 614 526 623.5 c 128,-1,12
 536 633 536 633 550 633 c 2,13,-1
 689 633 l 1,14,-1
 689 1160 l 1,15,-1
 583 1266 l 1,16,-1
 550 1266 l 2,17,18
 536 1266 536 1266 526 1276 c 128,-1,19
 516 1286 516 1286 516 1300 c 2,20,-1
 516 1400 l 2,21,22
 516 1414 516 1414 526 1424 c 128,-1,23
 536 1434 536 1434 550 1434 c 2,24,-1
 618 1434 l 2,25,26
 651 1434 651 1434 677 1409 c 2,27,-1
 832 1254 l 2,28,29
 857 1228 857 1228 857 1195 c 2,30,-1
 857 33 l 2,31,32
 857 20 857 20 847 10 c 128,-1,33
 837 0 837 0 823 0 c 2,0,-1
226 0 m 2,34,-1
 125 0 l 2,35,36
 112 0 112 0 102 10 c 128,-1,37
 92 20 92 20 92 33 c 2,38,-1
 92 1195 l 2,39,40
 92 1228 92 1228 116 1254 c 2,41,-1
 272 1409 l 2,42,43
 298 1434 298 1434 331 1434 c 2,44,-1
 399 1434 l 2,45,46
 413 1434 413 1434 422.5 1424 c 128,-1,47
 432 1414 432 1414 432 1400 c 2,48,-1
 432 1300 l 2,49,50
 432 1286 432 1286 422.5 1276 c 128,-1,51
 413 1266 413 1266 399 1266 c 2,52,-1
 366 1266 l 1,53,-1
 259 1160 l 1,54,-1
 259 633 l 1,55,-1
 399 633 l 2,56,57
 413 633 413 633 422.5 623.5 c 128,-1,58
 432 614 432 614 432 600 c 2,59,-1
 432 499 l 2,60,61
 432 486 432 486 422.5 476 c 128,-1,62
 413 466 413 466 399 466 c 2,63,-1
 259 466 l 1,64,-1
 259 33 l 2,65,66
 259 20 259 20 249.5 10 c 128,-1,67
 240 0 240 0 226 0 c 2,34,-1
510 1498 m 2,68,-1
 457 1498 l 2,69,70
 436 1498 436 1498 435 1515 c 0,71,72
 435 1517 435 1517 435 1519.5 c 128,-1,73
 435 1522 435 1522 530 1711 c 0,74,75
 536 1722 536 1722 549.5 1729.5 c 128,-1,76
 563 1737 563 1737 577 1737 c 2,77,-1
 629 1737 l 2,78,79
 652 1737 652 1737 652 1720 c 0,80,81
 652 1718 652 1718 652 1716 c 128,-1,82
 652 1714 652 1714 557 1525 c 0,83,84
 551 1513 551 1513 537.5 1505.5 c 128,-1,85
 524 1498 524 1498 510 1498 c 2,68,-1
EndSplineSet
EndChar

StartChar: Acircumflex
Encoding: 194 194 130
Width: 950
GlyphClass: 2
Flags: W
LayerCount: 2
Fore
SplineSet
823 0 m 2,0,-1
 723 0 l 2,1,2
 709 0 709 0 699 10 c 128,-1,3
 689 20 689 20 689 33 c 2,4,-1
 689 466 l 1,5,-1
 550 466 l 2,6,7
 536 466 536 466 526 476 c 128,-1,8
 516 486 516 486 516 499 c 2,9,-1
 516 600 l 2,10,11
 516 614 516 614 526 623.5 c 128,-1,12
 536 633 536 633 550 633 c 2,13,-1
 689 633 l 1,14,-1
 689 1160 l 1,15,-1
 583 1266 l 1,16,-1
 550 1266 l 2,17,18
 536 1266 536 1266 526 1276 c 128,-1,19
 516 1286 516 1286 516 1300 c 2,20,-1
 516 1400 l 2,21,22
 516 1414 516 1414 526 1424 c 128,-1,23
 536 1434 536 1434 550 1434 c 2,24,-1
 618 1434 l 2,25,26
 651 1434 651 1434 677 1409 c 2,27,-1
 832 1254 l 2,28,29
 857 1228 857 1228 857 1195 c 2,30,-1
 857 33 l 2,31,32
 857 20 857 20 847 10 c 128,-1,33
 837 0 837 0 823 0 c 2,0,-1
226 0 m 2,34,-1
 125 0 l 2,35,36
 112 0 112 0 102 10 c 128,-1,37
 92 20 92 20 92 33 c 2,38,-1
 92 1195 l 2,39,40
 92 1228 92 1228 116 1254 c 2,41,-1
 272 1409 l 2,42,43
 298 1434 298 1434 331 1434 c 2,44,-1
 399 1434 l 2,45,46
 413 1434 413 1434 422.5 1424 c 128,-1,47
 432 1414 432 1414 432 1400 c 2,48,-1
 432 1300 l 2,49,50
 432 1286 432 1286 422.5 1276 c 128,-1,51
 413 1266 413 1266 399 1266 c 2,52,-1
 366 1266 l 1,53,-1
 259 1160 l 1,54,-1
 259 633 l 1,55,-1
 399 633 l 2,56,57
 413 633 413 633 422.5 623.5 c 128,-1,58
 432 614 432 614 432 600 c 2,59,-1
 432 499 l 2,60,61
 432 486 432 486 422.5 476 c 128,-1,62
 413 466 413 466 399 466 c 2,63,-1
 259 466 l 1,64,-1
 259 33 l 2,65,66
 259 20 259 20 249.5 10 c 128,-1,67
 240 0 240 0 226 0 c 2,34,-1
620 1501 m 2,68,-1
 567 1501 l 2,69,70
 554 1501 554 1501 540.5 1508.5 c 128,-1,71
 527 1516 527 1516 521 1528 c 2,72,-1
 474 1621 l 1,73,-1
 428 1528 l 2,74,75
 422 1516 422 1516 408.5 1508.5 c 128,-1,76
 395 1501 395 1501 381 1501 c 2,77,-1
 329 1501 l 2,78,79
 307 1501 307 1501 306 1518 c 0,80,81
 306 1520 306 1520 306 1522.5 c 128,-1,82
 306 1525 306 1525 401 1714 c 0,83,84
 407 1725 407 1725 420.5 1732.5 c 128,-1,85
 434 1740 434 1740 448 1740 c 2,86,-1
 501 1740 l 2,87,88
 515 1740 515 1740 528 1732.5 c 128,-1,89
 541 1725 541 1725 547 1714 c 0,90,91
 643 1522 643 1522 643 1518 c 0,92,93
 643 1503 643 1503 620 1501 c 2,68,-1
EndSplineSet
EndChar

StartChar: Atilde
Encoding: 195 195 131
Width: 950
GlyphClass: 2
Flags: W
LayerCount: 2
Fore
SplineSet
823 0 m 2,0,-1
 723 0 l 2,1,2
 709 0 709 0 699 10 c 128,-1,3
 689 20 689 20 689 33 c 2,4,-1
 689 466 l 1,5,-1
 550 466 l 2,6,7
 536 466 536 466 526 476 c 128,-1,8
 516 486 516 486 516 499 c 2,9,-1
 516 600 l 2,10,11
 516 614 516 614 526 623.5 c 128,-1,12
 536 633 536 633 550 633 c 2,13,-1
 689 633 l 1,14,-1
 689 1160 l 1,15,-1
 583 1266 l 1,16,-1
 550 1266 l 2,17,18
 536 1266 536 1266 526 1276 c 128,-1,19
 516 1286 516 1286 516 1300 c 2,20,-1
 516 1400 l 2,21,22
 516 1414 516 1414 526 1424 c 128,-1,23
 536 1434 536 1434 550 1434 c 2,24,-1
 618 1434 l 2,25,26
 651 1434 651 1434 677 1409 c 2,27,-1
 832 1254 l 2,28,29
 857 1228 857 1228 857 1195 c 2,30,-1
 857 33 l 2,31,32
 857 20 857 20 847 10 c 128,-1,33
 837 0 837 0 823 0 c 2,0,-1
226 0 m 2,34,-1
 125 0 l 2,35,36
 112 0 112 0 102 10 c 128,-1,37
 92 20 92 20 92 33 c 2,38,-1
 92 1195 l 2,39,40
 92 1228 92 1228 116 1254 c 2,41,-1
 272 1409 l 2,42,43
 298 1434 298 1434 331 1434 c 2,44,-1
 399 1434 l 2,45,46
 413 1434 413 1434 422.5 1424 c 128,-1,47
 432 1414 432 1414 432 1400 c 2,48,-1
 432 1300 l 2,49,50
 432 1286 432 1286 422.5 1276 c 128,-1,51
 413 1266 413 1266 399 1266 c 2,52,-1
 366 1266 l 1,53,-1
 259 1160 l 1,54,-1
 259 633 l 1,55,-1
 399 633 l 2,56,57
 413 633 413 633 422.5 623.5 c 128,-1,58
 432 614 432 614 432 600 c 2,59,-1
 432 499 l 2,60,61
 432 486 432 486 422.5 476 c 128,-1,62
 413 466 413 466 399 466 c 2,63,-1
 259 466 l 1,64,-1
 259 33 l 2,65,66
 259 20 259 20 249.5 10 c 128,-1,67
 240 0 240 0 226 0 c 2,34,-1
513 1501 m 0,68,69
 501 1501 501 1501 489 1508 c 2,70,-1
 415 1553 l 1,71,-1
 340 1508 l 1,72,-1
 291 1590 l 1,73,-1
 390 1650 l 2,74,75
 400 1656 400 1656 412 1656 c 0,76,77
 415 1656 415 1656 419.5 1655.5 c 128,-1,78
 424 1655 424 1655 428.5 1654 c 128,-1,79
 433 1653 433 1653 514 1605 c 1,80,-1
 588 1650 l 1,81,-1
 638 1568 l 1,82,-1
 538 1508 l 2,83,84
 527 1501 527 1501 513 1501 c 0,68,69
EndSplineSet
EndChar

StartChar: Adieresis
Encoding: 196 196 132
Width: 950
GlyphClass: 2
Flags: W
LayerCount: 2
Fore
SplineSet
823 0 m 2,0,-1
 723 0 l 2,1,2
 709 0 709 0 699 10 c 128,-1,3
 689 20 689 20 689 33 c 2,4,-1
 689 466 l 1,5,-1
 550 466 l 2,6,7
 536 466 536 466 526 476 c 128,-1,8
 516 486 516 486 516 499 c 2,9,-1
 516 600 l 2,10,11
 516 614 516 614 526 623.5 c 128,-1,12
 536 633 536 633 550 633 c 2,13,-1
 689 633 l 1,14,-1
 689 1160 l 1,15,-1
 583 1266 l 1,16,-1
 550 1266 l 2,17,18
 536 1266 536 1266 526 1276 c 128,-1,19
 516 1286 516 1286 516 1300 c 2,20,-1
 516 1400 l 2,21,22
 516 1414 516 1414 526 1424 c 128,-1,23
 536 1434 536 1434 550 1434 c 2,24,-1
 618 1434 l 2,25,26
 651 1434 651 1434 677 1409 c 2,27,-1
 832 1254 l 2,28,29
 857 1228 857 1228 857 1195 c 2,30,-1
 857 33 l 2,31,32
 857 20 857 20 847 10 c 128,-1,33
 837 0 837 0 823 0 c 2,0,-1
226 0 m 2,34,-1
 125 0 l 2,35,36
 112 0 112 0 102 10 c 128,-1,37
 92 20 92 20 92 33 c 2,38,-1
 92 1195 l 2,39,40
 92 1228 92 1228 116 1254 c 2,41,-1
 272 1409 l 2,42,43
 298 1434 298 1434 331 1434 c 2,44,-1
 399 1434 l 2,45,46
 413 1434 413 1434 422.5 1424 c 128,-1,47
 432 1414 432 1414 432 1400 c 2,48,-1
 432 1300 l 2,49,50
 432 1286 432 1286 422.5 1276 c 128,-1,51
 413 1266 413 1266 399 1266 c 2,52,-1
 366 1266 l 1,53,-1
 259 1160 l 1,54,-1
 259 633 l 1,55,-1
 399 633 l 2,56,57
 413 633 413 633 422.5 623.5 c 128,-1,58
 432 614 432 614 432 600 c 2,59,-1
 432 499 l 2,60,61
 432 486 432 486 422.5 476 c 128,-1,62
 413 466 413 466 399 466 c 2,63,-1
 259 466 l 1,64,-1
 259 33 l 2,65,66
 259 20 259 20 249.5 10 c 128,-1,67
 240 0 240 0 226 0 c 2,34,-1
409 1494 m 2,68,-1
 333 1494 l 2,69,70
 319 1494 319 1494 309 1504 c 128,-1,71
 299 1514 299 1514 299 1527 c 2,72,-1
 299 1604 l 2,73,74
 299 1618 299 1618 309 1627.5 c 128,-1,75
 319 1637 319 1637 333 1637 c 2,76,-1
 409 1637 l 2,77,78
 423 1637 423 1637 433 1627.5 c 128,-1,79
 443 1618 443 1618 443 1604 c 2,80,-1
 443 1527 l 2,81,82
 443 1514 443 1514 433 1504 c 128,-1,83
 423 1494 423 1494 409 1494 c 2,68,-1
610 1494 m 2,84,-1
 533 1494 l 2,85,86
 520 1494 520 1494 510 1504 c 128,-1,87
 500 1514 500 1514 500 1527 c 2,88,-1
 500 1604 l 2,89,90
 500 1618 500 1618 510 1627.5 c 128,-1,91
 520 1637 520 1637 533 1637 c 2,92,-1
 610 1637 l 2,93,94
 624 1637 624 1637 633.5 1627.5 c 128,-1,95
 643 1618 643 1618 643 1604 c 2,96,-1
 643 1527 l 2,97,98
 643 1514 643 1514 633.5 1504 c 128,-1,99
 624 1494 624 1494 610 1494 c 2,84,-1
EndSplineSet
EndChar

